<?xml version="1.0" encoding="UTF-8"?>
<svg width="67px" height="67px" viewBox="0 0 67 67" version="1.1" xmlns="http://www.w3.org/2000/svg" xmlns:xlink="http://www.w3.org/1999/xlink">
    <!-- Generator: Sketch 42 (36781) - http://www.bohemiancoding.com/sketch -->
    <title>noun_774154_cc</title>
    <desc>Created with Sketch.</desc>
    <defs></defs>
    <g id="Website" stroke="none" stroke-width="1" fill="none" fill-rule="evenodd">
        <g id="Final-concept" transform="translate(-687.000000, -3656.000000)">
            <g id="city-govt" transform="translate(150.000000, 3132.000000)">
                <g id="noun_774154_cc" transform="translate(538.000000, 525.000000)">
                    <path d="M31.6975559,15.6002122 C29.8318609,16.7897431 27.6772548,17.4676463 25.4118441,17.2361864 C25.1887876,17.1749079 24.943131,17.189087 24.7297557,17.2756055 C23.9875685,17.6725862 23.4641464,18.3064425 23.4600194,19.0397819 C23.4627058,19.4028248 23.6442944,19.8209428 23.9427288,20.0943491 C25.0007483,21.3881222 25.0029139,23.0122148 25.0130686,24.2535057 C25.1856274,25.8792394 25.511564,27.9619523 26.5556377,29.7432289 C27.5997113,31.5244399 29.5327415,32.9899699 32.3691373,32.9956153 C35.3598277,32.9900356 37.3366666,31.6403011 38.3505348,29.8811793 C39.3643997,28.1221231 39.5905157,26.0424955 39.788169,24.2436263 C39.9770713,22.5741411 39.8849036,21.0737213 40.8794935,20.1534941 C41.1827567,19.8886543 41.3746073,19.4769366 41.3936843,19.11862 C41.3875391,18.344483 40.8539993,17.6034961 40.1974048,17.3249039 C40.0014271,17.242882 39.7771782,17.2218104 39.5677852,17.2657261 C37.4229913,17.1878397 34.786267,17.0845492 33.124666,15.6001137 C32.5641277,15.2116339 32.2316799,15.2644771 31.6975559,15.6002122 L31.6975559,15.6002122 Z M27.0068655,23.2187958 L37.8048625,23.2187958 C37.7941169,23.5070376 37.7850502,23.7888135 37.7838749,24.0565416 C37.5887535,25.8323698 37.321767,27.6924518 36.5771016,28.9844525 C35.8324361,30.2764533 34.7905552,31.0989697 32.3691373,31.1034335 C30.2079126,31.0991667 29.1321795,30.1969258 28.3290709,28.8267762 C27.525959,27.4565937 27.1795654,25.594608 27.0173593,24.066421 C27.0156803,23.7703019 27.0150087,23.4712289 27.0068823,23.2187958 L27.0068655,23.2187958 Z M32.4320969,33.5674382 C29.0013139,33.5674054 25.5642715,34.1239989 21.7180508,35.2428971 C20.1650046,35.8203653 19.3701099,37.5526061 19.3359856,38.6530255 C19.280773,41.2761507 19.2241869,43.9032473 19.1680878,46.5277838 C19.1570063,47.029729 19.640958,47.493732 20.1754816,47.4936663 L44.6887158,47.4936663 C45.2232394,47.493732 45.7071912,47.029729 45.6961098,46.5277838 C45.6428616,43.903313 45.5796971,41.2762163 45.5282119,38.6531568 C45.3498336,37.0819074 44.6782387,35.8203653 43.1356529,35.2429955 C39.2894352,34.1241302 35.8628833,33.5675367 32.4320969,33.5675367 L32.4320969,33.5674382 Z M32.4320969,35.4301459 C35.5773001,35.4301459 38.7216201,35.9555915 42.3486259,36.9972597 C43.0817062,37.4896209 43.5134239,38.1682134 43.5134239,38.6727186 C43.5616351,40.9805567 43.6112331,43.2922679 43.6603342,45.6014846 L21.2038599,45.6014846 C21.2524606,43.2923335 21.3030123,40.9805896 21.3507735,38.6728171 C21.3507735,38.1683775 21.7719975,37.489785 22.5050778,36.9973582 C26.1320866,35.9557228 29.2868971,35.4302772 32.4320969,35.4302772 L32.4320969,35.4301459 Z M24.8032092,38.9486522 C24.4451329,39.1659003 24.0361994,39.1727272 23.6803864,39.1851339 C23.4465773,39.2878992 23.4169225,39.4339566 23.365575,39.6188095 C23.3662466,39.7212138 23.4227252,39.8456744 23.5019947,39.9145019 C23.6212919,40.0181534 23.6279173,40.1567274 23.6279173,40.4368294 C23.6890031,40.7950146 23.755351,41.1525434 23.9112473,41.4126569 C24.1099853,41.7340816 24.5059535,42.0128379 25.0340697,42.0138226 C25.5801718,42.0105404 25.9815095,41.7551533 26.1778834,41.4323172 C26.3522052,41.1136167 26.4176363,40.7566458 26.4507162,40.4368294 C26.4520594,40.1699546 26.4637117,40.017858 26.5766421,39.9243484 C26.6566941,39.858081 26.7179142,39.7390689 26.7235523,39.6385354 C26.7133775,39.3972618 26.5418332,39.3063451 26.4087442,39.1950133 C25.9867547,39.1749919 25.6416975,39.1211312 25.2649305,38.9487507 C25.0284383,38.8126055 25.0112955,38.8742122 24.8032092,38.9486522 L24.8032092,38.9486522 Z" id="Shape" fill="#FFFFFF"></path>
                    <circle id="Oval-11" stroke="#FFFFFF" stroke-width="2" cx="32.5" cy="32.5" r="32.5"></circle>
                </g>
            </g>
        </g>
    </g>
</svg>