<?xml version="1.0" encoding="utf-8"?>
<!-- Generator: Adobe Illustrator 25.4.1, SVG Export Plug-In . SVG Version: 6.00 Build 0)  -->
<svg version="1.1" id="Layer_1" xmlns="http://www.w3.org/2000/svg" xmlns:xlink="http://www.w3.org/1999/xlink" x="0px" y="0px"
	 viewBox="0 0 250 250" enable-background="new 0 0 250 250" xml:space="preserve">
<g>
	<path fill="#FFFFFF" d="M162.49,231.6c-6.78-0.76-13.37-1.18-19.85-2.28c-14.15-2.4-28.12-1.26-42.18,0.92
		c-9.81,1.52-19.78,1.77-29.51-0.79c-16.13-4.24-20.37-18.23-15.3-31.59c1.74-4.59,4.64-8.73,7.03-13.07
		c7.86-14.25,15.76-28.48,23.58-42.75c4.1-7.49,8.75-14.52,14.98-20.48c13.31-12.76,33.97-12.82,47.35-0.22
		c6.1,5.75,10.69,12.55,14.74,19.78c8.53,15.22,17.13,30.4,25.59,45.67c3.87,6.99,8.05,13.78,7.42,22.45
		c-0.76,10.44-6.16,17.9-16.5,20.21C174.14,230.73,168.21,230.93,162.49,231.6z"/>
	<path fill="#FFFFFF" d="M55.49,52.99c1.33-9.59,2.67-19.67,10.18-28.01c9.26-10.27,23.08-8.31,30.75-2.52
		c7.38,5.56,12.65,12.75,15.76,21.32c3.83,10.53,5.55,21.4,3,32.59c-1.49,6.56-4.02,12.77-8.75,17.53
		c-8.48,8.54-17.47,10.05-28.22,3.9c-3.99-2.29-7.66-5.63-10.56-9.24C59.56,78.46,56.45,66.43,55.49,52.99z"/>
	<path fill="#FFFFFF" d="M168.71,17.67c9.63-0.31,16.16,5.8,20.43,14.06c4.35,8.43,5.83,17.6,4.67,27.38
		c-1.26,10.62-4.61,20.18-10.77,28.78c-4.22,5.89-9.74,10.18-16.77,12.42c-9.23,2.95-17.01,0.06-22.91-6.83
		c-8.07-9.41-10.46-20.76-9.2-33.04c1.18-11.55,4.63-22.21,12.18-31.13C151.94,22.71,158.58,17.5,168.71,17.67z"/>
	<path fill="#FFFFFF" d="M46.65,160.21c-11.68-0.04-19.7-5.36-26.39-12.56c-8.22-8.85-13.04-19.62-14.13-31.69
		c-0.69-7.72,1.44-14.99,6.58-21.02c5.75-6.75,13.33-7.63,21.29-5.54c10.82,2.84,18.44,10.08,24.37,19.23
		c4.96,7.65,8,16.15,8.3,25.19c0.24,7.32-1.4,14.49-6.84,20.18C55.87,158.15,51.33,160.68,46.65,160.21z"/>
	<path fill="#FFFFFF" d="M204.56,160.15c-8.35,0.45-13.76-4.07-17.61-10.81c-4.6-8.06-4.52-16.72-2-25.31
		c3.53-12.05,9.74-22.43,20.37-29.65c5.14-3.49,10.7-5.65,17.1-5.84c8.65-0.25,14.26,4.1,18.13,11.18
		c4.44,8.12,4.14,16.81,1.69,25.34c-3.4,11.83-9.58,21.97-19.93,29.12C216.97,157.85,211.22,160.39,204.56,160.15z"/>
</g>
</svg>
