<?xml version="1.0" encoding="utf-8"?>
<!-- Generator: Adobe Illustrator 25.4.1, SVG Export Plug-In . SVG Version: 6.00 Build 0)  -->
<svg version="1.1" id="Layer_1" xmlns="http://www.w3.org/2000/svg" xmlns:xlink="http://www.w3.org/1999/xlink" x="0px" y="0px"
	 viewBox="0 0 250 250" enable-background="new 0 0 250 250" xml:space="preserve">
<g>
	<path fill="#FFFFFF" d="M101.86,192.44c-2.61-9.9,1.79-16.44,9.67-21.51c8.46-5.45,17.94-7.82,27.64-9.58
		c3.43-0.62,6.86-1.22,10.28-1.91c0.62-0.13,1.48-0.54,1.67-1.03c1.7-4.38,3.28-8.8,4.89-13.22c-0.22-0.15-0.44-0.29-0.67-0.44
		c-1.24,0.4-2.46,0.99-3.73,1.17c-2.08,0.29-4.28,0.75-6.28,0.36c-3.1-0.6-6.07-1.75-9.67,0.04c0.89-3.35,1.62-6.13,2.25-8.5
		c-3.61-1.93-6.96-3.71-10.36-5.52c-0.95-14.01-1.4-27.95,1.93-41.7c2.56-10.55,7.08-19.86,17.07-25.48
		c7.23-4.07,14.47-5.56,21.93-0.53c0.47,0.31,1.55,0.21,2.07-0.13c6.02-3.93,12.19-3.8,18.57-0.98c9.95,4.4,15.7,12.29,18.68,22.43
		c2.84,9.68,3.55,19.64,3.18,29.67c-0.19,5.15-0.67,10.28-1.14,15.41c-0.25,2.76-1.72,3.72-4.53,3.49
		c-1.03-0.08-2.23-0.03-3.12,0.42c-1.79,0.9-2.67,2.22-1.52,4.42c1.04,1.98,1.65,4.18,2.68,6.87c-4.05-2.02-7.51-0.61-10.96-0.19
		c-3.1,0.38-6.2,1.47-9.03-1.09c-0.17,0.16-0.35,0.32-0.52,0.47c1.49,4.3,2.92,8.62,4.54,12.87c0.22,0.58,1.34,0.99,2.11,1.15
		c7.21,1.48,14.48,2.7,21.65,4.37c6.61,1.54,12.62,4.54,18.26,8.36c7.3,4.94,9.84,11.66,8.05,20.3
		C192.32,192.44,147.04,192.44,101.86,192.44z"/>
	<path fill="#FFFFFF" d="M68.01,146.9c-6.94-6.94-8.99-16.01-12.43-24.37c-0.57-1.4-1.03-2.43-2.93-2.44
		c-0.86-0.01-2.09-1.19-2.51-2.12c-1.85-4.12-2.49-8.51-2.07-13c0.09-0.92,0.65-2.22,1.37-2.56c1.43-0.68,1.41-1.65,1.41-2.88
		c-0.03-5.3-0.61-10.7,0.17-15.88c0.68-4.51,2.76-8.85,4.51-13.15c0.98-2.4,3.07-3.6,5.77-4.01c1.06-0.16,2.61-1.38,2.79-2.34
		c1.05-5.43,5.03-6.94,11.03-6.45c2.83,0.23,5.64,0.82,8.44,1.36c5.03,0.98,10.12,1.65,14.65,4.46c5.05,3.13,8.18,7.27,9.71,13.14
		c1.92,7.37,2,14.71,1.45,22.17c-0.11,1.46-0.36,2.92,1.55,3.78c0.67,0.3,1.25,1.8,1.15,2.66c-0.49,4.14-1.11,8.27-1.94,12.35
		c-0.33,1.6-1.53,2.66-3.46,2.72c-0.59,0.02-1.41,0.86-1.69,1.51c-1.27,2.98-2.36,6.05-3.57,9.06c-2.28,5.65-4.41,11.39-9.47,16.02
		c11.19,1.5,21.26,4.98,31.03,10.36c-2.12,0.85-3.99,1.56-5.84,2.34c-6.18,2.61-11.92,5.94-16.67,10.76
		c-4.47,4.54-7.17,9.82-6.77,16.39c0.11,1.81,0.02,3.63,0.02,5.63c-27.33,0-54.42,0-81.63,0c0-5.21-0.38-10.52,0.18-15.73
		c0.24-2.26,2.19-4.51,3.77-6.42c1.44-1.74,3.25-3.37,5.22-4.45c12.7-6.96,25.23-14.32,39.6-17.51
		C63.13,147.78,65.43,147.39,68.01,146.9z"/>
</g>
</svg>
