<?xml version="1.0" encoding="utf-8"?>
<!-- Generator: Adobe Illustrator 25.4.1, SVG Export Plug-In . SVG Version: 6.00 Build 0)  -->
<svg version="1.1" id="Layer_1" xmlns="http://www.w3.org/2000/svg" xmlns:xlink="http://www.w3.org/1999/xlink" x="0px" y="0px"
	 viewBox="0 0 250 250" enable-background="new 0 0 250 250" xml:space="preserve">
<g>
	<path fill="#FFFFFF" d="M110.07,27.98c-0.79,0-1.3-0.03-1.8,0.01c-6.83,0.52-13.68,0.83-20.47,1.61
		c-13.7,1.58-27.07,4.62-39.81,10.05c-7.8,3.33-15.16,7.37-20.95,13.73c-3.74,4.11-6.21,8.79-5.47,14.6
		c0.64,4.94,3.32,8.83,6.8,12.17c8.45,8.13,18.9,12.71,29.86,16.12c6.26,1.95,12.73,3.26,19.15,4.63c4.15,0.89,8.39,1.37,12.73,2.06
		c0.3-2.99,0.57-5.74,0.85-8.57c-1.16-0.07-2.09-0.16-3.03-0.19c-8.89-0.33-17.59-1.67-26.03-4.58c-5.58-1.92-10.82-4.45-15.25-8.41
		c-5.09-4.55-8.19-10.04-7.36-17.12c0.6-5.06,3.54-8.82,7.3-11.98c6.18-5.19,13.52-8.08,21.16-10.24
		c10.77-3.04,21.8-4.35,32.97-3.98c3.19,0.11,5.49-0.37,6.26-3.82c0.01-0.05,0.04-0.1,0.07-0.14
		C108.02,32.03,108.98,30.13,110.07,27.98z M102.09,45.12c-0.29-0.02-0.5-0.05-0.7-0.05c-13.41,0.36-26.53,2.38-39.06,7.34
		c-4.8,1.9-9.45,4.2-13.13,8c-1.89,1.95-3.2,4.15-2.7,7.07c0.59,3.52,2.55,6.17,5.15,8.44c5.09,4.44,11.22,6.82,17.63,8.41
		c6.91,1.72,13.98,2.54,21.11,2.76c1.19,0.04,1.56-0.29,1.8-1.5c1.8-8.91,3.56-17.84,5.64-26.69
		C98.92,54.29,100.62,49.81,102.09,45.12z M100.86,201.08c-0.98-3.23-1.93-6.23-2.77-9.27c-0.31-1.12-0.91-1.55-2.02-1.78
		c-5.56-1.13-11.12-2.25-16.64-3.56c-10.36-2.46-20.18-6.32-29.16-12.1c-6.24-4.01-11.67-8.9-15.02-15.65
		c-1.3-2.63-2.04-5.54-3.08-8.44c-3.31,3.57-5.94,7.53-6.16,12.66c-0.24,5.61,2.37,10.04,6.07,13.92
		c6.86,7.19,15.58,11.46,24.68,14.85c5.93,2.21,12.13,3.75,18.28,5.36C83.41,199.28,92,200.14,100.86,201.08z M96.38,121.19
		c10.07,0,19.63,0,28.99,0c0.6-9.63,1.2-19.08,1.79-28.59c-9.54,0-19.1,0-28.93,0C97.61,102.16,97,111.61,96.38,121.19z
		 M133.7,190.91c-1.94-9.31-3.85-18.49-5.78-27.78c-9.43,0-18.94,0-28.53,0c-0.01,0.27-0.06,0.47-0.02,0.66
		c1.86,8.58,3.75,17.15,5.59,25.74c0.24,1.1,0.76,1.38,1.84,1.38c6.64-0.04,13.28-0.01,19.92,0
		C129.08,190.91,131.44,190.91,133.7,190.91z M96.39,128.59c0.58,9.23,1.15,18.2,1.72,27.22c9.93,0,19.49,0,28.93,0
		c-0.55-9.16-1.1-18.16-1.64-27.22C115.86,128.59,106.34,128.59,96.39,128.59z M133.71,58.97c-0.05-0.02-0.15-0.08-0.24-0.08
		c-9.01,0-18.02,0-27.03-0.01c-0.8,0-1.21,0.23-1.41,1.09c-1.43,6.25-2.95,12.48-4.37,18.74c-0.47,2.08-0.73,4.2-1.1,6.39
		c9.76,0,19.27,0,28.62,0C130.03,76.33,131.86,67.71,133.71,58.97z M144.74,30.52c-0.14-0.06-0.24-0.13-0.33-0.13
		c-8.74-0.03-17.48-0.06-26.22-0.02c-0.56,0-1.37,0.56-1.63,1.08c-2.28,4.62-4.51,9.26-6.64,13.94c-0.88,1.93-1.46,3.99-2.18,5.97
		c0.3,0.13,0.4,0.2,0.49,0.2c9.01,0.02,18.02,0.05,27.03,0c0.43,0,1.06-0.57,1.24-1.02c0.96-2.39,1.73-4.86,2.72-7.24
		C140.99,39.04,142.87,34.83,144.74,30.52z M144.39,218.48c-0.09-0.38-0.11-0.64-0.21-0.87c-2.54-6.12-5.11-12.23-7.59-18.37
		c-0.38-0.95-0.89-1.1-1.76-1.1c-8.64,0.01-17.29,0-25.94,0c-0.35,0-0.71,0.06-1.08,0.1c0.01,0.23-0.02,0.41,0.04,0.54
		c2.69,6.17,5.39,12.33,8.07,18.5c0.46,1.06,1.18,1.36,2.33,1.35c8.22-0.06,16.45-0.03,24.67-0.04
		C143.38,218.59,143.84,218.52,144.39,218.48z M85.9,228.44c0.12-0.36,0.2-0.5,0.2-0.65c0.01-6.74,0.02-13.49-0.05-20.23
		c0-0.38-0.64-1-1.08-1.1c-4.31-0.95-8.65-1.81-12.97-2.7c-1.83-0.38-3.65-0.79-5.47-1.19c-0.1,0.3-0.2,0.44-0.2,0.58
		c-0.02,6.68-0.04,13.37,0.02,20.05c0,0.4,0.66,1.02,1.12,1.16c2.83,0.8,5.68,1.58,8.56,2.2C79.3,227.28,82.61,227.83,85.9,228.44z
		 M61.77,105.1c0,6.9-0.02,13.74,0.04,20.57c0,0.37,0.58,0.96,0.99,1.08c2.83,0.79,5.68,1.54,8.55,2.18
		c3.32,0.74,6.66,1.34,10.14,2.03c0-7.47,0-14.66,0-21.74C74.92,107.84,68.45,106.5,61.77,105.1z M42.7,127.71
		c0.15,0.22,0.39,0.62,0.65,0.99c3.76,5.46,9.16,8.99,14.73,12.26c2.53,1.49,5.21,2.8,7.95,3.85c3.66,1.4,7.45,2.48,11.19,3.68
		c2.89,0.93,5.78,1.88,8.69,2.74c1.48,0.43,3.02,0.66,4.64,1.01c-0.25-3.98-0.53-7.7-0.7-11.43c-0.05-1.2-0.53-1.62-1.68-1.74
		c-8.97-0.94-17.82-2.57-26.47-5.09C55.31,132.11,49.04,129.82,42.7,127.71z M148.81,225.82c-9.2,0-18.15,0-27.47,0
		c3.44,4.53,6.89,8.33,11.25,11.22c3.91,2.59,8.15,4.07,12.91,3.96c4.11-0.09,8.22-0.03,12.34-0.03c1.18,0,2.37,0,4.01,0
		C156.29,236.39,152.22,231.13,148.81,225.82z M121.92,23.13c2.28,0,4.1,0,5.91,0c6.59-0.01,13.17-0.04,19.76,0
		c1.22,0.01,1.99-0.35,2.7-1.41c3-4.47,6.43-8.59,10.55-12.11c0.24-0.21,0.44-0.48,0.8-0.87c-6.2,0-12.15-0.03-18.1,0.03
		c-1.24,0.01-2.52,0.21-3.71,0.56C132.28,11.59,126.91,16.74,121.92,23.13z M93.46,207.69c0,7.38,0,14.57,0,21.97
		c7.48,0.47,14.8,0.94,22.3,1.41c-0.15-0.57-0.15-0.74-0.23-0.85c-4.7-6.54-8.35-13.64-11.49-21.03c-0.15-0.35-0.65-0.73-1.01-0.76
		C99.89,208.14,96.74,207.93,93.46,207.69z M57.14,148.86c-0.06,0.29-0.12,0.44-0.12,0.58c0,6.53-0.02,13.05,0.05,19.58
		c0.01,0.51,0.53,1.26,1.01,1.49c3.83,1.86,7.69,3.63,11.57,5.39c0.94,0.42,1.95,0.67,2.91,0.99c0.12-0.24,0.21-0.33,0.21-0.42
		c0.01-6.79,0.03-13.58-0.04-20.37c0-0.45-0.66-1.11-1.16-1.32c-2.62-1.08-5.31-2.01-7.93-3.08
		C61.46,150.83,59.33,149.83,57.14,148.86z M59,222.11c0.06-1.09,0.12-1.55,0.12-2.01c0-6.1-0.03-12.2,0.03-18.3
		c0.01-1.24-0.47-1.68-1.55-2.1c-4.25-1.66-8.45-3.45-12.66-5.19c-0.46-0.19-0.92-0.36-1.54-0.61c0,6.83-0.01,13.4,0.03,19.97
		c0,0.42,0.36,1.04,0.72,1.21C48.95,217.4,53.8,219.66,59,222.11z M54.27,124.16c0.13-0.33,0.2-0.42,0.2-0.52
		c0.01-6.69,0.04-13.38-0.01-20.07c0-0.42-0.58-1.04-1.03-1.23c-2.18-0.91-4.44-1.64-6.62-2.54c-2.61-1.07-5.18-2.23-7.79-3.37
		c-0.07,0.25-0.14,0.4-0.14,0.55c0,6-0.03,12,0.04,18.01c0.02,1.45,0.6,2.68,2.13,3.35c1.98,0.85,3.85,1.94,5.83,2.81
		C49.3,122.22,51.79,123.16,54.27,124.16z M95.65,182.87c-0.17-0.87-0.26-1.36-0.35-1.85c-1.15-6.24-2.4-12.47-3.38-18.74
		c-0.28-1.78-0.77-2.6-2.64-2.9c-3.04-0.48-6.03-1.31-9.05-2c-0.08,0.23-0.18,0.37-0.18,0.52c-0.03,6.84-0.06,13.68-0.03,20.52
		c0,0.34,0.4,0.92,0.71,0.99C85.6,180.58,90.49,181.69,95.65,182.87z M49.76,164.95c0-6.76,0.02-13.08-0.04-19.4
		c-0.01-0.56-0.42-1.27-0.86-1.66c-2.73-2.39-5.52-4.7-8.29-7.04c-0.24-0.21-0.53-0.36-0.96-0.64c0,3.55,0.03,6.87-0.01,10.19
		c-0.03,3.28,0.69,6.37,2.21,9.27C43.7,159.23,46.34,162.16,49.76,164.95z M25.98,181.47c0,3.05,0.15,6.16-0.03,9.25
		c-0.34,5.75,1.82,10.49,5.54,14.64c1.33,1.49,2.86,2.8,4.3,4.19c0.33-6.58,0.35-12.9,0.31-19.21c0-0.4-0.26-0.92-0.57-1.18
		C32.41,186.6,29.24,184.08,25.98,181.47z M21.57,84.18c-0.02,0.23-0.09,0.62-0.09,1.02c-0.01,3.05,0.05,6.1-0.02,9.15
		c-0.09,3.71,0.92,7.06,2.94,10.13c1.88,2.86,4.12,5.37,6.95,7.47c0.12-0.3,0.22-0.44,0.22-0.58c-0.01-6.21-0.02-12.42-0.06-18.62
		c0-0.36-0.21-0.84-0.48-1.07C27.9,89.16,24.73,86.68,21.57,84.18z M89.45,110.02c-0.9,0.96-0.99,20.68,0,22.01
		C89.45,124.55,89.45,117.38,89.45,110.02z"/>
	<path fill="#FFFFFF" d="M229.37,128.91c0.02,7.93-0.76,22.39-3.12,36.72c-2.79,16.89-6.97,33.39-14.77,48.77
		c-4.05,8-8.87,15.46-16.01,21.11c-5.8,4.59-12.27,6.73-19.64,4.76c-5.63-1.51-10.01-5.04-13.91-9.21
		c-6.09-6.51-10.31-14.2-13.87-22.28c-5.82-13.18-9.44-27.01-11.79-41.18c-2.97-17.88-4.02-35.91-3.22-54.01
		c0.79-17.99,3.09-35.78,8.07-53.14c3.64-12.71,8.39-24.94,16.02-35.86c3.22-4.61,6.98-8.72,11.71-11.85
		c8.47-5.6,17.62-5.27,25.73,0.82c6.86,5.15,11.62,11.98,15.65,19.39c7.22,13.32,11.43,27.68,14.45,42.43
		C227.83,90.87,229.16,106.54,229.37,128.91z M215.3,100.25c-0.24-3.16-0.43-6.21-0.72-9.25c-1.11-11.52-3.35-22.8-7.68-33.59
		c-2.79-6.94-6.32-13.41-11.74-18.73c-6.05-5.93-13.82-7.72-21.18-4.64c-3.98,1.67-7.12,4.47-9.82,7.77
		c-5.68,6.93-9.07,15.01-11.65,23.48c-2.54,8.34-4.18,16.87-4.9,25.55c-0.44,5.3-0.59,10.63-0.78,15.94
		c-0.07,2.08,1.53,3.65,3.51,3.71c1.9,0.06,3.49-1.35,3.7-3.37c0.09-0.89,0.05-1.79,0.06-2.69c0.16-8.65,0.86-17.25,2.56-25.76
		c1.75-8.76,4.2-17.3,8.44-25.22c2.51-4.68,5.45-9.04,10.1-11.91c3.68-2.27,7.42-2.42,11.23-0.3c3.16,1.76,5.53,4.37,7.58,7.27
		c5.38,7.62,8.31,16.28,10.44,25.23c2.57,10.81,3.65,21.8,3.66,32.9c0,2.21,1.52,3.83,3.55,3.85c2.1,0.02,3.59-1.47,3.63-3.72
		C215.34,104.57,215.3,102.35,215.3,100.25z M215.3,154.58c0-1.69,0.09-3.38-0.04-5.06c-0.06-0.84-0.33-1.8-0.83-2.45
		c-0.98-1.29-2.41-1.67-3.97-1.08c-1.61,0.61-2.29,1.86-2.37,3.56c-0.24,5.26-0.35,10.54-0.84,15.78
		c-1.12,11.96-3.62,23.61-8.75,34.57c-2.43,5.19-5.34,10.07-9.94,13.67c-3.28,2.57-6.91,3.84-11.05,2.26
		c-3.55-1.36-6.31-3.78-8.52-6.79c-5.22-7.12-8.28-15.21-10.54-23.66c-3.11-11.63-4.31-23.49-4.4-35.49
		c-0.02-2.48-1.48-4.13-3.58-4.16c-2.2-0.03-3.73,1.64-3.65,4.2c0.15,4.63,0.28,9.27,0.65,13.88c0.96,11.81,3.2,23.36,7.56,34.43
		c2.92,7.41,6.57,14.38,12.59,19.81c4.55,4.1,9.76,6.36,16.03,5.46c5.28-0.76,9.39-3.6,12.89-7.4c7-7.61,10.74-16.92,13.55-26.65
		C213.4,178.09,214.97,166.43,215.3,154.58z M196.95,100.74c-4.14-2.42-8.46-3.36-13.13-3.53c0-3.27,0-6.46,0-9.65
		c-2.1,0-4.03,0-6.15,0c0,3.36,0,6.65,0,9.53c-2.94,1.3-5.74,2.18-8.16,3.68c-7.24,4.47-9.26,14.5-4.42,21.35
		c2.68,3.8,6.73,5.78,10.78,7.74c3.59,1.74,7.41,3.19,10.59,5.52c6.28,4.61,4.9,13.37-2.27,16.41c-3.3,1.4-6.74,1.44-10.09,0.65
		c-3.44-0.81-6.75-2.18-10.25-3.35c-0.52,1.42-1.1,3.22-1.83,4.96c-0.47,1.1-0.1,1.69,0.87,2.08c2.09,0.85,4.14,1.86,6.3,2.45
		c2.47,0.67,5.04,0.94,7.75,1.41c0,3.18,0,6.47,0,9.75c2.2,0,4.23,0,6.43,0c0-3.51,0-6.91,0-10.02c2.31-0.86,4.45-1.47,6.43-2.42
		c9.8-4.74,12.5-17.57,5.44-25.87c-3.17-3.72-7.55-5.6-11.87-7.59c-3.04-1.4-6.17-2.81-8.86-4.77c-5.25-3.83-4.23-11.39,1.71-14
		c4.14-1.82,8.38-1.24,12.54-0.07c1.94,0.55,3.79,1.46,5.75,2.23C195.33,105.06,196.12,102.95,196.95,100.74z"/>
	<path fill="#FFFFFF" d="M110.07,27.98c-1.09,2.15-2.05,4.05-3.02,5.96c-0.02,0.05-0.06,0.09-0.07,0.14
		c-0.77,3.45-3.07,3.93-6.26,3.82c-11.17-0.37-22.2,0.94-32.97,3.98c-7.64,2.16-14.98,5.05-21.16,10.24
		c-3.76,3.16-6.71,6.93-7.3,11.98c-0.83,7.07,2.26,12.57,7.36,17.12c4.43,3.96,9.67,6.48,15.25,8.41
		c8.44,2.91,17.14,4.25,26.03,4.58c0.94,0.04,1.88,0.12,3.03,0.19c-0.28,2.84-0.55,5.58-0.85,8.57c-4.34-0.69-8.58-1.17-12.73-2.06
		c-6.42-1.37-12.89-2.68-19.15-4.63c-10.96-3.41-21.41-7.99-29.86-16.12c-3.48-3.35-6.16-7.23-6.8-12.17
		c-0.75-5.8,1.72-10.49,5.47-14.6c5.8-6.36,13.16-10.41,20.95-13.73C60.73,34.22,74.1,31.18,87.8,29.6
		c6.8-0.78,13.65-1.1,20.47-1.61C108.78,27.95,109.29,27.98,110.07,27.98z"/>
	<path fill="#FFFFFF" d="M102.09,45.12c-1.47,4.68-3.17,9.17-4.26,13.79c-2.08,8.85-3.85,17.78-5.64,26.69
		c-0.24,1.21-0.62,1.54-1.8,1.5c-7.13-0.22-14.2-1.04-21.11-2.76c-6.41-1.59-12.54-3.97-17.63-8.41c-2.6-2.27-4.56-4.92-5.15-8.44
		c-0.49-2.92,0.82-5.12,2.7-7.07c3.67-3.8,8.32-6.1,13.13-8c12.53-4.96,25.65-6.98,39.06-7.34C101.59,45.07,101.8,45.1,102.09,45.12
		z"/>
	<path fill="#FFFFFF" d="M100.86,201.08c-8.86-0.93-17.46-1.79-25.82-3.99c-6.14-1.61-12.34-3.15-18.28-5.36
		c-9.1-3.4-17.82-7.66-24.68-14.85c-3.7-3.88-6.32-8.32-6.07-13.92c0.22-5.13,2.85-9.09,6.16-12.66c1.04,2.9,1.77,5.81,3.08,8.44
		c3.35,6.75,8.79,11.64,15.02,15.65c8.98,5.78,18.8,9.64,29.16,12.1c5.52,1.31,11.08,2.43,16.64,3.56c1.1,0.22,1.71,0.66,2.02,1.78
		C98.93,194.84,99.89,197.84,100.86,201.08z"/>
	<path fill="#FFFFFF" d="M96.38,121.19c0.62-9.58,1.23-19.03,1.85-28.59c9.83,0,19.39,0,28.93,0c-0.6,9.51-1.19,18.96-1.79,28.59
		C116.01,121.19,106.45,121.19,96.38,121.19z"/>
	<path fill="#FFFFFF" d="M133.7,190.91c-2.26,0-4.62,0-6.98,0c-6.64-0.01-13.28-0.04-19.92,0c-1.08,0.01-1.61-0.27-1.84-1.38
		c-1.84-8.59-3.72-17.16-5.59-25.74c-0.04-0.19,0.01-0.39,0.02-0.66c9.59,0,19.11,0,28.53,0
		C129.85,172.42,131.76,181.6,133.7,190.91z"/>
	<path fill="#FFFFFF" d="M96.39,128.59c9.95,0,19.47,0,29,0c0.55,9.05,1.09,18.06,1.64,27.22c-9.44,0-19,0-28.93,0
		C97.54,146.79,96.98,137.82,96.39,128.59z"/>
	<path fill="#FFFFFF" d="M133.71,58.97c-1.85,8.73-3.68,17.36-5.54,26.13c-9.34,0-18.86,0-28.62,0c0.37-2.19,0.63-4.31,1.1-6.39
		c1.42-6.25,2.94-12.49,4.37-18.74c0.2-0.86,0.62-1.09,1.41-1.09c9.01,0.01,18.02,0.01,27.03,0.01
		C133.56,58.9,133.66,58.96,133.71,58.97z"/>
	<path fill="#FFFFFF" d="M144.74,30.52c-1.87,4.3-3.75,8.52-5.53,12.78c-0.99,2.38-1.75,4.85-2.72,7.24
		c-0.18,0.45-0.81,1.02-1.24,1.02c-9.01,0.05-18.02,0.02-27.03,0c-0.1,0-0.19-0.08-0.49-0.2c0.72-1.99,1.3-4.04,2.18-5.97
		c2.13-4.69,4.36-9.33,6.64-13.94c0.25-0.52,1.07-1.07,1.63-1.08c8.74-0.05,17.48-0.01,26.22,0.02
		C144.51,30.39,144.6,30.47,144.74,30.52z"/>
	<path fill="#FFFFFF" d="M144.39,218.48c-0.55,0.04-1,0.11-1.46,0.11c-8.22,0.01-16.45-0.02-24.67,0.04
		c-1.15,0.01-1.87-0.29-2.33-1.35c-2.68-6.17-5.38-12.33-8.07-18.5c-0.06-0.13-0.02-0.3-0.04-0.54c0.37-0.04,0.73-0.1,1.08-0.1
		c8.65,0,17.29,0.02,25.94,0c0.87,0,1.38,0.15,1.76,1.1c2.48,6.15,5.05,12.25,7.59,18.37C144.28,217.84,144.3,218.1,144.39,218.48z"
		/>
	<path fill="#FFFFFF" d="M85.9,228.44c-3.29-0.62-6.6-1.16-9.87-1.87c-2.88-0.63-5.72-1.4-8.56-2.2c-0.46-0.13-1.11-0.75-1.12-1.16
		c-0.06-6.68-0.03-13.37-0.02-20.05c0-0.14,0.1-0.29,0.2-0.58c1.82,0.4,3.64,0.81,5.47,1.19c4.33,0.9,8.66,1.75,12.97,2.7
		c0.43,0.1,1.07,0.71,1.08,1.1c0.07,6.74,0.05,13.49,0.05,20.23C86.1,227.94,86.01,228.09,85.9,228.44z"/>
	<path fill="#FFFFFF" d="M61.77,105.1c6.68,1.39,13.15,2.74,19.72,4.11c0,7.08,0,14.27,0,21.74c-3.47-0.69-6.82-1.29-10.14-2.03
		c-2.87-0.64-5.72-1.39-8.55-2.18c-0.41-0.11-0.99-0.7-0.99-1.08C61.76,118.84,61.77,112.01,61.77,105.1z"/>
	<path fill="#FFFFFF" d="M42.7,127.71c6.34,2.11,12.61,4.4,19,6.27c8.65,2.52,17.51,4.15,26.47,5.09c1.14,0.12,1.62,0.54,1.68,1.74
		c0.17,3.73,0.44,7.45,0.7,11.43c-1.62-0.35-3.16-0.58-4.64-1.01c-2.91-0.85-5.8-1.81-8.69-2.74c-3.74-1.2-7.53-2.28-11.19-3.68
		c-2.74-1.05-5.42-2.36-7.95-3.85c-5.57-3.27-10.97-6.8-14.73-12.26C43.09,128.33,42.85,127.93,42.7,127.71z"/>
	<path fill="#FFFFFF" d="M148.81,225.82c3.42,5.31,7.48,10.57,13.04,15.14c-1.64,0-2.82,0-4.01,0c-4.11,0-8.23-0.06-12.34,0.03
		c-4.76,0.11-9-1.37-12.91-3.96c-4.36-2.88-7.81-6.69-11.25-11.22C130.66,225.82,139.61,225.82,148.81,225.82z"/>
	<path fill="#FFFFFF" d="M121.92,23.13c4.99-6.39,10.36-11.54,17.92-13.8c1.19-0.36,2.47-0.55,3.71-0.56
		c5.95-0.06,11.89-0.03,18.1-0.03c-0.36,0.4-0.56,0.67-0.8,0.87c-4.12,3.51-7.55,7.63-10.55,12.11c-0.71,1.06-1.48,1.42-2.7,1.41
		c-6.59-0.04-13.17-0.01-19.76,0C126.02,23.13,124.2,23.13,121.92,23.13z"/>
	<path fill="#FFFFFF" d="M93.46,207.69c3.28,0.24,6.43,0.45,9.57,0.74c0.37,0.03,0.86,0.42,1.01,0.76
		c3.15,7.39,6.79,14.5,11.49,21.03c0.08,0.11,0.08,0.28,0.23,0.85c-7.5-0.48-14.83-0.94-22.3-1.41
		C93.46,222.26,93.46,215.07,93.46,207.69z"/>
	<path fill="#FFFFFF" d="M57.14,148.86c2.19,0.97,4.32,1.97,6.49,2.85c2.63,1.07,5.31,1.99,7.93,3.08c0.5,0.21,1.16,0.86,1.16,1.32
		c0.07,6.79,0.05,13.58,0.04,20.37c0,0.09-0.09,0.18-0.21,0.42c-0.96-0.32-1.97-0.57-2.91-0.99c-3.88-1.75-7.74-3.53-11.57-5.39
		c-0.48-0.23-1-0.98-1.01-1.49c-0.07-6.53-0.05-13.05-0.05-19.58C57.02,149.3,57.08,149.15,57.14,148.86z"/>
	<path fill="#FFFFFF" d="M59,222.11c-5.2-2.45-10.04-4.71-14.86-7.03c-0.36-0.17-0.71-0.79-0.72-1.21
		c-0.04-6.57-0.03-13.15-0.03-19.97c0.62,0.25,1.08,0.42,1.54,0.61c4.22,1.74,8.41,3.53,12.66,5.19c1.08,0.42,1.56,0.86,1.55,2.1
		c-0.07,6.1-0.03,12.2-0.03,18.3C59.11,220.56,59.06,221.02,59,222.11z"/>
	<path fill="#FFFFFF" d="M54.27,124.16c-2.47-1-4.97-1.94-7.41-3.01c-1.97-0.86-3.85-1.95-5.83-2.81c-1.53-0.66-2.12-1.89-2.13-3.35
		c-0.07-6-0.04-12-0.04-18.01c0-0.15,0.07-0.3,0.14-0.55c2.61,1.13,5.18,2.3,7.79,3.37c2.19,0.89,4.44,1.63,6.62,2.54
		c0.45,0.19,1.03,0.81,1.03,1.23c0.06,6.69,0.03,13.38,0.01,20.07C54.46,123.74,54.39,123.84,54.27,124.16z"/>
	<path fill="#FFFFFF" d="M95.65,182.87c-5.16-1.18-10.06-2.29-14.93-3.46c-0.31-0.07-0.71-0.65-0.71-0.99
		c-0.02-6.84,0.01-13.68,0.03-20.52c0-0.14,0.1-0.29,0.18-0.52c3.02,0.69,6.01,1.52,9.05,2c1.87,0.29,2.36,1.11,2.64,2.9
		c0.99,6.27,2.23,12.5,3.38,18.74C95.39,181.52,95.48,182.01,95.65,182.87z"/>
	<path fill="#FFFFFF" d="M49.76,164.95c-3.42-2.78-6.06-5.71-7.94-9.29c-1.52-2.89-2.25-5.99-2.21-9.27
		c0.03-3.32,0.01-6.63,0.01-10.19c0.43,0.28,0.71,0.44,0.96,0.64c2.78,2.33,5.57,4.65,8.29,7.04c0.44,0.39,0.86,1.1,0.86,1.66
		C49.78,151.87,49.76,158.19,49.76,164.95z"/>
	<path fill="#FFFFFF" d="M25.98,181.47c3.26,2.61,6.42,5.13,9.55,7.69c0.31,0.26,0.57,0.78,0.57,1.18
		c0.04,6.32,0.03,12.63-0.31,19.21c-1.44-1.39-2.97-2.7-4.3-4.19c-3.73-4.15-5.88-8.9-5.54-14.64
		C26.13,187.63,25.98,184.52,25.98,181.47z"/>
	<path fill="#FFFFFF" d="M21.57,84.18c3.17,2.5,6.33,4.98,9.46,7.5c0.28,0.22,0.48,0.7,0.48,1.07c0.04,6.21,0.05,12.42,0.06,18.62
		c0,0.14-0.1,0.28-0.22,0.58c-2.82-2.1-5.07-4.61-6.95-7.47c-2.02-3.07-3.04-6.42-2.94-10.13c0.08-3.05,0.01-6.1,0.02-9.15
		C21.48,84.8,21.54,84.41,21.57,84.18z"/>
	<path fill="#FFFFFF" d="M89.45,110.02c0,7.35,0,14.53,0,22.01C88.46,130.7,88.56,110.98,89.45,110.02z"/>
</g>
</svg>
