<?xml version="1.0" encoding="utf-8"?>
<!-- Generator: Adobe Illustrator 25.4.1, SVG Export Plug-In . SVG Version: 6.00 Build 0)  -->
<svg version="1.1" id="Layer_1" xmlns="http://www.w3.org/2000/svg" xmlns:xlink="http://www.w3.org/1999/xlink" x="0px" y="0px"
	 viewBox="0 0 250 250" enable-background="new 0 0 250 250" xml:space="preserve">
<g>
	<path fill="#FFFFFF" d="M65.76,30.47c0-3.55,0-6.99,0-10.43c0-0.46,0.03-0.9,0.2-1.35c0.14-0.36,0.06-0.82,0.27-1.21
		c0.24-0.46,0.4-0.96,0.63-1.42c0.93-1.87,2.3-3.27,4.18-4.23c0.81-0.41,1.64-0.69,2.47-0.99c0.07-0.03,0.15-0.05,0.22-0.05
		c1.37,0.06,2.73-0.48,4.1-0.23c1.47,0.28,3,0.25,4.42,0.92c1.83,0.87,3.24,2.15,4.4,3.77c0.5,0.71,0.81,1.52,1.08,2.31
		c0.22,0.66,0.37,1.39,0.36,2.14c-0.02,3.56-0.01,7.11-0.01,10.72c24.88,0,49.73,0,74.64,0c0-0.41,0-0.8,0-1.2c0-2.88,0-5.76,0-8.64
		c0-1.35,0.37-2.59,0.85-3.85c0.55-1.45,1.49-2.55,2.5-3.64c0.28-0.3,0.65-0.54,1-0.77c0.53-0.34,1.16-0.5,1.66-0.92
		c0.49-0.42,1.25-0.22,1.78-0.61c0.03-0.02,0.08-0.02,0.11-0.01c0.79,0.17,1.52-0.26,2.3-0.24c0.76,0.01,1.52-0.04,2.28,0.02
		c0.53,0.04,1.03,0.26,1.58,0.25c0.48-0.01,0.98,0.11,1.44,0.26c0.49,0.16,0.94,0.43,1.4,0.67c2.17,1.08,3.77,2.69,4.71,4.94
		c0.38,0.91,0.58,1.85,0.72,2.83c0.42,3,0.12,6.02,0.21,9.02c0.01,0.33,0.09,0.68-0.12,1.03c-0.1,0.17,0.11,0.52,0.22,0.9
		c0.24,0,0.55,0,0.85,0c8.12,0,16.24-0.01,24.36,0.01c0.48,0,0.97-0.16,1.48,0.19c0.37,0.26,1.02-0.2,1.44,0.27
		c0.88-0.19,1.59,0.48,2.44,0.49c0.24,0,0.48,0.18,0.72,0.28c0.51,0.22,0.93,0.58,1.52,0.7c0.49,0.1,0.92,0.47,1.36,0.75
		c0.73,0.47,1.53,0.87,2.15,1.46c1.22,1.17,2.47,2.31,3.46,3.71c0.83,1.17,1.45,2.44,2.05,3.72c0.55,1.18,0.87,2.44,1.09,3.76
		c0.35,2.05,0.19,4.1,0.19,6.15c0.02,56.59,0.01,113.19,0.04,169.78c0,0.68-0.27,1.28-0.27,1.94c0,0.61-0.36,1.17-0.39,1.74
		c-0.09,1.37-1.08,2.38-1.3,3.67c-0.95,1.19-1.6,2.6-2.71,3.68c-0.2,0.19-0.41,0.39-0.59,0.59c-1.25,1.39-2.81,2.34-4.39,3.29
		c-1.39,0.83-2.93,1.24-4.39,1.86c-0.54,0.23-1.21,0.15-1.8,0.28c-1.88,0.41-3.77,0.19-5.66,0.23c-1.92,0.04-3.84,0.01-5.76,0.01
		c-53.63,0-107.27,0-160.9-0.01c-0.53,0-1.05,0.12-1.6-0.2c-0.4-0.23-1.01,0.16-1.44-0.27c-1.63-0.03-2.99-0.88-4.44-1.45
		c-1.31-0.52-2.4-1.39-3.53-2.22c-1.62-1.19-2.92-2.67-4.04-4.32c-0.86-1.26-1.51-2.64-1.99-4.09c-0.35-1.07-0.79-2.13-0.73-3.3
		c-0.44-0.6-0.23-1.29-0.23-1.94c-0.01-57.63-0.01-115.27-0.02-172.9c0-1.94,0.4-3.78,1.06-5.57c0.43-1.18,1.04-2.29,1.6-3.41
		c0.2-0.4,0.46-0.78,0.76-1.12c1.33-1.52,2.63-3.03,4.34-4.21c1.94-1.34,4.04-2.2,6.2-3.01c0.43-0.16,0.97,0.18,1.31-0.31
		c0.81-0.08,1.61-0.23,2.42-0.23c8.24-0.02,16.48-0.01,24.72-0.01C65.03,30.47,65.35,30.47,65.76,30.47z M34.32,101.77
		c0,39.5,0,78.89-0.01,118.29c0,1.3,0.39,2.42,0.94,3.57c0.62,1.31,1.73,2.07,2.89,2.63c1.1,0.53,2.36,0.78,3.64,0.78
		c54.75-0.01,109.5,0,164.25-0.01c1.61,0,3.21,0.12,4.82-0.21c1.76-0.36,3.12-1.3,4.37-2.49c0.59-1.29,1.26-2.53,1.26-4.04
		c-0.02-39.07-0.01-78.15-0.01-117.22c0-0.43,0-0.86,0-1.29C155.72,101.77,95.06,101.77,34.32,101.77z M88.08,45.4
		c0,0.32,0,0.67,0,1.02c0,4.04,0,8.08,0,12.12c0,0.44,0.03,0.88-0.01,1.32c-0.04,0.41-0.15,0.81-0.23,1.22
		c-0.05,0.29-0.87,2.21-1.03,2.45c-0.69,1.07-1.47,2.01-2.51,2.8c-1.59,1.2-3.29,1.97-5.28,2.05c-1,0.04-2-0.01-3,0.01
		c-1.39,0.02-2.72-0.12-4.04-0.69c-0.84-0.36-1.68-0.7-2.32-1.32c-1.05-1.02-2.18-1.95-2.77-3.4c-0.49-1.2-1.13-2.65-1.13-3.73
		c0-4.4,0-8.8,0-13.2c0-0.31,0-0.61,0-1.12c-0.61,0.64-1.12,1.09-1.53,1.62c-0.63,0.8-1.3,1.61-1.77,2.51
		c-0.66,1.28-1.38,2.55-1.64,4c-0.21,1.16-0.69,2.26-0.59,3.48c0.05,0.56,0.06,1.13,0,1.68c-0.11,0.87,0.29,1.68,0.25,2.54
		c0.39,0.38,0.12,0.91,0.29,1.32c0.46,1.09,0.73,2.26,1.39,3.26c0.71,1.07,1.36,2.19,2.18,3.17c1.35,1.61,3.06,2.78,4.91,3.76
		c1.07,0.56,2.15,0.98,3.35,1.22c0.65,0.13,1.27,0.45,1.97,0.44c0.74-0.01,1.42,0.29,2.18,0.26c1.2-0.05,2.35-0.27,3.52-0.48
		c1.19-0.21,2.33-0.53,3.41-1.04c1.95-0.92,3.76-2.06,5.18-3.73c0.1-0.12,0.22-0.23,0.34-0.34c1.13-1.13,2.01-2.53,2.82-4.23
		c0.42-0.88,0.64-1.81,1-2.71c0.38-0.96,0.34-2.01,0.55-3.01c0.29-1.4-0.23-2.8-0.21-4.21c0-0.04-0.02-0.07-0.03-0.11
		c-0.5-1.12-0.63-2.36-1.15-3.49c-0.41-0.9-1.56-3.04-2.16-3.67c-0.4-0.42-0.86-0.78-1.13-1.33C88.78,45.62,88.58,45.25,88.08,45.4z
		 M185.14,45.36c0.23,0.33,0.16,0.61-0.04,0.89c0.35,0.28,0.17,0.67,0.17,1c0.02,3.08-0.02,6.16,0.02,9.23
		c0.02,1.56-0.16,3.09-0.51,4.59c-0.21,0.89-0.54,1.78-0.97,2.59c-0.34,0.64-0.91,1.15-1.4,1.7c-1.01,1.12-2.3,1.88-3.67,2.43
		c-0.82,0.33-1.7,0.61-2.64,0.59c-1.48-0.03-2.96,0.03-4.44-0.02c-0.67-0.02-1.39-0.11-2-0.38c-1.6-0.7-3.16-1.45-4.35-2.84
		c-0.95-1.11-1.61-2.34-2.14-3.68c-0.16-0.4-0.13-0.84-0.26-1.21c-0.16-0.46-0.21-0.89-0.21-1.35c0-4.24,0-8.48,0-12.71
		c0-0.35,0-0.7,0-1.15c-0.76,0.83-1.56,1.49-2.09,2.31c-1.04,1.62-2.04,3.26-2.6,5.16c-0.46,1.55-0.56,3.13-0.82,4.69
		c-0.08,0.49,0.09,0.97,0.19,1.46c0.15,0.71,0.1,1.44,0.24,2.18c0.23,1.19,0.6,2.32,1.09,3.39c0.52,1.16,1.17,2.25,1.98,3.27
		c1.16,1.44,2.44,2.72,3.96,3.75c1.52,1.02,3.16,1.78,4.94,2.26c1.18,0.32,2.38,0.46,3.58,0.61c0.71,0.09,1.51,0.21,2.14-0.03
		c0.7-0.27,1.48,0.06,2.1-0.43c1.29-0.11,2.44-0.61,3.6-1.15c1.34-0.62,2.55-1.45,3.71-2.32c0.82-0.62,1.61-1.36,2.18-2.21
		c1-1.47,1.97-2.97,2.61-4.67c0.52-1.39,0.82-2.81,1-4.26c0.12-0.98,0-2,0.03-3c0.03-1.01-0.28-1.96-0.51-2.91
		c-0.28-1.14-0.67-2.28-1.21-3.33c-0.35-0.69-0.78-1.37-1.23-2.01C186.95,46.87,186.19,45.99,185.14,45.36z"/>
	<path fill="#FFFFFF" d="M125.34,153.11c3.08,0,6.16,0,9.24,0c1.33,0,2.27,0.76,2.72,2.04c0.17,0.5,0.22,0.97,0.22,1.47
		c0,5.84,0,11.68,0,17.52c0,1.13-0.35,2.08-1.2,2.87c-0.39,0.37-0.9,0.36-1.33,0.57c-0.1,0.05-0.24,0.01-0.36,0.01
		c-6.32,0-12.64-0.02-18.96,0.02c-0.83,0-1.27-0.6-1.92-0.87c0.01-0.51-0.62-0.61-0.71-1.02c-0.12-0.56-0.24-1.13-0.24-1.7
		c-0.02-5.8-0.03-11.6,0-17.4c0-0.94,0.13-1.92,0.9-2.62c0.6-0.55,1.28-0.91,2.15-0.9C119.02,153.12,122.18,153.11,125.34,153.11z"
		/>
	<path fill="#FFFFFF" d="M157.1,145.67c-3.16,0-6.32,0.02-9.48-0.01c-1.15-0.01-2.07-0.58-2.51-1.66c-0.24-0.58-0.37-1.25-0.38-1.88
		c-0.03-5.96-0.05-11.92,0.01-17.88c0.02-1.91,1.46-3.07,3.14-3.06c6.16,0.02,12.32,0.01,18.48,0.01c1.64,0,3.03,1.13,3.06,3.01
		c0.07,6.08,0.06,12.16,0,18.24c-0.01,1.37-0.56,2.57-2.06,3.08c-0.31,0.11-0.6,0.14-0.89,0.15
		C163.34,145.67,160.22,145.67,157.1,145.67z"/>
	<path fill="#FFFFFF" d="M188.99,145.67c-3.12,0-6.24-0.04-9.35,0.02c-1.46,0.03-3.02-1.55-3.02-2.99
		c0.03-6.12,0.01-12.23,0.02-18.35c0-1.45,0.87-2.65,2.23-3.1c0.25-0.08,0.54-0.06,0.82-0.06c6.2,0,12.39,0,18.59,0
		c1.55,0,2.46,0.84,2.88,2.38c0.15,0.54,0.2,1.05,0.2,1.59c0.01,4.92,0.01,9.83,0,14.75c0,0.39,0.01,0.8-0.1,1.16
		c-0.12,0.39,0.14,0.67,0.12,1.04c-0.05,0.86-0.28,1.61-0.73,2.35c-0.51,0.84-1.28,1.19-2.18,1.2
		C195.31,145.69,192.15,145.67,188.99,145.67z"/>
	<path fill="#FFFFFF" d="M201.11,175.8c-0.36,0.36-0.74,0.72-1.1,1.1c-0.45,0.47-0.96,0.71-1.63,0.71
		c-6.28-0.02-12.55-0.01-18.83-0.01c-1.07,0-2.38-0.86-2.65-1.84c-0.14-0.5-0.29-1.01-0.29-1.57c0.04-5.88,0.02-11.76,0.02-17.63
		c0-1.08,0.3-2.04,1.14-2.77c0.17-0.15,0.34-0.33,0.55-0.41c0.31-0.12,0.65-0.19,0.98-0.25c0.19-0.03,0.4-0.01,0.6-0.01
		c6.2,0,12.4,0.02,18.59-0.03c0.75-0.01,1.24,0.34,1.74,0.73c0.49,0.37,0.78,0.87,0.92,1.54c0.16,0.74,0.2,1.45,0.2,2.19
		c0,5.32-0.02,10.64,0.03,15.95C201.39,174.29,201.08,175.01,201.11,175.8z"/>
	<path fill="#FFFFFF" d="M125.11,121.19c3.12,0,6.23,0.05,9.35-0.02c1.44-0.03,3.09,1.53,3.07,3.06c-0.05,4.83-0.02,9.67-0.02,14.5
		c0,0.39-0.11,0.78-0.11,1.17c0,0.46,0.09,0.92,0.11,1.39c0.02,0.44,0.04,0.88,0,1.32c-0.08,0.84-0.29,1.65-0.97,2.23
		c-0.58,0.5-1.23,0.84-2.05,0.84c-6.23-0.02-12.47-0.02-18.7,0c-1.2,0-2.5-1.02-2.78-2.36c-0.21-1.01-0.29-1.96-0.07-2.96
		c0.05-0.25-0.13-0.55-0.13-0.82c-0.01-5.03-0.05-10.07,0.02-15.1c0.02-1.34,0.55-2.56,2.05-3.08c0.36-0.13,0.68-0.15,1.01-0.15
		C118.96,121.18,122.04,121.19,125.11,121.19z"/>
	<path fill="#FFFFFF" d="M125.24,185.03c3.12,0,6.24,0.03,9.35-0.02c1.28-0.02,2.01,0.65,2.52,1.68c0.23,0.46,0.41,0.95,0.41,1.51
		c-0.02,6.04,0.01,12.07-0.02,18.11c-0.01,1.24-0.47,2.33-1.7,2.85c-0.47,0.2-0.97,0.36-1.54,0.36c-6.08-0.02-12.15-0.01-18.23-0.02
		c-1.26,0-2.22-0.64-2.86-1.69c-0.22-0.37-0.35-0.85-0.35-1.28c0-0.62-0.17-1.24,0.1-1.87c0.09-0.21-0.12-0.54-0.12-0.81
		c-0.01-5.2-0.03-10.39,0.02-15.59c0.01-0.85,0.21-1.71,0.9-2.39c0.59-0.58,1.24-0.86,2.05-0.86
		C118.93,185.03,122.09,185.03,125.24,185.03z"/>
	<path fill="#FFFFFF" d="M157.02,209.51c-3,0-6-0.02-9,0.01c-0.9,0.01-1.59-0.4-2.3-0.83c-0.12-0.07-0.21-0.23-0.28-0.36
		c-0.42-0.85-0.77-1.7-0.74-2.7c0.06-2.04,0.01-4.08,0.02-6.12c0-0.48-0.17-1.01,0.2-1.45c-0.41-0.44-0.16-0.98-0.2-1.48
		c-0.04-0.52-0.01-1.04-0.01-1.56c0-0.52,0-1.04,0-1.56c0-0.52,0-1.04,0-1.56c0-0.52,0-1.04,0-1.56c0-0.52-0.03-1.04,0.01-1.56
		c0.05-0.65,0.1-1.31,0.25-1.94c0.2-0.86,1.58-1.83,2.55-1.83c2.2-0.01,4.4,0.01,6.6-0.01c0.52,0,1.08,0.16,1.56-0.19
		c0.49,0.42,1.07,0.13,1.6,0.19c0.55,0.05,1.12,0.04,1.68,0c0.41-0.02,0.85,0.15,1.25-0.19c0.1-0.09,0.47,0.18,0.71,0.19
		c0.64,0.03,1.28,0.01,1.92,0.01c1.2,0,2.4,0,3.6,0c1.52,0.01,2.38,0.81,2.79,2.34c0.16,0.58,0.21,1.13,0.21,1.71
		c0,5.6-0.01,11.2,0.02,16.8c0,0.96-0.33,1.81-0.79,2.55c-0.5,0.82-1.47,1.06-2.41,1.07C163.18,209.52,160.1,209.51,157.02,209.51z"
		/>
	<path fill="#FFFFFF" d="M156.99,153.11c3.2,0,6.4-0.01,9.59,0c1.2,0,2.03,0.65,2.49,1.71c0.22,0.5,0.34,1.1,0.34,1.65
		c0.03,3.68,0.02,7.36,0.01,11.03c0,0.31,0.1,0.64-0.24,0.86c0.09,0.53-0.14,1.07,0.16,1.62c0.15,0.28,0.08,0.69,0.08,1.04
		c0.01,0.96,0.03,1.92-0.01,2.88c-0.02,0.61,0,1.3-0.27,1.8c-0.29,0.52-0.51,1.18-1.23,1.44c-0.57,0.2-1.1,0.46-1.73,0.46
		c-6.16-0.01-12.31-0.01-18.47,0c-1.32,0-2.14-0.75-2.7-1.78c-0.27-0.51-0.3-1.18-0.3-1.79c-0.02-5.88-0.01-11.75-0.01-17.63
		c0-0.16,0.42-1.71,0.48-1.84c0.27-0.66,0.92-0.91,1.43-1.29c0.19-0.14,0.51-0.15,0.77-0.15
		C150.6,153.11,153.79,153.11,156.99,153.11z"/>
	<path fill="#FFFFFF" d="M81.12,165.29c0-3.08,0.06-6.16-0.03-9.23c-0.05-1.64,1.42-2.98,2.91-2.97c6.23,0.06,12.47,0.04,18.7,0.01
		c1.18-0.01,1.85,0.61,2.42,1.49c0.34,0.53,0.49,1.07,0.49,1.72c-0.02,6.03-0.03,12.07,0,18.1c0.01,1.27-0.64,2.12-1.51,2.84
		c-0.29,0.24-0.77,0.26-1.17,0.33c-0.27,0.05-0.56,0.01-0.84,0.01c-6.03,0-12.07-0.03-18.1,0.03c-1.07,0.01-2.32-0.91-2.83-2.05
		c-0.1-0.23-0.04-0.54-0.04-0.82C81.12,171.6,81.12,168.44,81.12,165.29z"/>
	<path fill="#FFFFFF" d="M81.12,133.37c0-3.12,0.04-6.23-0.02-9.35c-0.03-1.54,1.38-2.85,2.78-2.84c6.23,0.03,12.47,0.04,18.7,0
		c1.47-0.01,3.05,1.6,3.04,3.09c-0.06,6.11-0.06,12.23,0,18.34c0.01,1.47-1.55,3.1-3.05,3.08c-6.23-0.05-12.47-0.02-18.7-0.02
		c-1.49,0-2.75-1.24-2.75-2.71C81.11,139.76,81.12,136.56,81.12,133.37z"/>
	<path fill="#FFFFFF" d="M49.2,165.35c0-3.12,0.04-6.23-0.02-9.35c-0.02-0.95,0.43-1.65,0.98-2.22c0.44-0.45,1.12-0.69,1.86-0.68
		c6.27,0.03,12.54,0.01,18.82,0.02c1.51,0,2.84,1.33,2.84,2.88c0.01,5.63,0,11.27,0,16.9c0,0.6,0,1.2,0,1.8
		c-0.01,1.04-0.54,1.89-1.47,2.42c-0.54,0.31-1.07,0.49-1.72,0.49c-6.03-0.02-12.07-0.05-18.1,0.01c-1.36,0.01-2.18-0.7-2.93-1.6
		c-0.25-0.3-0.28-0.76-0.28-1.2C49.21,171.66,49.2,168.5,49.2,165.35z"/>
	<path fill="#FFFFFF" d="M49.2,197.32c0-3.16,0.04-6.31-0.02-9.47c-0.03-1.54,1.39-2.84,2.79-2.83c6.31,0.03,12.63,0.01,18.94,0.02
		c1.48,0,2.76,1.31,2.76,2.82c0,6.19,0,12.39,0,18.58c0,1.63-1.12,3.03-3.01,3.05c-6.15,0.07-12.31,0.03-18.46,0.01
		c-0.51,0-1.1-0.09-1.52-0.35c-0.49-0.3-0.87-0.8-1.23-1.27c-0.22-0.29-0.27-0.68-0.27-1.09C49.21,203.63,49.2,200.47,49.2,197.32z"
		/>
	<path fill="#FFFFFF" d="M81.12,197.27c0-3.16,0.03-6.31-0.01-9.47c-0.02-1.4,1.29-2.8,2.83-2.79c6.23,0.04,12.47,0.04,18.7,0
		c1.22-0.01,1.92,0.58,2.5,1.54c0.31,0.51,0.48,1,0.48,1.61c-0.02,5.99,0,11.99-0.02,17.98c0,1.48-0.55,2.64-2.06,3.2
		c-0.27,0.1-0.51,0.17-0.77,0.17c-6.27,0-12.55,0.03-18.82-0.02c-1.64-0.01-2.86-1.23-2.84-2.87
		C81.15,203.51,81.12,200.39,81.12,197.27z"/>
</g>
</svg>
