<?xml version="1.0" encoding="utf-8"?>
<!-- Generator: Adobe Illustrator 25.4.1, SVG Export Plug-In . SVG Version: 6.00 Build 0)  -->
<svg version="1.1" id="Layer_1" xmlns="http://www.w3.org/2000/svg" xmlns:xlink="http://www.w3.org/1999/xlink" x="0px" y="0px"
	 viewBox="0 0 250 250" enable-background="new 0 0 250 250" xml:space="preserve">
<g>
	<path fill="#FFFFFF" d="M196.83,111.21c-1.35,28.69-19.39,53.72-51.23,68.87c-24.39,11.61-49.8,12.49-75.28,3.31
		c-4.51-1.62-8.14-1.53-12.38,0.56c-7.83,3.87-15.94,7.19-23.92,10.77c-2.9,1.3-5.81,2.29-8.61-0.04c-2.75-2.29-2.45-5.18-1.73-8.39
		c1.71-7.68,2.75-15.51,4.7-23.12c1.21-4.7,0.46-8.14-2.51-12.02c-11.02-14.4-16.28-31-15.85-49c0.5-20.73,8.25-38.86,22.73-53.73
		c21.11-21.67,47.13-31.03,77.18-29.21c28.34,1.72,51.82,13.31,69.72,35.53C191.11,68.97,196.8,85.82,196.83,111.21z M152.45,108.47
		c0.09-5.48-4.74-10.53-10.27-10.75c-5.69-0.23-11.02,5-10.93,10.74c0.09,5.54,5.01,10.36,10.6,10.37
		C147.43,118.83,152.36,114.01,152.45,108.47z M64.96,118.84c5.72,0.13,10.35-4.34,10.5-10.16c0.16-5.9-4.03-10.61-9.74-10.96
		c-5.7-0.35-10.95,4.68-10.99,10.53C54.7,113.88,59.36,118.72,64.96,118.84z M113.79,108.28c-0.02-5.84-4.51-10.52-10.16-10.58
		c-5.7-0.06-10.9,5.25-10.7,10.93c0.19,5.55,5.14,10.24,10.72,10.17C109.41,118.74,113.81,114.17,113.79,108.28z"/>
	<path fill="#FFFFFF" d="M199.19,67.69c3.14,1.95,4.99,2.93,6.67,4.16c22.32,16.32,34.05,38.54,34.89,65.95
		c0.53,17.25-4.92,33.25-15.42,47.13c-3.02,3.99-4.18,7.55-2.85,12.57c2.06,7.79,3.1,15.86,4.82,23.75
		c0.66,3.04,0.64,5.69-1.85,7.76c-2.52,2.09-5.29,1.54-8.02,0.32c-8.18-3.66-16.43-7.16-24.52-11.01
		c-4.15-1.98-7.72-2.23-12.34-0.65c-32.62,11.09-63.29,6.84-91.64-12.94c-1.71-1.19-3.2-2.72-4.37-5.27
		c2.49,0.26,4.98,0.52,7.46,0.78c51.09,5.42,100.89-25.55,112.53-74.09c4.07-16.99,3.29-33.82-2.59-50.35
		C201.19,73.61,200.46,71.41,199.19,67.69z"/>
</g>
</svg>
