<?xml version="1.0" encoding="utf-8"?>
<!-- Generator: Adobe Illustrator 25.4.1, SVG Export Plug-In . SVG Version: 6.00 Build 0)  -->
<svg version="1.1" id="Layer_1" xmlns="http://www.w3.org/2000/svg" xmlns:xlink="http://www.w3.org/1999/xlink" x="0px" y="0px"
	 viewBox="0 0 250 250" enable-background="new 0 0 250 250" xml:space="preserve">
<g>
	<path fill="#FFFFFF" d="M181.22,125.41c0,10.72,0,21.44,0,32.15c0,22.79-0.01,45.59-0.01,68.38c0,9.87-7.33,17.25-17.17,17.25
		c-23.44,0.01-46.87,0-70.31,0c-2.28,0-4.56-0.05-6.84,0.02c-9.71,0.29-17.46-7.57-17.44-17.39c0.08-42.31,0.03-84.63,0.03-126.94
		c0-24.79,0-49.59,0.01-74.38c0-9.75,7.42-17.12,17.19-17.12c22.6,0,45.19,0,67.79,0c3.28,0,6.55-0.01,9.83,0.01
		c9.47,0.03,16.9,7.42,16.91,16.89c0.03,17,0.01,33.99,0.01,50.99C181.22,91.98,181.22,108.7,181.22,125.41z M173.28,210.24
		c0-56.71,0-113.27,0-169.86c-32.02,0-63.9,0-95.83,0c0,56.67,0,113.23,0,169.86C109.43,210.24,141.29,210.24,173.28,210.24z
		 M135.3,225.81c-0.06-5.64-4.59-10.02-10.45-9.8c-5.12,0.2-9.42,4.4-9.43,9.78c-0.01,5.92,4.38,10.25,10.23,10.17
		C131.06,235.89,135.36,231.36,135.3,225.81z M125.35,22.8c-4.19,0-8.39,0.01-12.58-0.01c-0.96,0-1.77,0.36-1.91,1.26
		c-0.11,0.69,0.09,1.61,0.52,2.14c0.32,0.41,1.21,0.51,1.84,0.51c8.15,0.03,16.29,0.01,24.44,0.02c1.52,0,2.38-0.7,2.39-2.01
		c0.01-1.18-0.88-1.91-2.36-1.92C133.57,22.79,129.46,22.8,125.35,22.8z"/>
	<path fill="#FFFFFF" d="M100.5,93.42c1.63,0.23,3.05,0.44,4.47,0.64c0.75,0.11,1.14,0.53,1.37,1.28c1.86,5.81,3.78,11.6,5.62,17.42
		c0.12,0.37-0.08,1-0.35,1.32c-1.92,2.24-3.89,4.45-5.88,6.63c-0.43,0.47-0.59,0.82-0.24,1.44c3.01,5.35,6.38,10.43,10.77,14.76
		c4.13,4.07,8.85,7.18,14.48,8.84c0.96,0.28,1.48-0.04,2.06-0.67c2.25-2.43,4.55-4.82,6.78-7.28c0.62-0.68,1.08-0.78,1.91-0.33
		c5.13,2.78,10.3,5.48,15.42,8.26c0.41,0.22,0.87,0.92,0.82,1.35c-0.29,2.57-0.52,5.17-1.2,7.65c-0.31,1.13-1.46,2.16-2.46,2.94
		c-4.91,3.89-10.57,4.83-16.63,3.98c-7.24-1.01-13.67-4.05-19.69-8.02c-10.27-6.78-18.64-15.4-24.64-26.19
		c-3.22-5.8-5.43-11.95-4.94-18.75c0.47-6.57,3.79-11.42,9.37-14.73C98.4,93.45,99.62,93.57,100.5,93.42z"/>
	<path fill="#FFFFFF" d="M162.67,131.88c-1.59-0.22-2.89-0.36-4.17-0.61c-0.27-0.05-0.63-0.45-0.68-0.74
		c-1.89-10.39-7.12-18.86-14.85-25.88c-6.03-5.48-12.94-9.29-20.97-10.94c-0.31-0.06-0.63-0.13-0.95-0.15
		c-0.84-0.04-1.15-0.48-1.22-1.29c-0.09-1.15-0.3-2.28-0.48-3.62c10.06,1.53,18.55,5.99,25.95,12.61
		C154.42,109.44,160.49,119.41,162.67,131.88z"/>
	<path fill="#FFFFFF" d="M120.83,98.29c14,1.32,30.2,15.96,32.21,32.21c-1.36-0.18-2.69-0.31-4.01-0.56
		c-0.27-0.05-0.61-0.47-0.67-0.77c-1.31-6.69-4.54-12.35-9.33-17.1c-4.67-4.62-10.15-7.87-16.7-9.05c-0.79-0.14-1.07-0.44-1.13-1.19
		c-0.08-1.03-0.27-2.06-0.4-3.09C120.79,98.6,120.82,98.44,120.83,98.29z"/>
	<path fill="#FFFFFF" d="M143.51,129.15c-1.39-0.18-2.71-0.3-3.99-0.56c-0.29-0.06-0.6-0.55-0.69-0.9
		c-1.96-7.46-6.59-12.49-13.9-14.82c-1.7-0.54-2.62-1.08-2.57-2.9c0.02-0.7-0.16-1.42-0.25-2.12
		C130.07,106.9,143.68,120.39,143.51,129.15z"/>
</g>
</svg>
