<?xml version="1.0" encoding="utf-8"?>
<!-- Generator: Adobe Illustrator 25.4.1, SVG Export Plug-In . SVG Version: 6.00 Build 0)  -->
<svg version="1.1" id="Layer_1" xmlns="http://www.w3.org/2000/svg" xmlns:xlink="http://www.w3.org/1999/xlink" x="0px" y="0px"
	 viewBox="0 0 250 250" enable-background="new 0 0 250 250" xml:space="preserve">
<g>
	<path fill="#FFFFFF" d="M210.22,65.08c0.47,3.5,1.23,6.58,1.24,9.65c0.1,25.8,0.07,51.6,0.07,77.4c0,12.73,0.01,25.46-0.01,38.19
		c-0.03,23.09-17.94,41.13-41.1,41.19c-35.28,0.09-70.57,0.01-105.85,0.03c-7.43,0-14.82,0.15-22.03-2.3
		c-15.09-5.14-26.7-19.58-27.18-35.48c-0.51-17.07-0.21-34.17-0.22-51.25c-0.02-22.21-0.04-44.43,0.03-66.64
		c0.06-19.83,13.52-36.26,32.99-40.06c4.14-0.81,8.49-0.78,12.75-0.79C96.2,34.97,131.48,35,166.76,35c0.66,0,1.32,0,2.51,0
		c-1.3,1.29-2.28,2.19-3.17,3.16c-5.82,6.36-11.68,12.69-17.4,19.14c-1.25,1.41-2.42,2.05-4.33,2.04
		c-28.88-0.06-57.76,0.19-86.63-0.17c-11.23-0.14-18.62,8.25-18.54,18.51c0.28,37.33,0.09,74.67,0.09,112
		c0,10.39,7.15,17.56,17.54,17.57c37.68,0.01,75.35,0,113.03-0.02c10.32,0,17.46-6.94,17.5-17.31c0.09-21.19,0.01-42.37,0.01-63.56
		c0-11.7,0-23.41,0.07-35.11c0.01-1.03,0.28-2.33,0.93-3.04c6.71-7.39,13.52-14.7,20.32-22.01
		C208.96,65.91,209.34,65.71,210.22,65.08z"/>
	<path fill="#FFFFFF" d="M111.69,139.58c2.31-5.07,4.31-9.57,6.39-14.03c9.57-20.57,20.54-40.33,34.46-58.33
		c13.49-17.44,29.27-32.4,47.79-44.5c5.26-3.44,10.59-4.31,16.56-3.19c5.62,1.05,10.91,2.84,15.41,6.49
		c4.73,3.84,4.59,7.61-0.53,10.78c-35.24,21.78-59.93,52.87-78.7,89.16c-8.88,17.17-16.13,35.03-22.15,53.4
		c-3.22,9.81-9.73,13.36-19.78,10.58c-6.92-1.91-11.77-5.78-14.07-13.08c-7.14-22.65-19.56-42.18-36.07-59.18
		c-1.48-1.52-2.9-3.17-3.97-4.98c-1.71-2.89-1.19-5.78,1.58-7.67c1.99-1.36,4.35-2.52,6.69-2.96c8.36-1.55,15.96-0.54,22.22,6.31
		c7.92,8.66,15.35,17.65,21.74,27.5C109.94,136.94,110.64,137.99,111.69,139.58z"/>
</g>
</svg>
