<?xml version="1.0" encoding="utf-8"?>
<!-- Generator: Adobe Illustrator 25.4.1, SVG Export Plug-In . SVG Version: 6.00 Build 0)  -->
<svg version="1.1" id="Layer_1" xmlns="http://www.w3.org/2000/svg" xmlns:xlink="http://www.w3.org/1999/xlink" x="0px" y="0px"
	 viewBox="0 0 250 250" enable-background="new 0 0 250 250" xml:space="preserve">
<g>
	<path fill="#FFFFFF" d="M119.46,104.7c2.99-2.33,5.68-4.57,8.52-6.6c4.14-2.97,7.17-2.89,10.47,0.72
		c3.99,4.37,7.8,8.93,11.38,13.64c3.17,4.18,2.68,7.38-1.25,10.98c-2.57,2.35-5.29,4.51-7.95,6.76c0.34,1.22,0.65,2.03,0.8,2.88
		c1.38,7.84,5.12,12.35,14,11.96c4.92-0.22,7.21,3.13,6.99,8.45c-0.24,5.69-0.78,11.38-1.59,17.01c-0.72,4.98-3.18,7.45-8.08,6.5
		c-9.91-1.92-14.72,2.72-17.25,12.32c1.8,2.32,4.11,5.18,6.31,8.14c3.05,4.11,3.04,6.95-0.76,10.38
		c-4.55,4.11-9.32,8.02-14.28,11.62c-4.13,2.99-6.81,2.39-10.33-1.48c-2.34-2.57-4.6-5.21-6.96-7.88c-1.66,0.47-2.87,0.94-4.13,1.14
		c-6.94,1.12-10.63,4.26-10.31,12.18c0.26,6.4-3.67,8.88-9.95,8.18c-5.44-0.6-10.93-0.89-16.31-1.83c-5.11-0.89-6.9-3.74-6.41-8.95
		c0.12-1.31,0.45-2.59,0.68-3.89c0.69-3.92-0.31-6.91-4.4-8.36c-1.23-0.43-2.46-1.05-3.47-1.85c-2.97-2.36-5.39-1.62-8.17,0.59
		c-10.58,8.4-10.69,8.32-19.19-2c-2.51-3.05-5.08-6.05-7.51-9.16c-2.55-3.29-2.28-6.58,0.68-9.43c2.67-2.57,5.56-4.92,8.81-7.77
		c-1.28-4.23-2.59-8.57-4.02-13.33c-2.89-0.29-5.68-0.49-8.45-0.88c-7.79-1.1-9.84-3.63-9.2-11.4c0.36-4.37,0.79-8.73,1.34-13.08
		c0.84-6.71,3.84-9.07,10.7-8.5c1.52,0.13,3.03,0.47,4.54,0.75c2.66,0.49,4.81,0,5.78-2.9c0.21-0.62,0.43-1.29,0.83-1.78
		c4.43-5.35,3.68-9.71-1.35-14.63c-5.15-5.04-4.49-8.3,1.07-13.18c3.63-3.18,7.29-6.33,11.1-9.29c5.07-3.94,8.2-3.57,12.52,1.12
		c0.3,0.32,0.58,0.66,0.87,0.99c5.28,6.2,9.75,7.09,16.78,2.65c1.47-0.93,2.41-3.53,2.63-5.47c1.35-12.3,2.51-13.39,14.62-12.31
		c3.71,0.33,7.41,0.75,11.1,1.24c5.6,0.74,8.02,3.9,7.38,9.52c-0.17,1.52-0.44,3.04-0.66,4.55c-0.48,3.43,0.52,5.89,3.99,7.33
		C114.14,101.5,116.71,103.19,119.46,104.7z M85.39,124.07c-17.24-0.05-30.7,13.04-30.82,29.99c-0.12,16.96,13.8,31.31,30.5,31.44
		c16.37,0.13,30.76-14.08,30.86-30.46C116.04,137.5,102.85,124.12,85.39,124.07z"/>
	<path fill="#FFFFFF" d="M173.71,94.07c1.73-1.59,3.32-3.05,4.65-4.27c0.16-0.87,0.33-1.31,0.29-1.73
		c-0.25-3.08-3.39-6.97,0.34-9.02c4.07-2.25,8.95-3.22,13.6-4.07c0.98-0.18,2.83,2.36,3.71,3.96c3.54,6.42,7.59,6.91,11.43,0.89
		c2.24-3.51,4.73-4.21,8.25-2.34c1.74,0.92,3.56,1.72,5.28,2.67c4.89,2.7,5.19,3.55,3.42,8.9c-2.04,6.16,1.04,9.8,7.27,8.59
		c5.4-1.05,6.31-0.55,8.26,4.75c0.68,1.85,1.13,3.79,1.81,5.64c1.4,3.8,0.11,6.17-3.46,7.97c-6.72,3.37-7.01,7.42-0.76,11.79
		c3.18,2.23,3.69,4.62,1.89,7.82c-0.43,0.76-0.79,1.57-1.18,2.35c-4.5,8.99-4.5,8.99-14.07,5.1c-4.46,1.74-6.25,4.87-4.69,9.74
		c1.11,3.46-0.63,5.41-3.61,6.66c-0.4,0.17-0.83,0.28-1.24,0.44c-10.27,3.97-10.85,3.75-15.56-5.94c-4.02-1.46-7.43-1.31-9.68,3.34
		c-1.8,3.72-4.78,4.09-8.25,2.13c-1.91-1.07-3.87-2.06-5.86-2.99c-3.93-1.84-4.71-4.45-3.05-8.56c2.44-6.05-0.82-9.91-7.3-8.49
		c-4.51,0.99-6.66-0.65-7.87-4.59c-0.58-1.89-1.05-3.81-1.71-5.67c-1.44-3.98-0.5-6.47,3.68-8.29c6.33-2.75,6.64-7.62,0.81-11.45
		c-3.5-2.3-4.01-4.89-2.28-8.35c0.2-0.39,0.37-0.8,0.55-1.2C162.79,90.26,163.39,90.02,173.71,94.07z M199.01,101.53
		c-10.22-0.04-17.9,7.38-17.78,17.16c0.11,8.97,8.35,16.85,17.64,16.89c9.7,0.04,16.97-7.18,17.14-17.04
		C216.17,108.98,208.76,101.57,199.01,101.53z"/>
	<path fill="#FFFFFF" d="M115.58,77.71c-1.69-3.22-3.53-5.22-7.42-3.96c-3.67,1.19-5.83-0.69-6.74-4.27
		c-0.38-1.49-0.83-2.96-1.33-4.41c-1.11-3.18-0.53-5.8,2.87-6.89c3.8-1.23,4.13-4.02,4.08-7.12c-7.37-5.72-7.37-5.72-3.31-13.26
		c3.01-5.59,3.06-5.6,11.23-2.92c3.38-1.41,5.2-3.49,3.9-7.6c-1.06-3.35,0.71-5.43,3.98-6.34c1.69-0.47,3.38-0.96,5.04-1.51
		c2.93-0.98,5.41-0.44,6.44,2.63c1.21,3.61,3.69,4.61,7.13,4.37c0.33-0.22,0.72-0.42,1.04-0.7c2.01-1.77,4.38-5.32,5.93-4.99
		c3.65,0.78,7.08,3.18,10.21,5.45c0.8,0.58,0.51,3.23,0.11,4.78c-1.47,5.79,0.23,8.06,6.37,7.21c4.96-0.69,6.02,2.44,7.02,5.95
		c0.98,3.43,3.64,7.42-1.54,9.56c-3.47,1.44-4.66,3.66-4.41,7.12c7.3,6.44,7.3,6.44,3.16,13.68c-2.97,5.19-3.4,5.3-11.07,2.63
		c-3.05,1.4-5.38,3.16-3.98,7.42c1.13,3.41-0.75,5.41-3.87,6.44c-1.87,0.62-3.76,1.19-5.65,1.78c-2.76,0.88-4.96,0.04-5.85-2.65
		c-1.18-3.58-3.61-4.7-7.04-4.49c-6.58,7.28-6.94,7.35-14.29,2.9C113.04,85.77,112.92,85.24,115.58,77.71z M136.32,70.67
		c7.42,0.21,14.9-7.11,14.9-14.59c0-7.33-6.77-14.4-14.1-14.71c-7.51-0.33-14.93,6.6-15.21,14.2
		C121.65,62.97,128.78,70.45,136.32,70.67z"/>
</g>
</svg>
