<?xml version="1.0" encoding="utf-8"?>
<!-- Generator: Adobe Illustrator 25.4.1, SVG Export Plug-In . SVG Version: 6.00 Build 0)  -->
<svg version="1.1" id="Layer_1" xmlns="http://www.w3.org/2000/svg" xmlns:xlink="http://www.w3.org/1999/xlink" x="0px" y="0px"
	 viewBox="0 0 339 195" enable-background="new 0 0 339 195" xml:space="preserve">
<g>
	<g>
		<path fill="#FFFFFF" d="M151.8985748,70.6151962c0.0376282-0.6771545-0.0125427-1.4044724,0.1253967-2.094162
			c0.4012756-2.094162,1.6176605-3.5738678,3.8121338-3.6365738c6.3953552-0.1630173,9.1917572-0.9530334,8.8657074,8.0631561
			c-0.1755524,4.7902374,0,9.5930252-0.0376129,14.3958054c-0.0376282,3.9124527-1.6552734,5.4548569-5.5927887,5.4799347
			c-0.238266,0-0.4765167,0-0.7147827,0c-4.7526245,0-5.9188385-0.9781036-6.595993-5.6805649c-0.9906464,0-1.9938354,0-3.1600494,0
			c0,17.6060104,0,35.1618729,0,52.667572c3.498642,0.9154053,3.5487976,0.9906464,3.5613251,4.6523132
			c0,1.7555847-0.0501556,3.5237122,0.0125427,5.2793121c0.0752411,2.1944733-1.0282593,3.1098785-3.1224213,3.4233856
			c-1.2289124,0.1880798-2.3449707,0.9655762-3.5487976,1.4044495c-2.2697144,0.827652-4.5645142,2.2948151-6.8467865,2.3073425
			c-31.0362396,0.1504669-62.0724869,0.112854-93.1087341,0.0877838c-2.7838554,0-5.3294563-0.7398376-7.36092-2.8967133
			c-0.551754-0.5893707-1.6552658-0.8276367-2.5330582-0.9154053c-2.8841743-0.2633362-3.5989494-0.9404907-3.6240311-3.8873749
			c-0.0125389-1.6051025,0-3.1976776,0-4.8027802c0-3.5237122,0.2131805-3.7995911,3.5989494-4.6397552
			c0-17.5057068,0-35.0615463,0-52.7051926c-1.0784302,0-2.0189247,0-2.9468765,0
			c-0.4388962,1.2916107-0.6520729,2.6709976-1.3292274,3.7619705c-1.1912899,1.9311447-5.7808933,2.7713165-8.6399879,1.7179718
			c-2.4452801-0.9028778-3.2352943-2.8089371-3.1976738-5.3169174c0.0626984-5.6805725,0.0125389-11.361145,0.0250797-17.0417099
			c0.0125389-3.9876938,1.4797077-5.4172363,5.5300941-5.4172363c1.0408115,0,2.0816212-0.0376205,3.1224327,0.0125427
			c2.1694031,0.1003189,3.63657,1.4922485,4.000227,3.7118073c0.4389,2.6960754,0.4765167,2.7086182,3.5738716,1.9562225
			c0-5.4423218,0.17556-10.9473381-0.0376205-16.4398079c-0.5893745-15.2986717,9.705883-23.1988125,21.806881-25.1550331
			c2.269722-0.363657,4.6146812-0.5015965,6.9220238-0.5015965c18.7973099-0.0376186,37.5946121-0.08778,56.3919144,0.0125408
			c8.1509399,0.0376186,15.6247101,2.1819401,21.5560913,8.2010956c4.539444,4.6146812,6.1069336,10.3077965,6.04422,16.6153641
			c-0.0501556,4.9532547-0.0125427,9.9190636-0.0125427,14.8723183
			C148.4375763,71.1794815,148.5880432,71.2923508,151.8985748,70.6151962z M92.2212143,114.4045258
			c13.0289536,0,26.0704498,0,39.0994034,0c4.9156342,0,7.5866394-2.5706863,7.5991669-7.473793
			c0.0376282-15.3488312,0.0376282-30.7102051,0-46.0590363c-0.0125427-4.9031029-2.6835327-7.4737778-7.5866394-7.4737778
			c-26.1456833,0-52.3039093,0-78.4496002,0c-5.1162796,0-7.4612427,2.2948036-7.4737778,7.461235
			c-0.0376205,15.3488312-0.0376205,30.7102051,0,46.0590515c0.0125389,5.1664276,2.3574982,7.4863205,7.4612389,7.4863205
			C65.9877472,114.4045258,79.1044846,114.4045258,92.2212143,114.4045258z M92.1585083,125.9161377
			c-6.7088394,0-13.4176865-0.0125351-20.1265335,0.0125351c-2.6709976,0.0125351-3.9375229,1.2665253-3.9626083,3.9500656
			c-0.0376129,4.7149811-0.0376129,9.4300079,0,14.144989c0.0125427,3.0973663,1.2414551,4.3262634,4.363884,4.3262634
			c13.1041946,0.0125427,26.2083817,0.0125427,39.3000412,0c3.0597382,0,4.6021423-1.4671631,4.6397552-4.4892731
			c0.0501633-4.4767609,0.0501633-8.9534912,0-13.4176941c-0.0376129-3.1224442-1.4797058-4.5018158-4.5645218-4.5018158
			C105.2627106,125.9036026,98.7043381,125.9161377,92.1585083,125.9161377z M92.0832748,44.2814102
			c10.2325516,0,20.4651108,0.0627022,30.69767-0.0752373c1.3292313-0.0125427,3.0095825-0.7273178,3.8372116-1.7054291
			c0.6646118-0.7774734,0.6269913-2.5706825,0.2507935-3.6992645c-0.6019211-1.7681313-2.269722-2.1819382-4.1130905-2.1819382
			c-20.3898697,0.0376167-40.779747,0.0125427-61.1570778,0.025074c-3.0973549,0-4.6648445,1.3041496-4.6648445,3.8372078
			c0,2.5455971,1.5047913,3.7870445,4.6899261,3.7870445C71.7686386,44.2939529,81.9259567,44.2814102,92.0832748,44.2814102z
			 M128.7875519,144.5629578c2.4703522,0,4.9407196-0.0501556,7.411087,0.0125427
			c1.9436798,0.0501404,2.7713165-0.8652649,2.7462311-2.7336884c-0.0125427-0.7900238-0.0501556-1.5925751,0.0125427-2.3825836
			c0.1630249-2.2195587-0.8401642-3.2227631-3.0722656-3.1976776c-3.8246765,0.0501556-7.6493378,0.0125427-11.4614639,0.0125427
			c-5.5677185,0-5.5175629,0-5.4548569,5.5426331c0.0250778,2.0941467,0.9154205,2.8339996,2.909256,2.7713165
			C124.1603317,144.5002747,126.480217,144.5629578,128.7875519,144.5629578z M54.9777184,136.2991791
			c0-0.0125427,0-0.0125427,0-0.0250854c-1.5173264,0-3.0346565,0-4.5519829,0c-5.530098,0-5.4799347,0-5.3921585,5.6178589
			c0.0250816,1.9687805,0.8276367,2.7211609,2.7462387,2.6960754c4.0002289-0.0501556,8.0004539-0.0125275,12.000679-0.0125275
			c5.2291336,0,5.6931152-0.5392151,5.2165985-5.780899c-0.1504745-1.6427307-0.9028778-2.4828949-2.5581398-2.4828949
			C59.9309769,136.2991791,57.4606171,136.2991791,54.9777184,136.2991791z M32.4686012,74.189064
			c0,3.2352905,0,6.282486,0,9.5177765c1.2038269-0.062706,2.1694031-0.112854,3.1600533-0.1630173
			c0-3.2854538,0-6.2824936,0-9.3673019C34.5376854,74.189064,33.5971947,74.189064,32.4686012,74.189064z M151.8108063,83.619072
			c0-3.3105316,0-6.3577271,0-9.3673096c-1.1787567,0-2.1694031,0-3.1725922,0c0,3.1851349,0,6.2323303,0,9.3673096
			C149.7793427,83.619072,150.7198334,83.619072,151.8108063,83.619072z"/>
		<path fill="#FFFFFF" d="M126.7310104,159.6484528c6.1696243-0.8401642,12.1762314,0.9906464,18.170311-1.7305145
			c0,3.6741791,0.1630096,7.1477356-0.1253967,10.5711365c-0.0627136,0.7774658-1.7054291,1.9687653-2.683548,2.0314484
			c-4.1381683,0.225708-8.2888641,0.1003265-12.4270325,0.1003265c-1.7305069,0-2.8089371-0.9154053-2.8967209-2.5455933
			C126.6181564,165.2914124,126.7310104,162.5200958,126.7310104,159.6484528z"/>
		<path fill="#FFFFFF" d="M39.1899872,158.4446411c6.1570892,1.8935089,12.1887817,0.4514313,18.345871,1.1912842
			c0,2.8339996,0.1128578,5.6053314-0.0376167,8.3766327c-0.08778,1.6051178-1.1787491,2.5832214-2.8841782,2.5957794
			c-4.1507034,0.0250854-8.3014107,0.0250854-12.4646568,0c-1.8057442-0.0125427-2.8841743-1.0032043-2.9343338-2.796402
			C39.1398277,164.7772827,39.1899872,161.7551727,39.1899872,158.4446411z"/>
		<path fill="#FFFFFF" d="M103.2939453,107.7458191c-0.7147751-5.4046936,0.990654-8.4017258,6.0442276-10.4582672
			c5.7307358-2.3324203,11.5241699-2.2822647,17.179657,0.2633362c4.6773911,2.1067047,6.1696243,4.9156342,5.4799423,10.1196976
			c1.6803436,0,3.3105316,0,4.9407196,0c0.1003265,2.8089447-1.1536713,4.5394363-3.5613251,5.1162796
			c-0.6144562,0.1504745-1.2665253,0.1630249-1.9060669,0.1630249c-26.2083817,0.0125351-52.4167633,0.0125351-78.6376877,0
			c-3.6867332,0-5.2918358-1.4170151-5.7934341-5.2040482C65.8121872,107.7458191,84.534256,107.7458191,103.2939453,107.7458191z
			 M117.7148285,107.6580505c2.8716354,0,5.7432709,0.0125351,8.6149139,0
			c2.8089294-0.0125351,4.1381683-2.3073349,2.5079803-4.6272278c-0.8276367-1.1787491-2.1067047-2.1819382-3.3983154-2.8716354
			c-3.3481522-1.7932053-7.0474243-1.9311447-10.721611-1.4797058c-2.9343338,0.3636551-5.9188385,1.1536636-7.7872772,3.661644
			c-0.7273178,0.9781113-0.9404907,2.6960754-0.6771545,3.9249954c0.1379395,0.6395264,1.8182755,1.2539902,2.84655,1.3166962
			C111.9590073,107.7709045,114.8431931,107.6580505,117.7148285,107.6580505z"/>
		<path fill="#FFFFFF" d="M92.0707321,133.9291382c-6.6210632,0-13.2421341,0.0376129-19.8631973-0.0501556
			c-0.7273178-0.0125275-1.4420929-0.7273102-2.156868-1.1160583c0.7398605-0.3636475,1.4922485-1.0282745,2.2321014-1.0282745
			c13.2421341-0.0626984,26.4968033-0.0626984,39.7389374,0c0.7147751,0,1.4169998,0.7147827,2.1317749,1.1035156
			c-0.7398453,0.3636475-1.4671631,1.0282898-2.2070236,1.0408173
			C105.3128738,133.9667511,98.6917953,133.9291382,92.0707321,133.9291382z"/>
		<path fill="#FFFFFF" d="M92.2964478,135.9355316c6.633606,0,13.2546768-0.0250854,19.8882828,0.0501404
			c0.6520691,0.0125427,1.2916031,0.6771545,1.9436874,1.0282898c-0.6646118,0.3385773-1.3166962,0.9781036-1.981308,0.9781036
			c-13.342453,0.0626984-26.6723633,0.0626984-40.0148087,0c-0.70224,0-1.3919296-0.5893707-2.0816269-0.9028778
			c0.70224-0.3887329,1.4170074-1.1035156,2.1192398-1.1035156
			C78.8787613,135.8979034,85.5876083,135.9355316,92.2964478,135.9355316z"/>
		<path fill="#FFFFFF" d="M92.0456543,142.3308563c-6.633606,0-13.2546692,0.0250854-19.8882751-0.0376129
			c-0.70224-0.0125275-1.4044647-0.5768433-2.1067047-0.8777924c0.70224-0.3887329,1.4044647-1.1160431,2.094162-1.1285858
			c13.342453-0.0626984,26.6848984-0.0626984,40.0148163,0c0.6520691,0,1.3041534,0.6520844,1.9562225,1.0032043
			c-0.6520691,0.3511047-1.3041534,0.9906464-1.9562225,0.9906464
			C105.4633408,142.3559418,98.7545013,142.3308563,92.0456543,142.3308563z"/>
		<path fill="#FFFFFF" d="M113.8650818,129.590332c-14.4961166,0-28.9922485,0-43.6012268,0
			c0.2633362-2.0189209,1.7681274-1.5674744,2.8841782-1.5800171c10.2952499-0.0376129,20.6030502-0.0250778,30.8983078-0.0250778
			c2.558136,0,5.1162796-0.0501556,7.6618729,0.0376205c0.8025513,0.0250854,1.5925674,0.4514313,2.3825836,0.7022247
			C114.0155487,129.0260315,113.9403152,129.3144531,113.8650818,129.590332z"/>
		<path fill="#FFFFFF" d="M70.3140106,144.6507416c14.5086594,0,29.0298691,0,43.5385284,0
			c0.0877762,0.1880951,0.1755524,0.3887482,0.2507935,0.5768585c-0.7147751,0.3009644-1.4170074,0.8526917-2.1317825,0.8652496
			c-13.2797546,0.0501556-26.5469589,0.0501556-39.8267136,0c-0.6771545,0-1.3543091-0.5517578-2.0440063-0.8527069
			C70.1760712,145.0394897,70.2513123,144.8513947,70.3140106,144.6507416z"/>
	</g>
	<g>
		<path fill="#FFFFFF" d="M291.5805054,123.6338882c1.0282898,0,1.9813232,0,3.0471802,0
			c0.0501709,0.5015869,0.112854,1.0408096,0.1755676,1.5925751c0.5392151,0.2507935,1.0658875,0.4389038,1.5423889,0.7273102
			c2.2572021,1.3794022,3.4861145,3.3732376,3.4861145,6.0567703c0,6.1445465,0.0125122,12.2891083,0,18.4336548
			c0,0.7398529-0.0376282,1.391922,0.8401489,1.7555695c0.6019287,0.2507935,0.70224,0.9404907,0.6144714,1.5674896
			c-0.0877991,0.6144714-0.5015869,1.1035156-1.0784302,1.1536713c-1.1912842,0.1003265-2.3951416,0.0752411-3.598938,0.0501556
			c-0.1630249,0-0.4514465-0.3009644-0.4514465-0.4514465c0.0376282-0.9028625-0.3260193-1.8308258,0.2382507-2.6960602
			c0.1755676-0.2758789,0.2382812-0.6771545,0.2382812-1.0157318c0.0125122-6.3075714-0.0125427-12.6026001,0.0125122-18.9101715
			c0.0125427-2.7838593-2.8214722-4.2761078-4.9657898-3.3105316c-1.3793945,0.6144562-2.0314636,1.7681274-2.1944885,3.2102051
			c-0.0627136,0.5517578-0.0250854,1.1285858-0.0250854,1.6803436c0,5.6178741,0,11.2357635,0,16.8661652
			c0,0.6269989,0.1003113,1.1661987,0.4138184,1.7931976c0.3385925,0.6771393,0.1755676,1.630188,0.1379395,2.4578247
			c0,0.1504669-0.4012756,0.4012909-0.6144714,0.4138184c-1.0031738,0.0501556-2.0063782,0.0501556-3.009552,0.0125275
			c-0.8025513-0.0376129-1.2790833-0.4765167-1.4797058-1.1912842c-0.2006531-0.7147827,0.0501404-1.3292236,0.6646118-1.6427155
			c0.6771545-0.3636475,0.6896973-0.8903503,0.6896973-1.5047913c-0.0125427-4.7275391-0.0125427-9.4676208,0.0125427-14.1951752
			c0.0125122-1.8433685-0.0250854-3.6867218,0.1504517-5.5175476c0.250824-2.5330658,1.7179871-4.3011703,4.0253296-5.2667465
			c0.8276367-0.35112,1.1411438-0.7524033,1.040802-1.5800247
			C291.4927063,123.9850006,291.5428772,123.8595963,291.5805054,123.6338882z"/>
		<path fill="#FFFFFF" d="M295.1794434,153.4662933c0,5.2165985,0,10.4332123,0,15.6623383
			c0,0.3260345,0.0125427,0.6520844-0.0375977,0.9655762c-0.1755676,1.1160583-0.9781189,1.8057556-2.0565491,1.8182831
			c-1.0533447,0.0125275-1.855896-0.7022247-2.0314636-1.8433685c-0.0501404-0.3134918-0.0376282-0.6395264-0.0376282-0.9655762
			c0-10.433197,0-20.8789215,0-31.3121185c0-0.3636475-0.0125122-0.7273254,0.0501709-1.0784302
			c0.2131653-1.0408173,1.0282593-1.7179718,2.0314636-1.7054291c1.0157166,0.0125275,1.8182678,0.6896973,2.0063782,1.7305145
			c0.0752258,0.3887329,0.0501404,0.8025513,0.0627136,1.2038269
			C295.1794434,143.1083527,295.1794434,148.2873077,295.1794434,153.4662933z"/>
		<path fill="#FFFFFF" d="M294.7907104,115.031517c-0.0626831,0.8527069-0.112854,1.4796982-0.1504517,2.0565414
			c-1.065918,0-2.0064087,0-3.0722961,0c-0.0375977-0.5893784-0.0877686-1.2163696-0.1379395-1.981308
			c-0.4765015-0.0250854-0.9404907-0.050148-1.4044495-0.0752335c-1.3166809-0.050148-2.6584473,0.0250854-3.962616-0.1504745
			c-2.2571716-0.3009644-3.7619629-1.680336-4.6146851-3.7619705c-0.451416-1.1035156-0.4389038-1.1160431-1.6176147-1.1035156
			c-0.7774658,0.0125351-1.6176453-0.2006378-2.2321167,0.5141449c-0.0626831,0.0752335-0.225708,0.0752335-0.338562,0.0752335
			c-1.7305298,0-3.4610291,0.050148-5.1789856-0.0250854c-1.0032043-0.0376205-1.5675049-0.7398453-1.5424194-1.6552734
			c0.0125427-0.9404907,0.5517578-1.4546356,1.6678162-1.4796982c1.6051025-0.0250854,3.2102051-0.0125351,4.8153076-0.0125351
			c0.1254272,0,0.2633667-0.0376205,0.3636475,0.0125351c1.3793945,0.7900162,2.8841858,0.3761978,4.3388062,0.4514389
			c1.1913147,0.0752335,1.3292542,0.1630173,1.5675049,1.3668442c0.5015869,2.4954453,1.7054138,3.5111694,4.2259216,3.5237045
			c3.736908,0.0125351,7.4738159,0.0125351,11.2106934,0c2.5079651-0.0125351,3.7494202-1.0784302,4.1757812-3.54879
			c0.1880798-1.0909653,0.3887329-1.2916107,1.4797058-1.3292313c0.7272949-0.0250854,1.4420776,0.0125351,2.1694031-0.0125275
			c0.6646118-0.0125351,1.3668213,0.1254044,1.9562073-0.3762054c0.1253967-0.112854,0.3887329-0.0877838,0.5768433-0.0877838
			c1.6803284,0,3.37323-0.0250854,5.0535889,0.0125275c0.9530029,0.0250854,1.4796753,0.5266724,1.5549316,1.3543167
			c0.0877991,0.8526993-0.4138184,1.5800171-1.3166809,1.7179565c-0.8276367,0.1254044-1.6803284,0.0752335-2.5205078,0.1003189
			c-0.8025513,0.0125351-1.6051025,0.0125351-2.4076538,0c-0.2758789,0-0.6646118,0.0501556-0.815094-0.1003189
			c-0.7774658-0.7774658-1.7304993-0.4138184-2.6208496-0.5141373c-0.6646118-0.0752411-0.9906311,0.1880875-1.2038269,0.8526993
			c-0.589386,1.8182831-1.7681274,3.1600571-3.6114807,3.7494354c-0.8276367,0.2633514-1.7179871,0.3636475-2.5957947,0.4012909
			C297.3488464,115.081665,296.1199341,115.031517,294.7907104,115.031517z"/>
		<path fill="#FFFFFF" d="M295.467865,120.2857208c0.0250854,1.4420776-0.927948,2.4452744-2.332428,2.4828949
			c-1.3668518,0.0376129-2.4828796-0.9906464-2.5455933-2.3449554c-0.0501404-1.1912918,1.1661987-2.4828949,2.4076538-2.5456009
			C294.3016663,117.8279114,295.4428101,118.9439621,295.467865,120.2857208z"/>
	</g>
	<path fill="#FFFFFF" d="M261.0333252,114.1411743c-1.8935242,0.5141449-3.8372192,1.0157318-5.5677185,1.8935165
		c-1.8809967,0.9530258-2.7086334,0.2131805-3.5613403-1.3166885c-1.7555695-3.1725922-3.6491089-6.2574158-5.4046936-9.4300079
		c-1.9311218-3.5111771-4.6397552-5.0535812-8.8280792-4.9908829c-15.5620117,0.2006378-31.1365662-0.0125427-46.6985779,0.112854
		c-11.5868683,0.0877762-10.6087646-2.2195587-17.5683899,10.1573105c-3.4610138,6.1445465-3.4986267,6.1194763-10.3830261,3.962616
		c-0.5768433-0.17556-1.1411438-0.3887329-1.7179718-0.5517578c-2.1317902-0.6019135-3.4108582,0.4389038-3.3356171,2.4076538
		c0.0626984,1.7054291,0.4514313,4.4516678,1.4797058,4.8780212c4.9783325,2.1066971,4.5018158,5.4046936,3.7118073,9.7811279
		c-0.7649384,4.2384949-0.1630096,8.7277679-0.1630096,13.116745c-0.1630249,0.0125275-0.3260498,0.0250702-0.4890594,0.0376129
		c0.6144562,7.912674,1.279068,15.8253479,1.8182831,23.7380219c0.1504822,2.2446289,1.0282745,3.3105316,3.3356171,3.247818
		c2.7211456-0.0752258,5.4423065,0.0125427,8.1634674-0.0125275c4.6021423-0.0376129,4.7526093-0.2131805,4.8780212-4.8905487
		c0.112854-4.5269165,0.112854-4.5269165,4.8278656-4.5269165c17.0793304,0,34.1586761,0,51.2380219,0
		c1.0533447,0,2.1192474,0.0376282,3.1725922,0.0125427c1.6928864-0.0501556,2.5079803,0.7147827,2.4327393,2.4452667
		c-0.0501556,1.05336,0.0626984,2.1192474,0,3.1725922c-0.1755524,2.6208344,0.8401642,3.9500732,3.6491089,3.8372192
		c3.1725922-0.125412,6.3451843-0.0627136,9.5177765-0.0376282c1.8057404,0.0125427,2.8716278-0.7649384,3.0597382-2.5832062
		c0.4389038-4.1632538,1.1160583-8.3264923,1.2163696-12.4897461c0.2006531-8.000473,0.1003418-16.0134583,0.0250854-24.0264587
		c-0.0125122-1.61763-0.0125122-3.5111694-0.7900085-4.8027802c-1.4546204-2.4076538-0.2633362-3.2352982,1.630188-3.9876785
		c2.6208191-1.0408096,4.2510376-2.8465576,4.4767456-5.7181854
		C265.3721008,114.5926132,263.9049377,113.3637085,261.0333252,114.1411743z M171.8746338,123.0946655
		c3.0346527-5.0535812,6.2072449-10.0068359,9.2293701-15.0729675c1.630188-2.7211533,3.7745056-3.9249954,7.0474091-3.89991
		c15.562027,0.125412,31.1365814,0.112854,46.7111206,0c3.2729187-0.0250854,5.4046936,1.2038422,7.0223541,3.9500656
		c2.9970398,5.0661087,6.1570892,10.0444489,9.1917419,15.0980225c1.9562225,3.2603836,1.0408173,5.4046936-2.6459198,6.1069336
		c-1.3166809,0.2507935-2.7086182,0.1504669-4.0629272,0.1504669c-0.4263458,0-0.8527069,0-1.279068,0
		c0.1630249-3.2227631-1.05336-5.0911942-4.2259521-6.5207443c-4.2635498-1.9060669-8.6274567-1.9562225-12.9411621-0.1880875
		c-3.4233856,1.4044571-4.8153076,3.37323-4.6648407,6.7213898c-3.3356171,0-6.6712341,0-9.9942932,0
		c-11.0351257,0-22.0702362,0-33.1053314-0.0125427c-1.2038269,0-2.4452667,0.0752411-3.611496-0.1630249
		C170.7962036,128.4993591,169.8807983,126.4177246,171.8746338,123.0946655z M224.1033173,126.5306015
		c1.4044647-1.8935165,3.6491241-2.4828949,5.8686676-2.7587738c2.7587738-0.3511124,5.5551605-0.2382584,8.0756989,1.1160507
		c0.9655762,0.5266724,1.9436798,1.2790756,2.558136,2.1693954c0.6144562,0.8652573,0.6646118,1.7305069,0.3134918,2.382576
		c-5.7683563,0-11.5492554,0-17.3175964,0C223.4010773,128.5244446,223.5641022,127.2579193,224.1033173,126.5306015z
		 M191.1484528,146.0175934c-0.463974,1.1411285-2.558136,2.4578247-3.7870483,2.3073425
		c-5.0786591-0.589386-10.1447754-1.5298767-15.1231232-2.6960754c-2.4954376-0.5768433-2.8841705-1.8182831-2.8841705-5.4046936
		c0-5.4046936,1.7179718-6.6335907,6.5709076-4.7024689c3.4986267,1.3919373,7.0097961,2.7838593,10.4833527,4.2635651
		c1.2414551,0.5266724,2.7462463,1.0031891,3.4735565,1.9938354
		C190.7471924,142.9453278,191.599884,144.9140778,191.1484528,146.0175934z M225.4576111,158.6703491
		c-4.6648407-0.0376282-9.3171387-0.0125427-13.9819794-0.0125427c-4.6648407-0.0125275-9.3171234-0.0376129-13.9819794,0.0125427
		c-1.9060669,0.0250854-3.2102051-0.3636475-3.1725922-2.683548c0.0376282-2.1443176,1.3417816-2.4076538,2.9719543-2.4076538
		c9.4676208-0.0125275,18.9477844-0.0125275,28.4154205-0.0250854c1.6803284,0,2.9594116,0.4012909,2.9844971,2.4703674
		C228.7305298,158.3192291,227.3385925,158.6828918,225.4576111,158.6703491z M248.9699249,146.1179199
		c-4.1130829,0.8777771-8.2763367,1.5424042-12.4144897,2.2697144c-2.1317749,0.3762054-3.9751434-0.1003265-4.8153229-2.2822723
		c-0.8527069-2.1944885,0.1504822-4.0253143,2.0690765-4.9031067c5.0410461-2.3073273,10.1322479-4.5519867,15.3488464-6.4204254
		c2.8841705-1.0282745,4.3513489,1.0282898,4.3513489,5.4423218
		C253.4968262,144.5378876,253.0579376,145.252655,248.9699249,146.1179199z"/>
</g>
</svg>
