<?xml version="1.0" encoding="utf-8"?>
<!-- Generator: Adobe Illustrator 26.0.0, SVG Export Plug-In . SVG Version: 6.00 Build 0)  -->
<svg version="1.1" id="Layer_1" xmlns="http://www.w3.org/2000/svg" xmlns:xlink="http://www.w3.org/1999/xlink" x="0px" y="0px"
	 viewBox="0 0 250 250" enable-background="new 0 0 250 250" xml:space="preserve">
<g>
	<g>
		<path fill="#FFFFFF" d="M127.948967,227.9978027c-29.753334,0.0008392-59.5066605,0.0051575-89.2599945-0.0012512
			c-12.3285046-0.0026703-22.8677082-8.6005096-27.4557343-22.8695374
			c-1.2301435-3.8258057-1.6444235-8.0957184-2.2034636-12.2105408c-0.2942715-2.1659851-0.1116428-4.4373016-0.1118307-6.6610565
			C8.9138298,137.7555389,8.9260225,89.2556458,8.8975754,40.7557907
			c-0.0032063-5.4665718,1.2543325-10.0835361,4.9532814-13.3259659c1.9649954-1.7224751,4.1648102-2.3695717,6.5684147-2.3671761
			c29.5556049,0.029438,59.1112366,0.0158806,88.6668625,0.01688c30.2475739,0.0010204,60.4955597,0.1086235,90.7423706-0.0793552
			c5.9145508-0.0367546,11.6645966,5.7888832,11.6555939,14.6279545
			c-0.0537415,52.7004547-0.0345459,105.401062,0.0044403,158.1015472c0.0015564,2.1131897,0.1282043,4.3903198,0.7562866,6.3040161
			c1.254837,3.8232727,4.5049438,5.7493439,7.5010681,4.9548645c3.3090668-0.8775024,5.7737579-4.2803345,5.798172-8.4519196
			c0.072998-12.4794159,0.0505524-24.9597626,0.0516205-37.4397278
			c0.0031433-36.4521255,0.0144806-72.9042664-0.0217438-109.3563232c-0.0041656-4.1773682,1.2102509-7.4001427,4.203537-9.2432861
			c4.8101196-2.9619141,10.1071014,1.1368675,10.5501556,8.0328217c0.0473785,0.7374763,0.0366516,1.4817467,0.0366974,2.2228699
			c0.0032806,47.0788612-0.0012054,94.1577148,0.0151672,141.2365723
			c0.0018158,5.2122498-0.1729279,10.3446655-1.8599396,15.2501068
			c-3.5299377,10.264267-11.2767792,16.7478943-20.2727051,16.7520447
			C188.1475677,228.0055084,158.0482635,227.9969635,127.948967,227.9978027z M102.919548,144.9747162
			c0.0037689,0,0.0075531,0,0.0113297,0c0-17.4782791,0.0000153-34.9565735-0.0000229-52.4348526
			c-0.0000076-2.4799118-0.0559616-2.5810318-1.9406738-2.5815659c-22.7762299-0.0065231-45.5524559,0.0049438-68.3286514-0.0299301
			c-1.277935-0.0019531-1.7295322,0.511734-1.7278519,2.130455c0.0309429,29.8303604,0.0986614,59.6611786-0.009079,89.4909363
			c-0.0343628,9.5150757,5.975914,18.5833893,15.1520576,18.527771c18.1809731-0.11026,36.3626366-0.0407715,54.5440178-0.0493317
			c2.1672363-0.0010071,2.2986908-0.1712646,2.2987289-2.8038788
			C102.9196625,179.807785,102.919548,162.3912506,102.919548,144.9747162z M110.100975,71.1496277
			c0-0.0050354,0-0.0100632,0-0.0150986c25.6912613,0,51.3825302,0.0001755,77.0737839-0.0002899
			c2.2184143-0.0000381,2.3045807-0.0992508,2.312973-2.9564285c0.0123444-4.199688,0.0159149-8.3994675,0.0093536-12.5991783
			c-0.0037384-2.398243-0.116806-2.5442772-1.9898529-2.5456696c-10.1776886-0.0075645-20.3553619-0.0068741-30.5330658-0.0072365
			c-41.2542496-0.0014648-82.5084991-0.0026627-123.7627563-0.0023003c-2.2509804,0.0000229-2.2567959,0.0070305-2.260376,2.7290001
			c-0.0056019,4.2614975-0.0060406,8.5230103-0.0016155,12.7845078c0.0026245,2.5229111,0.0819206,2.6130142,2.0778065,2.6129837
			C58.7184753,71.1494904,84.409729,71.1496277,110.100975,71.1496277z M154.7579651,133.7568359
			c-10.1317444,0-20.2636108,0.0281067-30.395134-0.032135c-1.4211121-0.0084534-1.9049149,0.5530548-1.8738708,2.3356171
			c0.0795746,4.5697174,0.0660553,9.1436768,0.0110092,13.7144623c-0.0190735,1.5841064,0.3944702,2.1683197,1.7038498,2.1656189
			c20.411644-0.0422058,40.8233871-0.0483704,61.2350388-0.0094147c1.375824,0.0026245,1.8338013-0.6191254,1.8188171-2.2659454
			c-0.0410156-4.5093994-0.0010681-9.0198822-0.0030212-13.5299377c-0.0009766-2.2566376-0.0971375-2.3719482-1.9532471-2.3726044
			C175.1202545,133.7589111,164.9391174,133.760788,154.7579651,133.7568359z M154.7828217,117.8404007
			c0-0.0020599,0-0.0041351,0-0.0061951c10.1760254,0,20.3521576-0.031517,30.5279236,0.0345078
			c1.4995575,0.0097198,1.9880524-0.6070023,1.953537-2.4560699c-0.079483-4.2583694-0.0200653-8.520813-0.0147858-12.781601
			c0.0034027-2.7473145-0.0662079-2.8369293-2.2241669-2.8365936c-15.1652527,0.0023575-30.3304749,0.0049133-45.4957275,0.0054703
			c-4.9891968,0.0001755-9.9784241-0.0122452-14.9676285-0.0047531c-1.921524,0.0028687-2.0427246,0.1606598-2.0444489,2.4800034
			c-0.0032425,4.3843384-0.0042496,8.7686768,0.0045013,13.1529922c0.0047531,2.3800507,0.0393753,2.4121323,1.8809738,2.4121552
			C134.5296173,117.840477,144.6562042,117.8404007,154.7828217,117.8404007z M144.39151,167.8335266
			c-6.6172333,0-13.2346497,0.0335846-19.8515091-0.0269775c-1.4052048-0.0128784-1.9168015,0.5741882-1.8857956,2.3621979
			c0.0780945,4.5041962,0.0649948,9.0127106,0.0055466,13.5177765c-0.0203629,1.543335,0.4550934,2.0904999,1.6434021,2.0877075
			c13.2837296-0.0312042,26.5674973-0.0474243,39.8512344-0.0245972c1.2718506,0.002182,1.7545624-0.5570984,1.7350311-2.1687775
			c-0.053833-4.4434814-0.0059357-8.8888092-0.0098114-13.3334045c-0.0019989-2.2897644-0.0939484-2.4095764-1.9326935-2.4120483
			C157.4284363,167.8266907,150.9099731,167.832016,144.39151,167.8335266z"/>
	</g>
	<g>
		<polygon fill="#FFFFFF" points="77.7915268,124.3802185 80.7069778,127.4079056 83.7355042,124.2675781 83.7355042,127.8562317 
			87.7723312,127.8562317 84.6318817,130.9969025 87.2667084,133.8464203 77.7915268,133.8464203 		"/>
		<polygon fill="#FFFFFF" points="57.2680206,124.3996429 61.8665581,128.9977112 61.8665581,119.5773849 61.8118057,119.4623795 
			66.9091644,124.1751099 71.5113068,119.4655762 71.5113068,128.885788 76.1089401,124.2878113 76.1089401,134.1564789 
			71.5192184,138.5304413 66.9125824,133.5954437 61.7612724,138.530014 57.2680206,133.8198853 		"/>
		<polygon fill="#FFFFFF" points="49.866333,127.8757858 49.866333,123.8387451 53.0068779,126.9795074 55.8565292,124.344368 
			55.8565292,133.8198853 46.3902855,133.8198853 49.417881,130.9043121 46.2775536,127.8757858 		"/>
		<polygon fill="#FFFFFF" points="55.5636749,165.6032867 52.648037,162.5758972 49.6194801,165.7158813 49.6194801,162.1270142 
			45.5826874,162.1270142 48.7232323,158.9868164 46.0882797,156.1371307 55.5636749,156.1371307 		"/>
		<polygon fill="#FFFFFF" points="46.726532,154.5137634 51.3241653,149.9154816 41.9041405,149.9154816 41.7890816,149.9701996 
			46.5019035,144.8729553 41.7922173,140.2708282 51.2124252,140.2708282 46.6144791,135.6728821 56.4831429,135.6728821 
			60.8571129,140.2628174 55.9222374,144.8693237 60.8567696,150.0206451 56.146431,154.5137634 		"/>
		<polygon fill="#FFFFFF" points="76.086998,165.5836029 71.4884872,160.9859924 71.4884872,170.4062042 71.5429611,170.5210876 
			66.445816,165.8083496 61.8438072,170.5179138 61.8438072,161.0974579 57.2457352,165.6957397 57.2457352,155.8271484 
			61.8358002,151.4530182 66.442215,156.3881378 71.5936203,151.4533691 76.086998,156.1633606 		"/>
		<polygon fill="#FFFFFF" points="83.4888077,162.1078033 83.4888077,166.1446228 80.3478928,163.0041809 77.498703,165.6390076 
			77.498703,156.1633606 86.9648209,156.1633606 83.9369812,159.0792694 87.0774307,162.1078033 		"/>
		<polygon fill="#FFFFFF" points="92.0635529,149.9074402 82.6430893,149.9074402 87.2409439,154.5052032 77.3722839,154.5052032 
			72.9983139,149.9151306 77.9333115,145.3089294 72.9987488,140.1576538 77.7087784,135.6641541 87.1290207,135.6641541 
			82.5313873,140.2626953 91.9511566,140.2626953 92.0662537,140.2079773 87.353775,145.3052063 		"/>
	</g>
</g>
</svg>
