<?xml version="1.0" encoding="utf-8"?>
<!-- Generator: Adobe Illustrator 25.4.1, SVG Export Plug-In . SVG Version: 6.00 Build 0)  -->
<svg version="1.1" id="Layer_1" xmlns="http://www.w3.org/2000/svg" xmlns:xlink="http://www.w3.org/1999/xlink" x="0px" y="0px"
	 viewBox="0 0 250 250" enable-background="new 0 0 250 250" xml:space="preserve">
<g>
	<path fill="#FFFFFF" d="M159.07,33.69c2.95,2.89,5.79,5.66,8.86,8.67c0.8-0.63,1.55-1.33,2.39-1.88c4.41-2.91,8.32-2.87,12.04,0.75
		c8.78,8.54,17.46,17.19,25.98,25.99c4.25,4.38,3.88,7.82-0.74,14.56c2.8,2.79,5.61,5.59,8.87,8.83c0.96-0.24,2.54-0.71,4.14-1.02
		c6.95-1.34,13.03,1.24,16.36,6.88c3.28,5.57,2.78,12.49-2.16,17.55c-13.27,13.61-26.72,27.05-40.3,40.35
		c-5.16,5.05-12.54,5.67-18.1,2.28c-5.73-3.5-8.15-9.97-6.37-17.08c0.25-1.01,0.68-1.98,0.84-2.45
		c-5.45-5.39-10.65-10.55-16.28-16.12c-5.42,3.06-11.76,6.64-17.96,10.15c2.01,9.89-3.18,13.03-11.13,10.56
		c-10.58,8.31-20.75,17.48-29.84,27.78c-14.11,16-27.85,32.32-42,48.28c-4.88,5.51-10.37,10.51-15.9,15.4
		c-2.47,2.19-5.59,3.79-8.63,5.18c-5.31,2.43-10.32,1.63-14.57-2.53c-4.35-4.27-5.57-9.24-3.26-15.04
		c2.65-6.65,7.09-12.06,12.24-16.75c11.39-10.38,23.02-20.5,34.68-30.58c14.86-12.86,29.81-25.6,42.58-40.64
		c2.32-2.73,4.63-5.47,6.83-8.08c-1.63-10.88,2.26-13.36,10.8-11.61c3.43-6.01,6.94-12.19,10.67-18.74
		c-5.25-4.75-10.67-9.65-16.1-14.56c0.27-0.39,0.53-0.78,0.8-1.16c-1.8,0.43-3.58,0.96-5.4,1.28c-6.56,1.15-12.46-1.57-15.6-7.11
		c-2.86-5.04-2.25-11.83,1.55-16.63c0.78-0.99,1.69-1.89,2.58-2.79c12.24-12.26,24.4-24.6,36.81-36.68
		c2.48-2.41,5.69-4.69,8.95-5.55c9.28-2.45,17.91,4.9,17.63,14.57C160.28,28.23,159.58,30.7,159.07,33.69z"/>
	<path fill="#FFFFFF" d="M109.99,214.63c0.12-2.14,0.25-3.99,0.32-5.84c0.2-6.21,0.66-6.66,7.08-6.79c0.84-0.02,1.69,0,2.53,0
		c30.17,0,60.34,0,90.51,0c1.05,0,2.11-0.03,3.16,0.01c5.04,0.21,5.91,1.01,6.16,5.87c0.11,2.07,0.02,4.15,0.02,6.64
		c2.35,0.19,4.17,0.32,6,0.48c4.22,0.37,5.27,1.24,5.41,5.34c0.17,4.85,0.06,9.71,0.01,14.56c-0.03,3.06-1.63,4.66-4.72,4.69
		c-1.48,0.01-2.95,0.03-4.43,0.03c-37.97,0-75.95,0-113.92,0c-1.05,0-2.11,0.03-3.16-0.01c-5.17-0.19-5.9-0.83-6.03-5.85
		c-0.11-4.22-0.1-8.44-0.01-12.66c0.12-5.12,0.81-5.78,5.83-6.11C106.37,214.88,108.01,214.76,109.99,214.63z"/>
</g>
</svg>
