<?xml version="1.0" encoding="utf-8"?>
<!-- Generator: Adobe Illustrator 25.4.1, SVG Export Plug-In . SVG Version: 6.00 Build 0)  -->
<svg version="1.1" id="Layer_1" xmlns="http://www.w3.org/2000/svg" xmlns:xlink="http://www.w3.org/1999/xlink" x="0px" y="0px"
	 viewBox="0 0 250 250" enable-background="new 0 0 250 250" xml:space="preserve">
<g>
	<path fill="#FFFFFF" d="M240,34.51c0,38.12,0,76.24,0,114.36c-6.27-6.42-12.55-12.83-18.71-19.13
		c7.53-23.63,1.92-42.88-15.63-54.31c-16.21-10.55-37.43-8.98-51.87,3.85c-14.41,12.79-18.49,33.84-9.91,51.11
		c10.05,20.21,27.34,26.33,58.71,19.91c2.86,3.22,6.12,7.27,9.79,10.92c9.11,9.08,18.4,17.97,27.62,26.93c0,5.01,0,10.01,0,15.02
		c-3.23,4.92-6.76,9.22-13.41,9.56c-11.9,0.6-23.83,1.1-35.68,2.34c-20.05,2.1-40.08,4.33-59.45,10.58
		c-4.25,1.37-9.35,0.57-13.99,0.08c-3.18-0.33-6.19-2.02-9.36-2.79c-26.65-6.41-53.82-8.98-81.1-10
		c-8.18-0.31-14.09-2.66-18.01-9.78C9,146.94,9,90.72,9,34.51c3.74-8.06,10.3-10.92,18.81-10.31c4.99,0.36,9.99,0.47,14.97,0.91
		c26.41,2.35,52.83,4.66,78.4,12.43c1.73,0.53,3.87,0.72,5.57,0.22c30.65-9.12,62.28-11.38,93.93-13.55
		C229.36,23.6,236.19,26.13,240,34.51z M109.06,77.31c-23.43-3.2-46.81-6.39-70.53-9.63c0,5.68,0,9.63,0,13.47
		c23.63,3.33,46.9,6.61,70.53,9.94C109.06,87.18,109.06,83.04,109.06,77.31z M38.39,167.77c23.81,3.36,47.07,6.64,70.69,9.97
		c0-3.98,0-8.12,0-12.78c-23.38-5.2-46.76-8.3-70.69-9.7C38.39,159.89,38.39,163.68,38.39,167.77z M109.16,121.6
		c-23.6-5.03-46.79-8.38-70.5-9.57c0,4.94,0,9.02,0,12.43c23.79,3.37,47.01,6.66,70.5,9.99
		C109.16,130.19,109.16,126.23,109.16,121.6z"/>
	<path fill="#FFFFFF" d="M211.41,111.03c-0.08-15.91-13.11-28.98-29.02-29.1c-16.06-0.13-29.31,13.16-29.31,29.38
		c0,16.23,13.25,29.52,29.3,29.4C198.51,140.59,211.5,127.31,211.41,111.03z"/>
	<path fill="#FFFFFF" d="M211.41,111.03c0.08,16.28-12.9,29.56-29.03,29.68c-16.05,0.12-29.3-13.17-29.3-29.4
		c0-16.23,13.25-29.51,29.31-29.38C198.3,82.05,211.33,95.12,211.41,111.03z"/>
</g>
</svg>
