<?xml version="1.0" encoding="utf-8"?>
<!-- Generator: Adobe Illustrator 26.0.0, SVG Export Plug-In . SVG Version: 6.00 Build 0)  -->
<svg version="1.1" id="Layer_1" xmlns="http://www.w3.org/2000/svg" xmlns:xlink="http://www.w3.org/1999/xlink" x="0px" y="0px"
	 viewBox="0 0 250 250" enable-background="new 0 0 250 250" xml:space="preserve">
<g>
	<path fill="#FFFFFF" d="M175.7363281,61.7599297c0.0343475-0.617588-0.0114136-1.2809181,0.1143951-1.9099464
		c0.3659515-1.9099274,1.4753113-3.2594833,3.4767914-3.3166656c5.8327332-0.1486702,8.3831329-0.8691978,8.0858154,7.3538589
		c-0.160141,4.3688507,0,8.7491455-0.0343323,13.1294327c-0.0343018,3.5682907-1.5096741,4.9750137-5.1007996,4.9978943
		c-0.2173157,0-0.4345856,0-0.6519012,0c-4.334549,0-5.3981628-0.8920746-6.0157776-5.1808701c-0.9035187,0-1.8184357,0-2.8820496,0
		c0,16.057251,0,32.0687714,0,48.0345306c3.1908875,0.8348923,3.2366486,0.9035034,3.2480621,4.2430573
		c0,1.6011505-0.0457611,3.2137451,0.0114136,4.8148956c0.068634,2.0014496-0.9378052,2.8363342-2.8477631,3.1222382
		c-1.1207886,0.1715546-2.1386414,0.8806458-3.2366028,1.2809296c-2.0700531,0.7548218-4.1629791,2.092926-6.2444916,2.1043549
		c-28.306076,0.1372375-56.6120911,0.1029358-84.9181595,0.0800781c-2.5389786,0-4.8606415-0.6747742-6.7134323-2.6419067
		c-0.5032196-0.5375214-1.5096054-0.7548218-2.3101959-0.8348694c-2.6305008-0.2401886-3.2823486-0.8577728-3.3052292-3.5454254
		c-0.011467-1.4638977,0-2.9163818,0-4.3802948c0-3.2137299,0.1943893-3.4653397,3.2823486-4.2315979
		c0-15.9657745,0-31.977272,0-48.06884c-0.9835587,0-1.8413162,0-2.6876678,0
		c-0.4002914,1.1779785-0.5946808,2.4360352-1.2122955,3.4310379c-1.0864868,1.7612686-5.2723503,2.5275269-7.8799133,1.5668411
		c-2.2302055-0.8234558-2.9506912-2.5618362-2.9164009-4.8491898c0.0571671-5.1808701,0.0114098-10.3617325,0.0228767-15.5425987
		c0.0114136-3.6369019,1.349514-4.9406967,5.0436249-4.9406967c0.9492722,0,1.8984871-0.034317,2.8477631,0.0114403
		c1.9785385,0.0914879,3.3166351,1.3609772,3.6483536,3.3852882c0.400238,2.4589081,0.4345779,2.4703484,3.2594681,1.7841377
		c0-4.9635735,0.1600952-9.9843292-0.0342941-14.9936333c-0.5375671-13.9528885,8.8520737-21.1580753,19.8885269-22.9421997
		c2.0701141-0.3316727,4.2087479-0.4574776,6.3131409-0.4574776c17.1437531-0.0343189,34.2874985-0.0800629,51.4312515,0.0114384
		c7.4339142,0.0343056,14.2502289,1.9899921,19.6598511,7.4796658c4.1401062,4.2087402,5.5697174,9.4010468,5.5125427,15.1537399
		c-0.0457458,4.5175362-0.0114594,9.0465126-0.0114594,13.5640488
		C172.5797882,62.2745895,172.7170563,62.3775139,175.7363281,61.7599297z M121.3086395,101.6972198
		c11.8828583,0,23.7771301,0,35.6599426,0c4.4832306,0,6.9192352-2.3445511,6.9306946-6.8163376
		c0.0342865-13.9986267,0.0342865-28.0086975,0-42.007328c-0.0114594-4.4717903-2.447464-6.8163338-6.919281-6.8163338
		c-23.8457184,0-47.7028503,0-71.5485611,0c-4.6662064,0-6.8048935,2.0929337-6.8163071,6.8048935
		c-0.0343475,13.9986343-0.0343475,28.0087051,0,42.0073395c0.0114136,4.7119522,2.1501007,6.8277664,6.8048935,6.8277664
		C97.3828735,101.6972198,109.345787,101.6972198,121.3086395,101.6972198z M121.2514725,112.1961823
		c-6.1187057,0-12.2373428-0.0114288-18.3560486,0.0114365c-2.4360504,0.0114288-3.5911789,1.1551056-3.614006,3.6025772
		c-0.0343399,4.3002319-0.0343399,8.6004715,0,12.9006958c0.0114136,2.8248901,1.1321945,3.945694,3.9799576,3.945694
		c11.9514999,0.0114288,23.9029388,0.0114288,35.8429184,0c2.7905884,0,4.1973267-1.3381042,4.2316132-4.0943756
		c0.0457611-4.0829391,0.0457611-8.165863,0-12.2373581c-0.0342865-2.8477707-1.3495026-4.1058044-4.1629791-4.1058044
		C133.2029114,112.1847534,127.2214813,112.1961823,121.2514725,112.1961823z M121.1828308,37.7426643
		c9.3324127,0,18.6648865,0.0571976,27.9972839-0.0686111c1.2122955-0.0114365,2.7448425-0.6633415,3.4996796-1.5554047
		c0.6061401-0.7090874,0.5718536-2.3445435,0.2287292-3.373848c-0.5489807-1.6125908-2.0700531-1.9900055-3.7512817-1.9900055
		c-18.5962372,0.034317-37.1924286,0.0114384-55.7772598,0.0228786c-2.8248825,0-4.2544403,1.189415-4.2544403,3.4996548
		c0,2.3216629,1.3723907,3.4538956,4.2773209,3.4538956C102.6552277,37.7541046,111.9190598,37.7426643,121.1828308,37.7426643z
		 M154.6583252,129.2026825c2.2530823,0,4.5061188-0.0457306,6.75914,0.0114288
		c1.7727356,0.0457458,2.5275726-0.7891388,2.5046997-2.4932022c-0.0114746-0.72052-0.0457611-1.4524841,0.0113983-2.1729889
		c0.1486969-2.0243149-0.7662354-2.9392548-2.802002-2.9163895c-3.488205,0.0457458-6.9763947,0.0114365-10.453186,0.0114365
		c-5.0779724,0-5.0322113,0-4.9750366,5.0550613c0.0228729,1.9099426,0.8348694,2.5847015,2.6533661,2.5275421
		C150.4381714,129.1455231,152.5539856,129.2026825,154.6583252,129.2026825z M87.3413925,121.6658478
		c0-0.0114365,0-0.0114365,0-0.0228806c-1.3838577,0-2.7677155,0-4.1515732,0c-5.0436249,0-4.9978638,0-4.9178162,5.1236725
		c0.0228729,1.7956009,0.7548294,2.4817886,2.5046921,2.4589157c3.6482925-0.0457458,7.2966461-0.0114441,10.9449997-0.0114441
		c4.7691345,0,5.1923065-0.4917603,4.7576675-5.2723541c-0.1372223-1.4982147-0.8234177-2.2644806-2.3330765-2.2644806
		C91.8589096,121.6658478,89.6058807,121.6658478,87.3413925,121.6658478z M66.8123703,65.0194092
		c0,2.9507065,0,5.7298431,0,8.6805191c1.0979004-0.0571823,1.9785385-0.1029205,2.8820496-0.1486664
		c0-2.9964447,0-5.7298279,0-8.5432892C68.6993942,65.0194092,67.841629,65.0194092,66.8123703,65.0194092z M175.6562805,73.6198807
		c0-3.01931,0-5.7984467,0-8.5432739c-1.0750732,0-1.9785309,0-2.8935242,0c0,2.9049454,0,5.6840897,0,8.5432739
		C173.8035431,73.6198807,174.6613007,73.6198807,175.6562805,73.6198807z"/>
	<path fill="#FFFFFF" d="M152.7827148,142.9611511c5.6268921-0.7662659,11.1051025,0.9034882,16.5718994-1.5782776
		c0,3.3509674,0.1486816,6.5189667-0.1143494,9.6412048c-0.0572205,0.7090759-1.5554199,1.795578-2.447464,1.8527527
		c-3.7741547,0.2058563-7.5597229,0.0914917-11.3338776,0.0914917c-1.5783081,0-2.5618744-0.8348846-2.641922-2.3216705
		C152.6797943,148.1076965,152.7827148,145.5801849,152.7827148,142.9611511z"/>
	<path fill="#FFFFFF" d="M72.942482,141.8632202c5.6154175,1.726944,11.1165619,0.4117279,16.7319794,1.0865021
		c0,2.5847015,0.1029892,5.1122437-0.0342865,7.6397705c-0.0800476,1.4638977-1.0750198,2.3559723-2.6304398,2.3674164
		c-3.7855759,0.0228882-7.5711441,0.0228882-11.3681793,0c-1.6468811-0.0114288-2.6304398-0.9149475-2.6762009-2.5503998
		C72.8967209,147.6388092,72.942482,144.8825378,72.942482,141.8632202z"/>
	<path fill="#FFFFFF" d="M131.4073486,95.6242676c-0.6519012-4.9292603,0.9035187-7.6626434,5.512558-9.5382843
		c5.226593-2.127243,10.5104065-2.0814896,15.6683655,0.2401733c4.2659149,1.9213867,5.6268921,4.4832153,4.9978638,9.2294922
		c1.532547,0,3.0193329,0,4.5061188,0c0.091507,2.5618515-1.0521545,4.1401138-3.2480621,4.666214
		c-0.5603943,0.1372375-1.1550751,0.1486816-1.7383423,0.1486816c-23.9029388,0.0114365-47.8058243,0.0114365-71.7201233,0
		c-3.3624496,0-4.826355-1.292366-5.2838135-4.7462616C97.2227783,95.6242676,114.2978897,95.6242676,131.4073486,95.6242676z
		 M144.5596771,95.54422c2.6190338,0,5.2380524,0.0114288,7.8570404,0c2.5618591-0.0114365,3.7741547-2.1043701,2.2873688-4.2201843
		c-0.754837-1.075058-1.9213715-1.9899979-3.0993805-2.6190262c-3.0536041-1.6354599-6.427475-1.7612686-9.7784576-1.3495483
		c-2.6761932,0.3316727-5.3981628,1.0521851-7.1022034,3.3395462c-0.6633759,0.892067-0.8577576,2.4589081-0.6176147,3.5797272
		c0.1258087,0.5832672,1.6583405,1.1436768,2.5961456,1.2008667C139.3101501,95.6471405,141.9406433,95.54422,144.5596771,95.54422z
		"/>
	<path fill="#FFFFFF" d="M121.1714249,119.5042877c-6.0386581,0-12.0772476,0.034317-18.1159058-0.0457306
		c-0.6633148-0.0114365-1.3152161-0.6633377-1.9671249-1.0178757c0.6747818-0.3316574,1.3609772-0.9378281,2.0357666-0.9378281
		c12.0772476-0.0571823,24.1659622-0.0571823,36.2432098,0c0.6518402,0,1.2923431,0.6519089,1.9442444,1.0064392
		c-0.6747894,0.331665-1.3381042,0.9378281-2.0128784,0.9492645
		C133.2486725,119.5386047,127.2100143,119.5042877,121.1714249,119.5042877z"/>
	<path fill="#FFFFFF" d="M121.3772736,121.3341904c6.0500641,0,12.0887146-0.0228806,18.1387787,0.0457306
		c0.5946808,0.0114365,1.177948,0.6175842,1.7726898,0.9378281c-0.6061554,0.3087997-1.200882,0.892067-1.8070374,0.892067
		c-12.1687012,0.0571899-24.3260574,0.0571899-36.4947662,0c-0.6404877,0-1.269516-0.537529-1.8985443-0.8234406
		c0.6404953-0.354538,1.2923965-1.0064545,1.9328384-1.0064545
		C109.1399307,121.2998734,115.2585754,121.3341904,121.3772736,121.3341904z"/>
	<path fill="#FFFFFF" d="M121.1485443,127.1669464c-6.0500641,0-12.0887146,0.0228729-18.1387787-0.034317
		c-0.6404419-0.0114288-1.2808762-0.5260925-1.9213715-0.8005753c0.6404953-0.3545303,1.2809296-1.017868,1.9099579-1.0292969
		c12.1687622-0.0571899,24.337471-0.0571899,36.4948273,0c0.5946808,0,1.1894073,0.5947189,1.7840881,0.9149399
		c-0.5946808,0.3202362-1.1894073,0.9035034-1.7840881,0.9035034
		C133.3858795,127.1898193,127.2672424,127.1669464,121.1485443,127.1669464z"/>
	<path fill="#FFFFFF" d="M141.0485382,115.5471725c-13.2209091,0-26.4418106,0-39.7657013,0
		c0.2401962-1.8413239,1.612587-1.4296036,2.6304398-1.4410248c9.3896408-0.0343094,18.7906876-0.0228806,28.1802597-0.0228806
		c2.3331451,0,4.666214-0.0457458,6.9878693,0.0343018c0.7319641,0.0228806,1.4524994,0.4117279,2.1730347,0.6404648
		C141.1858063,115.0325089,141.1171722,115.2955627,141.0485382,115.5471725z"/>
	<path fill="#FFFFFF" d="M101.328598,129.2827606c13.2323685,0,26.4761581,0,39.7085266,0
		c0.0800476,0.1715393,0.1600952,0.354538,0.2287292,0.5260925c-0.6519012,0.2744904-1.2923431,0.7776947-1.9442444,0.7891388
		c-12.1115952,0.0457458-24.2116623,0.0457458-36.3232574,0c-0.6176147,0-1.2351761-0.5032196-1.8641968-0.7776947
		C101.2027893,129.6372986,101.2714233,129.465744,101.328598,129.2827606z"/>
</g>
<g>
	<path fill="#FFFFFF" d="M85.0638657,178.4957581c1.0282593,0,1.9813232,0,3.0471802,0
		c0.0501709,0.5015869,0.112854,1.040802,0.1755371,1.5925751c0.5392456,0.2507935,1.065918,0.4389038,1.5424194,0.7273102
		c2.2572021,1.3793945,3.486084,3.37323,3.486084,6.056778c0,6.1445312,0.0125732,12.289093,0,18.4336395
		c0,0.7398529-0.0375977,1.391922,0.84021,1.7555847c0.6018677,0.2507935,0.7022095,0.9404907,0.6144409,1.5674744
		c-0.0877686,0.6144714-0.5015869,1.1035156-1.0784302,1.1536713c-1.1912842,0.1003265-2.3951416,0.0752411-3.598938,0.0501556
		c-0.1630249,0-0.451416-0.3009644-0.451416-0.4514313c0.0375977-0.9028778-0.3260498-1.8308411,0.2382202-2.6960754
		c0.1755981-0.2758789,0.2382812-0.6771545,0.2382812-1.0157318c0.0125122-6.3075714-0.0125122-12.6026001,0.0125122-18.9101715
		c0.0125732-2.7838593-2.8214722-4.2761078-4.9658203-3.3105316c-1.3793945,0.6144714-2.0314331,1.7681274-2.194458,3.2102203
		c-0.0626831,0.5517578-0.0250854,1.1285706-0.0250854,1.6803436c0,5.6178589,0,11.2357483,0,16.8661499
		c0,0.6269989,0.1003418,1.1661987,0.4138184,1.7931976c0.338562,0.6771393,0.1755371,1.630188,0.1379395,2.4578247
		c0,0.1504822-0.4013062,0.4012909-0.6144409,0.4138184c-1.0032349,0.0501556-2.0064087,0.0501556-3.0095825,0.0125427
		c-0.8025513-0.0376282-1.2790527-0.476532-1.4796753-1.1912994c-0.2006836-0.7147827,0.0501099-1.3292236,0.6646118-1.6427155
		c0.677124-0.3636475,0.6896973-0.8903351,0.6896973-1.5047913c-0.0125732-4.7275391-0.0125732-9.4676208,0.0125122-14.1951599
		c0.0125122-1.8433685-0.0250854-3.6867371,0.1504517-5.5175476c0.2507935-2.5330658,1.7179565-4.301178,4.0253296-5.2667542
		c0.8276367-0.35112,1.1411133-0.7524109,1.0408325-1.5800323C84.9760971,178.8468628,85.026268,178.7214661,85.0638657,178.4957581
		z"/>
	<path fill="#FFFFFF" d="M88.6628036,208.3281555c0,5.2166138,0,10.4332123,0,15.6623535
		c0,0.3260193,0.0125122,0.6520691-0.0375977,0.9655762c-0.1755981,1.1160431-0.9781494,1.8057404-2.0565796,1.8182831
		c-1.0533447,0.0125275-1.855896-0.70224-2.0314331-1.8433685c-0.0501709-0.3135071-0.0375977-0.6395264-0.0375977-0.9655762
		c0-10.4332123,0-20.8789368,0-31.3121338c0-0.3636475-0.0125732-0.7273102,0.0501099-1.0784302
		c0.2131958-1.0408173,1.0283203-1.7179565,2.0314941-1.7054291c1.015686,0.0125275,1.8182373,0.6896973,2.0063477,1.7305145
		c0.0752563,0.3887329,0.0501709,0.8025513,0.0627441,1.2038422
		C88.6628036,197.9702148,88.6628036,203.1491852,88.6628036,208.3281555z"/>
	<path fill="#FFFFFF" d="M88.2740707,169.8933868c-0.0626831,0.8527069-0.112854,1.4796906-0.1504517,2.0565338
		c-1.065918,0-2.0064087,0-3.0722656,0c-0.0376587-0.5893707-0.0878296-1.2163696-0.1379395-1.981308
		c-0.4765625-0.0250854-0.9404907-0.0501404-1.40448-0.0752258c-1.3167114-0.0501556-2.6584473,0.0250854-3.9625854-0.1504822
		c-2.2572021-0.3009644-3.7620239-1.6803284-4.6146851-3.7619629c-0.4514771-1.1035156-0.4389038-1.1160431-1.6176758-1.1035156
		c-0.7774658,0.0125275-1.6176147-0.2006378-2.2320557,0.5141449c-0.0627441,0.0752258-0.225708,0.0752258-0.338623,0.0752258
		c-1.7304688,0-3.4609985,0.0501556-5.1789551-0.0250854c-1.0032349-0.0376129-1.5675049-0.7398376-1.5424194-1.6552734
		c0.0125122-0.9404907,0.5517578-1.4546356,1.6677856-1.4796906c1.6051636-0.0250854,3.2102661-0.0125427,4.8153687-0.0125427
		c0.1253662,0,0.2633057-0.0376129,0.3636475,0.0125427c1.3793945,0.7900085,2.8841553,0.3761902,4.3388062,0.4514313
		c1.1912842,0.0752411,1.3292236,0.1630249,1.5674438,1.3668518c0.5015869,2.4954376,1.7054443,3.5111694,4.2259521,3.5236969
		c3.7368774,0.0125427,7.4738159,0.0125427,11.2106934,0c2.5079956-0.0125275,3.7494507-1.0784302,4.1757812-3.5487823
		c0.1881104-1.0909729,0.3887329-1.2916107,1.4796753-1.3292389c0.727356-0.0250854,1.4420776,0.0125427,2.1694336-0.0125275
		c0.6646118-0.0125275,1.3668213,0.125412,1.9562378-0.3762054c0.1253662-0.112854,0.3887329-0.0877838,0.5768433-0.0877838
		c1.6802979,0,3.37323-0.0250854,5.0535278,0.0125275c0.953064,0.0250854,1.4797363,0.5266724,1.5549927,1.3543243
		c0.0877686,0.8526917-0.4138184,1.5800171-1.3167114,1.7179565c-0.8276367,0.1253967-1.6803589,0.0752258-2.5205078,0.1003113
		c-0.8025513,0.0125427-1.6051025,0.0125427-2.4076538,0c-0.2758789,0-0.6646118,0.0501556-0.8151245-0.1003113
		c-0.7774658-0.7774658-1.7304688-0.4138184-2.6207886-0.5141449c-0.6646118-0.0752411-0.9906616,0.1880951-1.2038574,0.8527069
		c-0.5893555,1.8182831-1.7681274,3.1600494-3.6115112,3.7494354c-0.8276367,0.2633514-1.7179565,0.3636475-2.5957642,0.4012909
		C90.8322372,169.9435272,89.6032944,169.8933868,88.2740707,169.8933868z"/>
	<path fill="#FFFFFF" d="M88.9511948,175.147583c0.0250854,1.4420776-0.9279175,2.445282-2.3323975,2.4828949
		c-1.3668213,0.0376129-2.4829102-0.9906464-2.5455933-2.3449554c-0.0501709-1.1912842,1.1661987-2.4828949,2.4076538-2.5455933
		C87.784996,172.6897736,88.9261703,173.8058319,88.9511948,175.147583z"/>
</g>
<path fill="#FFFFFF" d="M225.5166931,176.0030365c-1.8935547,0.5141449-3.8372192,1.0157318-5.567749,1.8935242
	c-1.8809814,0.9530182-2.7086182,0.2131805-3.5612793-1.3166962c-1.7556152-3.1725922-3.6491089-6.2574158-5.4047241-9.4300079
	c-1.9311523-3.5111694-4.6397705-5.0535736-8.828064-4.9908752c-15.5620117,0.2006378-31.1365967-0.0125427-46.6986084,0.112854
	c-11.586853,0.0877686-10.6087646-2.219574-17.5683594,10.1573029c-3.4609985,6.1445465-3.4986572,6.1194763-10.3830643,3.962616
	c-0.5768433-0.1755524-1.1411133-0.3887329-1.7179565-0.5517578c-2.1317749-0.6019135-3.4108276,0.4389038-3.3356323,2.4076538
	c0.0627441,1.7054291,0.4514771,4.4516754,1.4797363,4.8780212c4.9783401,2.1067047,4.5018387,5.4046936,3.711792,9.7811279
	c-0.7649536,4.2384949-0.1630249,8.7277832-0.1630249,13.116745c-0.1630249,0.0125275-0.3260498,0.0250854-0.4890747,0.0376129
	c0.614502,7.912674,1.2791214,15.8253479,1.818306,23.7380219c0.1505127,2.2446289,1.0282593,3.3105316,3.3356323,3.2478333
	c2.7211304-0.0752411,5.4423218,0.0125275,8.1634521-0.0125427c4.6021729-0.0376129,4.7526245-0.2131653,4.8780518-4.8905487
	c0.112854-4.5269012,0.112854-4.5269012,4.8278198-4.5269012c17.0793457,0,34.1586914,0,51.2380371,0
	c1.0533447,0,2.1192627,0.0376129,3.1726074,0.0125275c1.6928711-0.0501556,2.5079956,0.7147827,2.4327393,2.445282
	c-0.0501709,1.0533447,0.0626831,2.1192474,0,3.1725922c-0.1755371,2.6208344,0.8401489,3.950058,3.6491089,3.837204
	c3.1726074-0.125412,6.3452148-0.0626984,9.5177612-0.0376129c1.8057861,0.0125275,2.8716431-0.7649384,3.0597534-2.5832214
	c0.4389038-4.1632538,1.1160278-8.3264923,1.2163696-12.4897461c0.2006226-8.0004578,0.1003418-16.0134583,0.0250854-24.0264435
	c-0.0125122-1.6176453-0.0125122-3.5111847-0.7900391-4.8027954c-1.4545898-2.4076538-0.2633057-3.2352905,1.630188-3.9876709
	c2.6208496-1.0408173,4.2510376-2.8465576,4.4768066-5.7181854
	C229.8554993,176.454483,228.3883362,175.2255707,225.5166931,176.0030365z M136.3580017,184.9565277
	c3.034668-5.0535736,6.2072754-10.0068359,9.2293701-15.0729675c1.630188-2.7211456,3.7744751-3.9249878,7.0474243-3.8999023
	c15.5620117,0.125412,31.1365356,0.112854,46.7111206,0c3.2728882-0.0250854,5.4046631,1.2038422,7.0223389,3.950058
	c2.9970093,5.0661163,6.1571045,10.0444489,9.1917725,15.0980225c1.9561768,3.2603912,1.0407715,5.4046936-2.6459351,6.1069336
	c-1.3167114,0.2507935-2.7086182,0.1504669-4.0629272,0.1504669c-0.4263916,0-0.8527222,0-1.2791138,0
	c0.1630249-3.2227631-1.0533447-5.0911865-4.2258911-6.5207367c-4.2636108-1.9060669-8.6275024-1.9562225-12.9411621-0.1880951
	c-3.4234009,1.4044647-4.8153687,3.37323-4.664856,6.7213898c-3.3356323,0-6.6712646,0-9.9943237,0
	c-11.0350952,0-22.0701904,0-33.1052856-0.0125427c-1.2038574,0-2.4453125,0.0752411-3.6115112-0.1630249
	C135.2795715,190.3612213,134.3641663,188.2795868,136.3580017,184.9565277z M188.5867004,188.3924713
	c1.40448-1.8935242,3.6491089-2.4828949,5.8686523-2.7587738c2.7587891-0.35112,5.5551758-0.238266,8.0756836,1.1160431
	c0.9655762,0.5266724,1.9437256,1.2790833,2.5581665,2.1694031c0.6144409,0.8652496,0.6646118,1.7305145,0.3134766,2.3825684
	c-5.7683716,0-11.5492554,0-17.3175659,0C187.8844299,190.3863068,188.0474548,189.1197815,188.5867004,188.3924713z
	 M155.6318054,207.8794556c-0.4639282,1.1411438-2.5581055,2.4578247-3.7870483,2.3073425
	c-5.0786743-0.589386-10.1447754-1.5298767-15.1231079-2.6960754c-2.4954224-0.5768433-2.8841553-1.8182831-2.8841553-5.4046936
	c0-5.4046936,1.7179565-6.6335907,6.5709229-4.7024536c3.4985962,1.391922,7.0097656,2.7838593,10.4833374,4.2635498
	c1.2414551,0.5266724,2.7462158,1.0032043,3.4735718,1.9938354
	C155.2305603,204.8071899,156.0832825,206.7759399,155.6318054,207.8794556z M189.9410095,220.5322113
	c-4.664856-0.0376129-9.3171387-0.0125275-13.9819946-0.0125275c-4.664856-0.0125427-9.3171387-0.0376282-13.9819946,0.0125275
	c-1.9060669,0.0250854-3.2102051-0.3636475-3.1726074-2.6835327c0.0376587-2.1443329,1.3417969-2.4076691,2.9719849-2.4076691
	c9.4675903-0.0125275,18.9477539-0.0125275,28.4154053-0.0250854c1.6803589,0,2.9594116,0.4012909,2.9844971,2.4703674
	C193.2138977,220.1810913,191.821991,220.5447693,189.9410095,220.5322113z M213.4532776,207.9797821
	c-4.1130981,0.8777924-8.2763062,1.5424042-12.4144897,2.2697144c-2.1317749,0.3762054-3.9751587-0.1003113-4.8153076-2.2822723
	c-0.8527222-2.1944733,0.1504517-4.0253143,2.0690918-4.9031067c5.0410156-2.3073273,10.1322021-4.5519867,15.3488159-6.4204102
	c2.8842163-1.0282898,4.3513794,1.0282745,4.3513794,5.4423065
	C217.9801941,206.399765,217.5412903,207.1145172,213.4532776,207.9797821z"/>
<path fill="#FFFFFF" d="M37.5258789,172.2733307c0,0.2061615-0.0044022,0.4124603,0.0009041,0.6184845
	c0.0115242,0.4476776,0.0279961,0.8952179,0.0424385,1.3428192c0.4510269,0.0061646,0.90205,0.0126953,1.3530846,0.0182953
	c0.1236839,0.0015259,0.2505684,0.015686,0.3693008-0.008606c0.0387764-0.0079346,0.0960236-0.1592102,0.0776863-0.1774597
	c-0.2448082-0.243576,0.0190582-0.2584229,0.1435966-0.3023224c0.0916939-0.0323334,0.2039375-0.0063477,0.3070259-0.0063477
	c3.1750793,0,6.3501625,0.0004425,9.5252457-0.0006256c0.3437347-0.0001221,0.6493835,0.0892944,0.9266586,0.3048706
	c0.3020515,0.2348328,0.412468,0.518158,0.3781929,0.9009094c-0.0348015,0.3886261-0.005043,0.7828064-0.0085068,1.1744995
	c-0.0028534,0.3226166-0.2872505,0.6858521-0.5728302,0.8734741c-0.1420555,0.093338-0.2651482,0.0853271-0.3993835,0.0854492
	c-3.3400154,0.0030518-6.6800346,0.0022888-10.0200539,0.0027161c-0.1412544,0.0000153-0.2654305,0.0266571-0.2930946-0.1957092
	c-0.0149422-0.1201172-0.1756172-0.1915741-0.3469048-0.1811218c-0.4877853,0.0298157-0.9770813,0.0348206-1.465786,0.0495758
	c-0.0058556,0.4511566-0.0099373,0.9023438-0.0182533,1.3534546c-0.0048752,0.2645416-0.0164757,0.5289612-0.0250549,0.7934265
	c-0.2630386,0.0120544-0.5260162,0.0328064-0.7891235,0.0344849c-0.7421951,0.0047455-1.4844589,0.0040588-2.2266541-0.0006256
	c-0.1296959-0.000824-0.1897774,0.0377655-0.1767426,0.1721649c0.0059471,0.0612793,0.0010109,0.1236115,0.0010109,0.1854553
	c0,3.4430847,0.000248,6.8861847-0.00037,10.3292694c-0.0000648,0.3540649-0.039135,0.3308868,0.3269386,0.3291016
	c0.2044868-0.0010071,0.4090195,0.0071259,0.6135292,0.0111389c0.0166092,0.2199097,0.0348663,0.4397125,0.0489731,0.65979
	c0.0052681,0.0821228,0.0337105,0.1910553-0.0064774,0.2415161c-0.0685234,0.0860138-0.1772957,0.1737671-0.2797318,0.1888123
	c-0.0903893,0.0132751-0.1838341-0.2115479-0.2945595-0.0706024c-0.0617561,0.078598-0.0358887,0.2323456-0.0359268,0.3522339
	c-0.0013771,4.309021-0.0011559,8.618042-0.0011559,12.9270477c0,0.0618591,0.0077782,0.1248932-0.0014305,0.1853333
	c-0.0299797,0.1967773,0.0630112,0.2327118,0.2420158,0.2338257c0.3739281,0.0022888,0.3738518,0.0138245,0.3781128,0.3335266
	c0.0100021,0.7508545,0.0101166,0.7580261-0.7562752,0.769989c-0.1881294,0.0029449-0.2384186,0.0543823-0.2376633,0.2406311
	c0.0068626,1.6905975,0.0040207,3.3812256,0.0040207,5.0718384c0,2.0204926-0.0022392,4.0410004,0.0045662,6.0614624
	c0.0005074,0.1495819-0.133297,0.3947296,0.1953354,0.4109344c0.0193939,0.0009613,0.0348587,0.1417236,0.047081,0.2182465
	c0.0691948,0.4332275-0.1404686,0.8921204,0.1204147,1.3078308c-0.2910461,0.2339935-0.0129395,0.3521118,0.1137581,0.469574
	c0.3393211,0.3145599,0.5942421,0.673233,0.7641602,1.1087341c0.113781,0.2916107,0.1985016,0.5832977,0.2379913,0.8904114
	c0.0104294,0.081131-0.000267,0.1647949,0.0018768,0.2472076c0.0132866,0.5096893,0.0274734,1.0193634,0.0413589,1.5290375
	c0.5126419,0.0067444,1.0252724,0.0171967,1.5379372,0.0193481c0.7834473,0.0032959,1.5669785,0.0061188,2.350338-0.0028381
	c0.1949387-0.0022125,0.3038521,0.0045319,0.2848854,0.2581482c-0.0291328,0.3895569-0.013401,0.78302-0.004715,1.1745453
	c0.0032806,0.1479492-0.0733604,0.2581329-0.115284,0.3855286c-0.1992569,0.6055603-0.608429,0.8111572-1.2200623,0.7910004
	c-0.8443947-0.0278473-1.6903992-0.0082245-2.5357094-0.0063782c-0.3349075,0.0007324-0.3375435,0.00383-0.3384933,0.3151093
	c-0.0018883,0.618515,0.0019608,1.2370453-0.0016441,1.855545c-0.0017471,0.2987671-0.0021553,0.3154297-0.3630486,0.4192963
	c-0.1507454,0.043396-0.1299171,0.1252899-0.1300735,0.2203522c-0.0013123,0.8040771-0.0162735,1.6085205,0.0030251,2.4121246
	c0.0263176,1.0959625-0.7218285,2.1108856-1.9225311,2.4197235c-0.741375,0.1906738-1.4747581-0.0431061-2.0959358-0.5715179
	c-0.6944866-0.5907745-0.9120846-1.3574524-0.9324245-2.2145233c-0.0132046-0.5563507-0.0038967-1.1132812-0.0015068-1.6699371
	c0.0006084-0.1413879-0.0145416-0.2923431,0.0298405-0.4208374c0.0317802-0.0920105,0.1518307-0.1464539-0.0458393-0.1691589
	c-0.3534317-0.0405731-0.3550663-0.0449829-0.3557606-0.3588715c-0.001461-0.6597595-0.0144176-1.3199615,0.0069256-1.9790192
	c0.0077629-0.2397308-0.0740871-0.2659912-0.2798271-0.2635956c-0.92766,0.0107574-1.855526,0.007431-2.7832928,0.0037842
	c-0.6627216-0.002594-1.1467934-0.4947662-1.150938-1.1637726c-0.0025558-0.412323,0.0079727-0.8249359-0.0044899-1.236908
	c-0.0052299-0.172821,0.06464-0.2000885,0.2145653-0.1995239c1.23703,0.0045776,2.4740829,0.0036469,3.7111263,0.0018005
	c0.2813568-0.0004272,0.2837887-0.0050354,0.2849445-0.3066406c0.0019703-0.5154266,0.0057106-1.0309143-0.0008316-1.5462646
	c-0.0073071-0.5756683,0.2130184-1.0658875,0.5723057-1.4935913c0.195652-0.2329102,0.2763615-0.5876617,0.6442966-0.6520691
	c-0.1728134-0.180191,0.1639156-0.3735199-0.0142784-0.5535736l-0.0284805-0.6410522
	c0.0929298-0.0854645,0.0794716-0.1613617,0.0036221-0.2587738c-0.0375938-0.0482635-0.0534801-0.183609-0.0278511-0.2001953
	c0.2829819-0.1829987,0.2119884-0.4629669,0.2120781-0.7211151c0.0012245-3.5049438-0.0005245-7.0098877,0.0039845-10.5148163
	c0.000288-0.2234497,0.0459919-0.4468384,0.0705662-0.6702576c-0.2251549-0.003952-0.450388-0.0055847-0.6754227-0.0131226
	c-0.0783577-0.0026398-0.1664906-0.0009308-0.2312832-0.0360413c-0.0586605-0.0317841-0.0916157-0.1110229-0.1359043-0.169342
	c0.2906017-0.1551514-0.1227703-0.4309387,0.1023598-0.5973053c-0.2200871-0.2031097-0.0193462-0.2632446,0.1209335-0.3030853
	c0.1144733-0.0325165,0.2482738,0.008316,0.3679428-0.0136719c0.0507221-0.0093079,0.1080418-0.0897827,0.1260624-0.1489716
	c0.0449333-0.147583-0.1576653-0.2687988-0.0122833-0.4650421c0.0887527-0.119812,0.0163879-0.3589783,0.0163879-0.5445251
	c0-3.937912,0-7.8758087,0-11.8137207c0-0.1030884,0.0018425-0.2062073-0.0003242-0.3092499
	c-0.0087357-0.4159546-0.0726395-0.4587708-0.5010853-0.3857422c-0.0650005,0.0110931-0.2111721-0.0808258-0.2071838-0.0965424
	c0.0355568-0.1403046,0.1829433-0.2882385,0.0559444-0.4189453c-0.1682281-0.1731415,0.1293068-0.2663574,0.041338-0.4142456
	c-0.0045643-0.0076752,0.0958958-0.1112976,0.1513271-0.1152039c0.2051582-0.0144196,0.4157982,0.0166626,0.616045-0.0177917
	c0.0709591-0.012207,0.2835388-0.0585022,0.1284637-0.2845612c-0.0875149-0.1275787-0.0360031-0.3549652-0.0360813-0.5373993
	c-0.0013332-3.195694-0.0009632-6.3913727-0.0009632-9.5870514c0-0.1443176-0.0059509-0.2889557,0.0016727-0.4328766
	c0.0076504-0.144455-0.0678787-0.1614532-0.1884003-0.1609344c-0.8865356,0.00383-1.7731228-0.0019073-2.6596088,0.0055084
	c-0.1718731,0.0014343-0.2578201-0.0189514-0.2521229-0.225647c0.0147686-0.5356445,0.0092926-1.0720062,0.0032806-1.6080017
	c-0.0034389-0.3065338-0.0877018-0.3907928-0.390358-0.3955078c-0.4122486-0.0064087-0.825079,0.009201-1.2368469-0.0062408
	c-0.1995106-0.0074921-0.2441387,0.069046-0.2351017,0.2472076c0.0020466,0.0402985-0.089922,0.1109772-0.1478825,0.1230011
	c-0.0988331,0.0205078-0.2050018,0.005661-0.3080883,0.005661c-3.2369347,0-6.4738712-0.0024109-9.7107925,0.0038452
	c-0.3132973,0.0005951-0.5777626-0.0622711-0.8143415-0.2822876c-0.264184-0.2456665-0.3688669-0.5515594-0.3911924-0.8903198
	c-0.01894-0.2873993,0.0110703-0.5779572-0.0068989-0.8654785c-0.0427437-0.6839142,0.5443268-1.3179169,1.3218327-1.3138275
	c3.2162247,0.016922,6.4325924,0.0070953,9.6489086,0.0070953c0.0824699,0,0.1654205,0.0056763,0.2473011-0.0012817
	c0.1351452-0.0114594,0.1628094,0.0508881,0.1736088,0.177475c0.026926,0.3155975,0.0362206,0.316925,0.33181,0.3182678
	c0.4329567,0.0019531,0.8663597-0.01091,1.298708,0.0054321c0.208807,0.0078888,0.226944-0.0831757,0.2243576-0.2533722
	c-0.00877-0.5770111-0.0033474-1.1542358-0.0033474-1.7313843
	C31.3388748,172.2733307,34.4323769,172.2733307,37.5258789,172.2733307z"/>
</svg>
