<?xml version="1.0" encoding="utf-8"?>
<!-- Generator: Adobe Illustrator 25.4.1, SVG Export Plug-In . SVG Version: 6.00 Build 0)  -->
<svg version="1.1" id="Layer_1" xmlns="http://www.w3.org/2000/svg" xmlns:xlink="http://www.w3.org/1999/xlink" x="0px" y="0px"
	 viewBox="0 0 350 250" enable-background="new 0 0 350 250" xml:space="preserve">
<path fill="#FFFFFF" d="M244.6172485,90.0501022c0-21.253746,0-39.07864,0-61.3726044
	c-29.1388245,21.4078503-54.8744659,40.3114929-84.8737183,62.3614578c0-22.2811203,0-39.7977982,0-61.5138702
	c-29.2287292,21.6518555-54.4892197,40.3500137-81.9071884,60.6662827
	C77.399704,69.3100433,77.399704,78.2995453,77.399704,64.1731873c-18.1459503,0-35.6754761,0-52.6527863,0
	c0,60.6534424,0,96.226181,0,157.1493073c100.5283051,0,199.823761,0,300.5061646,0c0-63.350296,0-125.6732101,0-190.8599243
	C298.1561584,50.4834633,272.8699646,69.1687851,244.6172485,90.0501022z M107.3604279,209.1481476
	c-16.5792084,0-31.193573,0-47.3489876,0c0-12.2642517,0-23.180069,0-36.2148285c14.9610939,0,30.1533546,0,47.3489876,0
	C107.3604279,183.9904022,107.3604279,195.4070587,107.3604279,209.1481476z M107.4631653,156.6879883
	c-14.7556229,0-30.0120926,0-47.1820412,0c0-11.8147736,0-23.9634399,0-37.4605331c15.8600502,0,30.6028252,0,47.1820412,0
	C107.4631653,131.3247528,107.4631653,142.9597321,107.4631653,156.6879883z M170.7107239,209.443512
	c-14.7556305,0-30.0121002,0-47.1820374,0c0-11.8147583,0-23.9634399,0-37.4605255c15.8600464,0,30.602829,0,47.1820374,0
	C170.7107239,184.0802765,170.7107239,195.7152557,170.7107239,209.443512z M170.7107239,156.7907257
	c-14.7556305,0-30.0121002,0-47.1820374,0c0-11.8147583,0-23.9634399,0-37.4605255c15.8600464,0,30.602829,0,47.1820374,0
	C170.7107239,131.4274902,170.7107239,143.0624695,170.7107239,156.7907257z M234.9214478,209.443512
	c-14.7556305,0-30.012085,0-47.1820374,0c0-11.8147583,0-23.9634399,0-37.4605255c15.8600464,0,30.602829,0,47.1820374,0
	C234.9214478,184.0802765,234.9214478,195.7152557,234.9214478,209.443512z M234.9214478,156.7907257
	c-14.7556305,0-30.012085,0-47.1820374,0c0-11.8147583,0-23.9634399,0-37.4605255c15.8600464,0,30.602829,0,47.1820374,0
	C234.9214478,131.4274902,234.9214478,143.0624695,234.9214478,156.7907257z M299.1321716,209.443512
	c-14.7556458,0-30.012085,0-47.1820526,0c0-11.8147583,0-23.9634399,0-37.4605255c15.8600616,0,30.602829,0,47.1820526,0
	C299.1321716,184.0802765,299.1321716,195.7152557,299.1321716,209.443512z M299.1321716,156.7907257
	c-14.7556458,0-30.012085,0-47.1820526,0c0-11.8147583,0-23.9634399,0-37.4605255c15.8600616,0,30.602829,0,47.1820526,0
	C299.1321716,131.4274902,299.1321716,143.0624695,299.1321716,156.7907257z"/>
</svg>
