<?xml version="1.0" encoding="utf-8"?>
<!-- Generator: Adobe Illustrator 26.0.0, SVG Export Plug-In . SVG Version: 6.00 Build 0)  -->
<svg version="1.1" id="Layer_1" xmlns="http://www.w3.org/2000/svg" xmlns:xlink="http://www.w3.org/1999/xlink" x="0px" y="0px"
	 viewBox="0 0 250 250" enable-background="new 0 0 250 250" xml:space="preserve">
<g>
	<path fill="#FFFFFF" d="M104.802063,112.9840927c-6.3787003-0.1141281-12.7596436-0.0776215-19.5656281-0.0776215
		c0,7.5079651-0.0387344,14.5982895,0.0733261,21.6856461c0.0089188,0.568222,1.0490341,1.5879669,1.6229095,1.5998077
		c5.8201294,0.1198273,11.643158,0.0535889,17.4650269,0.0898438c1.233696,0.0077209,1.7622375-0.4722443,1.7532501-1.9236908
		c-0.0404739-6.5490341,0.0171127-13.0992432-0.0760193-19.6469269
		C106.0662231,114.1021423,105.2536469,112.9921646,104.802063,112.9840927z"/>
	<path fill="#FFFFFF" d="M156.0345306,113.1000137c-5.8938293-0.0872879-11.7896729-0.0943832-17.6829987,0.0122375
		c-0.5262909,0.0094986-1.4837799,0.9552994-1.4910431,1.4794312c-0.0996552,7.1619949-0.0671539,14.3263168-0.0671539,21.6685562
		c7.0092926,0,13.7518005,0,20.7615356,0c0-7.4318542,0.0263367-14.6808472-0.0649872-21.927887
		C157.484375,113.8953018,156.5460205,113.1075974,156.0345306,113.1000137z"/>
	<path fill="#FFFFFF" d="M156.0345306,163.0755157c-5.8938293-0.0872803-11.7896729-0.0943909-17.6829987,0.0122375
		c-0.5262909,0.0095062-1.4837799,0.955307-1.4910431,1.4794312c-0.0996552,7.1620026-0.0671539,14.3263245-0.0671539,21.6685638
		c7.0092926,0,13.7518005,0,20.7615356,0c0-7.4318542,0.0263367-14.6808472-0.0649872-21.927887
		C157.484375,163.8708038,156.5460205,163.0830994,156.0345306,163.0755157z"/>
	<path fill="#FFFFFF" d="M104.802063,163.1177368c-6.3787003-0.1141357-12.7596436-0.0776215-19.5656281-0.0776215
		c0,7.5079651-0.0387344,14.5982819,0.0733261,21.6856384c0.0089188,0.568222,1.0490341,1.5879822,1.6229095,1.5998077
		c5.8201294,0.1198273,11.643158,0.0535889,17.4650269,0.089859c1.233696,0.0077057,1.7622375-0.4722443,1.7532501-1.9237061
		c-0.0404739-6.5490265,0.0171127-13.0992432-0.0760193-19.6469269
		C106.0662231,164.2357788,105.2536469,163.1258087,104.802063,163.1177368z"/>
	<path fill="#FFFFFF" d="M53.0479507,163.0787048c-5.8944016-0.0897064-11.7906876-0.09758-17.6845818,0.0066376
		c-0.5308647,0.0093384-1.4976463,0.9413147-1.5048256,1.4582367c-0.1001663,7.1605225-0.0677452,14.3233795-0.0677452,21.6803436
		c7.0034904,0,13.7504349,0,20.7700272,0c0-7.3865814,0.0264053-14.6417389-0.0647697-21.8950195
		C54.4904709,163.8856964,53.5571251,163.086441,53.0479507,163.0787048z"/>
	<path fill="#FFFFFF" d="M53.0479507,112.9450607c-5.8944016-0.0896988-11.7906876-0.0975723-17.6845818,0.0066452
		c-0.5308647,0.0093384-1.4976463,0.9413147-1.5048256,1.4582291c-0.1001663,7.1605225-0.0677452,14.3233719-0.0677452,21.680336
		c7.0034904,0,13.7504349,0,20.7700272,0c0-7.3865662,0.0264053-14.6417313-0.0647697-21.8950119
		C54.4904709,113.7520523,53.5571251,112.9528046,53.0479507,112.9450607z"/>
	<path fill="#FFFFFF" d="M239.293457,217.049118c-0.0427856-0.3782349-0.0536499-0.76091-0.0254517-1.1408844
		c-0.0142822-0.3704529-0.0057983-0.7416534,0.0467529-1.108017c-0.0406494-0.3860626-0.0524902-0.7754517-0.0252075-1.1642609
		c-0.0302734-0.2814178-0.0407715-0.5646515-0.0318604-0.8479309c-0.1288452-0.6118622-0.1361694-1.2188873-0.027832-1.8003235
		c-0.0011597-0.007843-0.0023193-0.0157471-0.003479-0.0235748c-0.0799561-0.5400696-0.0930176-1.0768585-0.0548096-1.60112
		c-0.0859985-0.5616302-0.1115112-1.1156769-0.0390015-1.6434479V30.0529213
		c-3.520752,2.081295-6.7041626,3.963192-9.9725952,5.8953781c-0.0853882,0.0896645-0.1785889,0.1735001-0.2770386,0.2531319
		c-0.0906982,0.0853386-0.1870117,0.1679192-0.2907715,0.246357c-3.368103,2.54636-6.9352417,4.6731758-10.7542114,6.2077637
		c-0.3597412,0.4414291-0.8430786,0.7698669-1.4529419,0.9048653c-0.0546875,0.0516663-0.1089478,0.1055298-0.1668091,0.1416473
		c-10.0123901,6.2537231-20.107666,12.3676834-30.822937,18.8905907c-0.2056274,0.2288666-0.4467163,0.4231186-0.725708,0.5690918
		c-0.3565674,0.3945236-0.793335,0.7193871-1.2832642,0.9470024c-2.871521,1.3338699-5.5462036,3.2173386-8.203064,5.0093842
		c-0.2990112,0.2016525-0.5947266,0.3321381-0.8840942,0.4092026c-0.1643677,0.1470337-0.352417,0.2674255-0.5545044,0.369194
		c-0.34198,0.2376404-0.7496948,0.396965-1.2243652,0.4465637c-2.0787354,1.4441757-4.3414307,2.7344055-6.996582,4.390892V30
		c-24.6651611,14.9859009-48.8363647,29.671772-73.6864014,44.7700348V30.1175671
		c-1.3189697,0.7414608-2.1204834,1.161005-2.8967896,1.632906C63.4971313,47.2176819,38.0734863,62.7263374,12.5855103,78.0998077
		c-2.3181152,1.3982086-3.1675415,2.9050827-3.1600342,5.906662c0.0997314,39.8883743,0.0665894,79.7771912,0.0665894,119.6658783
		v4.7044678H9.4797974c0.048584,0.4284515,0.0526733,0.8623505,0.0101929,1.2916107
		c0.0429077,0.2394104,0.0744019,0.4804993,0.0744019,0.7255402V218h229.703064
		C239.2444458,217.6826019,239.2617798,217.3651276,239.293457,217.049118z M61.807373,194.4774323H26.6392822
		c-0.0772095-0.6672211-0.2266235-1.3614044-0.227478-2.0557861c-0.0146484-11.7091064-0.0004272-23.4183502-0.0234985-35.1274109
		c-0.0030518-1.5236816,0.032959-2.6330109,1.8895264-2.6195374c10.7363281,0.0776978,21.4732666,0.0406952,32.2098999,0.0570068
		c0.3917847,0.0005646,0.7833252,0.1516113,1.3196411,0.2624054V194.4774323z M61.807373,144.3437958H26.6392822
		c-0.0772095-0.6672211-0.2266235-1.3614044-0.227478-2.0557709c-0.0146484-11.7091217-0.0004272-23.4183655-0.0234985-35.1274185
		c-0.0030518-1.5236816,0.032959-2.6330185,1.8895264-2.6195374c10.7363281,0.0776901,21.4732666,0.0406952,32.2098999,0.0569992
		c0.3917847,0.0005646,0.7833252,0.1516113,1.3196411,0.2624054V144.3437958z M113.3740845,194.4796143H77.9719238
		c-0.0449829-0.930069-0.1182251-1.7438812-0.1187744-2.5578308c-0.0075073-11.4208679,0.0429077-22.8422394-0.0463257-34.2621765
		c-0.0175781-2.248642,0.5049438-3.0132446,2.5921021-2.9900513c10.1516724,0.1130524,20.3048706,0.0479126,30.4575195,0.0571289
		c0.7954712,0.0007477,1.5908813,0.0881042,2.5176392,0.1430206V194.4796143z M113.3740845,144.345932H77.9719238
		c-0.0449829-0.9300079-0.1182251-1.7438354-0.1187744-2.557785c-0.0075073-11.4208679,0.0429077-22.8422394-0.0463257-34.2622375
		c-0.0175781-2.2485809,0.5049438-3.0131836,2.5921021-2.9899826c10.1516724,0.1130524,20.3048706,0.047905,30.4575195,0.0571213
		c0.7954712,0.0007553,1.5908813,0.0880966,2.5176392,0.1430283V144.345932z M164.9453735,193.0852966
		c-0.0004272,0.4363556-0.1175537,0.8725128-0.2025146,1.4634247h-35.34552c0-3.0114899-0.0001221-5.8540649,0-8.6966248
		c0.0002441-9.4960175,0.0449829-18.9924927-0.034668-28.4876251c-0.0169678-2.0271301,0.4871216-2.7141571,2.3515625-2.6979218
		c10.3259277,0.089798,20.652771,0.0579987,30.979187,0.0244598c1.3917236-0.0045166,2.3097534,0.1138,2.2982788,2.1624298
		C164.9238281,168.9303741,164.9572754,181.0079956,164.9453735,193.0852966z M164.9453735,143.1098022
		c-0.0004272,0.4363556-0.1175537,0.8725128-0.2025146,1.4633636h-35.34552c0-3.0114288-0.0001221-5.8540039,0-8.6965637
		c0.0002441-9.4960251,0.0449829-18.9924927-0.034668-28.4876328c-0.0169678-2.0271225,0.4871216-2.7141571,2.3515625-2.6979141
		c10.3259277,0.0897903,20.652771,0.0579376,30.979187,0.0244522c1.3917236-0.0045166,2.3097534,0.1138077,2.2982788,2.1624298
		C164.9238281,118.9548721,164.9572754,131.0324249,164.9453735,143.1098022z M216.399231,194.6264038h-35.1680908
		c-0.0772095-0.6672211-0.2266235-1.3613281-0.227478-2.0557709c-0.0146484-11.7091217-0.0004272-23.4182892-0.0234985-35.1274109
		c-0.0030518-1.5236816,0.0328979-2.6330109,1.8894653-2.6195374c10.7363281,0.0777588,21.4732666,0.0406952,32.2099609,0.0569916
		c0.3917847,0.0005646,0.7833252,0.1516266,1.3196411,0.2624817V194.6264038z M216.399231,144.4927673h-35.1680908
		c-0.0772095-0.6672058-0.2266235-1.3613892-0.227478-2.0557709c-0.0146484-11.7091064-0.0004272-23.4182968-0.0234985-35.1274109
		c-0.0030518-1.5236816,0.0328979-2.6330185,1.8894653-2.6195374c10.7363281,0.0777512,21.4732666,0.0406952,32.2099609,0.0569992
		c0.3917847,0.0005646,0.7833252,0.151619,1.3196411,0.2624741V144.4927673z"/>
	<path fill="#FFFFFF" d="M207.639801,113.0940552c-5.8943939-0.0896912-11.7906952-0.0975647-17.6846466,0.0066528
		c-0.5307922,0.0093384-1.4976501,0.9413147-1.5047607,1.4582214c-0.100235,7.1605301-0.067749,14.3233795-0.067749,21.6803436
		c7.003418,0,13.7503662,0,20.7700348,0c0-7.3865814,0.0263977-14.6417313-0.0648499-21.8950119
		C209.0823212,113.9010544,208.1489716,113.1018066,207.639801,113.0940552z"/>
	<path fill="#FFFFFF" d="M207.639801,163.2276917c-5.8943939-0.0896912-11.7906952-0.0975647-17.6846466,0.0066528
		c-0.5307922,0.0093384-1.4976501,0.9413147-1.5047607,1.4582214c-0.100235,7.1605377-0.067749,14.3233795-0.067749,21.6803436
		c7.003418,0,13.7503662,0,20.7700348,0c0-7.3865662,0.0263977-14.6417236-0.0648499-21.8950043
		C209.0823212,164.0346985,208.1489716,163.2354431,207.639801,163.2276917z"/>
</g>
</svg>
