<svg viewBox="0 0 250 250" xmlns="http://www.w3.org/2000/svg">
<path fill="#FFFFFF" d="M221.26,100.28c-26.16,0-51.91,0-77.88,0c-1.9-6.56-3.78-13.04-5.65-19.51 c-3.18-11.03-6.38-22.05-9.49-33.1c-0.29-1.04-0.29-2.3-0.01-3.33c2.35-8.49,4.81-16.95,7.23-25.42c0.32-1.14,0.57-2.08,2.2-2.07 c10.78,0.08,21.57,0.05,32.36,0.07c0.25,0,0.49,0.12,0.9,0.23c-6.61,23.03-13.2,46.01-19.94,69.49c1.37,0,2.39,0,3.41,0 c23.8,0,47.6,0,71.4,0.01c6.58,0,8.86,2.3,8.86,8.81c-0.01,43.06,0,86.12-0.01,129.19c0,6.03-2.34,8.35-8.43,8.35 c-68.1,0.01-136.2,0.01-204.31,0c-4.91,0-7.52-2.64-7.52-7.64c-0.01-43.6-0.01-87.19,0-130.79c0-5.3,2.54-7.9,7.86-7.91 c16.76-0.03,33.52-0.02,50.27-0.02c7.58,0,15.15,0.01,22.73,0c0.79,0,1.57-0.08,2.8-0.15c-6.67-23.26-13.27-46.29-19.92-69.49 c11.79,0,23.26,0,34.91,0c2.57,8.94,5.11,17.82,7.67,26.69c5.71,19.84,11.45,39.67,17.1,59.53c0.55,1.93,1.29,2.87,3.42,2.65 c1.94-0.2,3.92-0.06,5.88-0.05c4.57,0.03,7.73,2.73,7.8,6.68c0.07,4.05-3.08,6.91-7.82,6.92c-11.94,0.04-23.89,0.02-35.83,0.02 c-3.12,0-6.24,0.04-9.36,0c-4.59-0.06-7.71-2.77-7.77-6.72c-0.06-3.94,2.93-6.66,7.58-6.9c0.52-0.03,1.03-0.11,1.8-0.19 c-0.53-1.85-1.01-3.53-1.51-5.27c-24.65,0-49.14,0-73.95,0c-0.06,0.98-0.18,1.92-0.18,2.85c-0.01,37.89,0.02,75.78-0.05,113.67 c0,2.37,0.89,2.75,2.97,2.74c54.11-0.05,108.21-0.04,162.32-0.04c8.38,0,16.76-0.07,25.14,0.05c2.26,0.03,3.07-0.47,3.07-2.93 c-0.08-37.8-0.05-75.61-0.05-113.41C221.26,102.4,221.26,101.53,221.26,100.28z" />
<path fill="#FFFFFF" d="M160.08,195.43c-12.02,0-24.05,0.01-36.07-0.01c-4.49-0.01-7.45-2.63-7.54-6.56 c-0.1-4.25,2.81-7.02,7.61-7.04c11.13-0.05,22.27-0.02,33.4-0.02c12.83,0,25.65,0,38.48,0.02c4.42,0.01,7.27,2.17,7.75,5.76 c0.61,4.54-2.52,7.83-7.55,7.84C184.13,195.45,172.1,195.43,160.08,195.43z" />
<path fill="#FFFFFF" d="M159.95,154.92c-12.2,0-24.4,0.02-36.6-0.02c-3.39-0.01-6.03-2.04-6.76-4.98 c-0.73-2.94,0.55-6.18,3.23-7.52c1.14-0.57,2.55-0.86,3.83-0.86c24.31-0.05,48.62-0.04,72.93-0.02c4.27,0,7.13,2.68,7.16,6.58 c0.04,4.06-2.77,6.8-7.2,6.81C184.35,154.95,172.15,154.92,159.95,154.92z" />
<path fill="#FFFFFF" d="M160.01,175.17c-12.2,0-24.4,0-36.6,0c-3.08,0-5.27-1.45-6.49-4.25c-1.07-2.46-0.58-5.8,1.63-7.28 c1.65-1.11,3.89-1.87,5.87-1.88c18.26-0.14,36.51-0.08,54.77-0.07c5.43,0,10.87,0,16.3,0.01c5.37,0.01,8.38,2.49,8.29,6.82 c-0.08,4.23-3.09,6.67-8.23,6.67c-11.84,0-23.69,0-35.53,0C160.01,175.18,160.01,175.18,160.01,175.17z" />
<path fill="#FFFFFF" d="M99.56,189.21c-0.22,0.16-0.41,0.1-0.67-0.08c-2.22-1.54-4.7-2.54-7.18-3.57 c-2.56-1.07-5.2-1.95-7.57-3.41c-1.38-0.85-2.65-1.89-3.23-3.46c-0.27-0.73-0.23-1.57-0.33-2.36c1.76-0.27,3.38-0.48,4.99-0.77 c2.07-0.38,4.12-0.89,6-1.87c0.71-0.37,1.43-0.77,1.78-1.56c0.15-0.33,0.16-0.59-0.1-0.92c-0.95-1.21-1.21-2.68-1.39-4.16 c-0.57-4.6-0.24-9.23-0.36-13.85c-0.09-3.66-0.26-7.31-0.95-10.91c-0.48-2.51-1.23-4.9-2.67-7.04c-1.61-2.4-3.86-3.76-6.7-4.17 c-0.59-0.09-1.2-0.13-1.8-0.14c-0.44-0.01-0.81-0.11-1.2-0.36c-1.93-1.25-4.07-1.71-6.35-1.55c-2.04,0.14-4.03,0.54-5.94,1.25 c-2.08,0.77-3.99,1.88-5.6,3.43c-2.09,2.02-3.55,4.43-4.44,7.18c-0.46,1.41-0.9,2.83-1.19,4.28c-0.7,3.5-0.93,7.06-1.04,10.62 c-0.09,2.9-0.16,5.81-0.32,8.71c-0.11,2.03-0.29,4.06-1.19,5.94c-0.13,0.27-0.27,0.55-0.46,0.77c-0.36,0.4-0.29,0.79-0.02,1.18 c0.57,0.83,1.43,1.26,2.31,1.63c2.85,1.21,5.86,1.74,8.91,2.09c0.09,0.01,0.19,0.02,0.28,0.04c0.2,0.04,0.4,0.09,0.63,0.15 c0.13,1.61-0.23,3.03-1.4,4.21c-1.35,1.36-2.97,2.28-4.69,3.03c-2.65,1.15-5.35,2.18-7.98,3.36c-1.47,0.66-2.85,1.51-4.25,2.3 c-0.1,0.26-0.32,0.47-0.66,0.51c-1.06,0.12-2.34,0.73-2.66,1.83c0.19,0.18,0.38,0.36,0.57,0.53c2.6,2.39,5.4,4.51,8.55,6.12 c2.1,1.07,4.24,2.08,6.44,2.91c3.03,1.15,6.19,1.85,9.42,2.18c0.82,0.08,1.64,0.21,2.46,0.31h5.21c0.84-0.11,1.68-0.19,2.51-0.33 c1.74-0.29,3.5-0.54,5.22-0.93c3.05-0.68,5.96-1.78,8.76-3.16c3.27-1.61,6.3-3.59,9.08-5.96c0.6-0.51,1.18-1.03,1.75-1.57 C101.26,190.81,100.41,190.01,99.56,189.21z" />
</svg>
