<?xml version="1.0" encoding="utf-8"?>
<!-- Generator: Adobe Illustrator 25.4.1, SVG Export Plug-In . SVG Version: 6.00 Build 0)  -->
<svg version="1.1" id="Layer_1" xmlns="http://www.w3.org/2000/svg" xmlns:xlink="http://www.w3.org/1999/xlink" x="0px" y="0px"
	 viewBox="0 0 250 250" enable-background="new 0 0 250 250" xml:space="preserve">
<g>
	<g>
		<path fill="#FFFFFF" d="M133.85,183.11c0.47,0.3,0.78,0.53,1.12,0.73c17.9,10.34,35.81,20.68,53.73,30.99
			c0.65,0.38,1.49,0.61,2.25,0.61c13.26,0.03,26.51,0.02,39.77,0.01c0.75,0,1.52-0.06,2.24-0.24c2.27-0.56,3.46-2.5,2.91-4.78
			c-0.24-0.98-0.66-1.93-1.08-2.86c-7.73-17.04-15.48-34.08-23.21-51.12c-1.31-2.89-1.31-2.91-4.46-2.36
			c-20.27,3.57-40.54,7.13-60.8,10.74c-0.62,0.11-1.33,0.57-1.69,1.09c-2.3,3.32-4.58,6.67-6.75,10.08
			C136.43,178.29,135.2,180.7,133.85,183.11z M160.63,215.47c0.02-0.1,0.05-0.2,0.07-0.3c-0.37-0.23-0.73-0.47-1.11-0.69
			c-12.75-7.36-25.5-14.71-38.25-22.06c-9.94-5.74-19.86-11.49-29.82-17.2c-0.55-0.32-1.35-0.45-1.98-0.35
			c-4.74,0.78-9.46,1.64-14.18,2.47c-16.77,2.95-33.54,5.91-50.31,8.84c-0.9,0.16-1.35,0.58-1.71,1.39
			c-2.01,4.51-4.07,8.99-6.11,13.49c-1.25,2.75-2.56,5.48-3.71,8.28c-1.31,3.2,0.12,5.57,3.53,6.05c0.48,0.07,0.98,0.07,1.46,0.07
			c44.18,0,88.36,0,132.55,0C154.26,215.47,157.44,215.47,160.63,215.47z M75.8,166.42c0.01-0.1,0.01-0.2,0.02-0.3
			c-11.25-6.49-22.5-12.99-33.83-19.53c-4.27,9.39-8.45,18.59-12.75,28.05C44.96,171.86,60.38,169.14,75.8,166.42z M54.52,137.28
			c0.36,0.28,0.46,0.37,0.57,0.44c14.05,8.12,28.1,16.23,42.15,24.33c0.33,0.19,0.76,0.39,1.11,0.34c1.53-0.2,3.05-0.49,4.75-0.78
			c-0.38-0.52-0.61-0.9-0.9-1.22c-6.77-7.54-13.54-15.09-20.35-22.59c-0.35-0.38-1.08-0.59-1.64-0.59
			c-8.14-0.04-16.28-0.03-24.42-0.02C55.47,137.19,55.13,137.23,54.52,137.28z M156.02,151.96c0.04,0.1,0.07,0.2,0.11,0.3
			c16.47-2.91,32.93-5.82,49.64-8.77c-2.51-3.92-5.71-6.23-10.17-6.28c-8.31-0.09-16.63-0.04-24.94,0.01c-0.57,0-1.27,0.37-1.68,0.8
			c-2.83,2.95-5.61,5.95-8.39,8.95C159.06,148.62,157.54,150.3,156.02,151.96z"/>
		<path fill="#FFFFFF" d="M133.85,183.11c1.36-2.41,2.59-4.82,4.03-7.1c2.16-3.42,4.44-6.76,6.75-10.08
			c0.36-0.51,1.07-0.98,1.69-1.09c20.26-3.61,40.53-7.18,60.8-10.74c3.15-0.55,3.15-0.53,4.46,2.36
			c7.74,17.04,15.48,34.08,23.21,51.12c0.42,0.93,0.84,1.88,1.08,2.86c0.56,2.27-0.64,4.21-2.91,4.78c-0.72,0.18-1.5,0.24-2.24,0.24
			c-13.26,0.02-26.51,0.03-39.77-0.01c-0.75,0-1.59-0.24-2.25-0.61c-17.92-10.31-35.83-20.65-53.73-30.99
			C134.63,183.64,134.31,183.41,133.85,183.11z"/>
		<path fill="#FFFFFF" d="M160.63,215.47c-3.19,0-6.38,0-9.57,0c-44.18,0-88.36,0-132.55,0c-0.49,0-0.98-0.01-1.46-0.07
			c-3.42-0.48-4.85-2.85-3.53-6.05c1.15-2.8,2.46-5.52,3.71-8.28c2.04-4.5,4.1-8.98,6.11-13.49c0.36-0.81,0.81-1.23,1.71-1.39
			c16.77-2.93,33.54-5.89,50.31-8.84c4.73-0.83,9.45-1.69,14.18-2.47c0.63-0.1,1.43,0.03,1.98,0.35
			c9.95,5.71,19.88,11.46,29.82,17.2c12.75,7.36,25.5,14.71,38.25,22.06c0.38,0.22,0.74,0.46,1.11,0.69
			C160.68,215.27,160.66,215.37,160.63,215.47z"/>
		<path fill="#FFFFFF" d="M75.8,166.42c-15.42,2.72-30.84,5.44-46.56,8.22c4.3-9.46,8.48-18.66,12.75-28.05
			c11.34,6.54,22.59,13.04,33.83,19.53C75.82,166.22,75.81,166.32,75.8,166.42z"/>
		<path fill="#FFFFFF" d="M54.52,137.28c0.61-0.05,0.95-0.09,1.29-0.09c8.14,0,16.28-0.01,24.42,0.02c0.56,0,1.29,0.21,1.64,0.59
			c6.81,7.5,13.58,15.05,20.35,22.59c0.29,0.32,0.52,0.7,0.9,1.22c-1.69,0.29-3.22,0.58-4.75,0.78c-0.35,0.05-0.78-0.15-1.11-0.34
			c-14.06-8.1-28.11-16.22-42.15-24.33C54.98,137.65,54.88,137.56,54.52,137.28z"/>
		<path fill="#FFFFFF" d="M156.02,151.96c1.52-1.67,3.04-3.34,4.58-5c2.78-3,5.56-6,8.39-8.95c0.41-0.42,1.11-0.79,1.68-0.8
			c8.31-0.05,16.63-0.1,24.94-0.01c4.46,0.05,7.66,2.36,10.17,6.28c-16.71,2.95-33.18,5.86-49.64,8.77
			C156.09,152.16,156.06,152.06,156.02,151.96z"/>
	</g>
	<g>
		<path fill="#FFFFFF" d="M122.72,174.67c-12.23-17.32-23.79-34.96-33.69-53.64c-4.15-7.83-7.94-15.83-10.67-24.29
			c-1.75-5.43-2.84-10.96-2.64-16.7c0.43-12.72,5.32-23.47,14.62-32.09c10-9.27,22-13.39,35.57-12.63
			c19.45,1.09,35.92,13.78,41.91,31.42c1.82,5.34,2.44,10.84,2.36,16.48c-0.11,7.6-2.53,14.56-5.37,21.43
			c-4.09,9.87-9.22,19.22-14.65,28.41C141.72,147.34,132.5,161.11,122.72,174.67z M123.26,108.6c5.24-0.04,10.17-1.26,14.76-3.82
			c13.49-7.53,18.65-23.84,11.83-37.35c-7.4-14.65-26-20.4-40.72-12.58c-12.24,6.5-18.12,20.22-14.22,33.19
			C98.55,100.15,110.2,108.6,123.26,108.6z"/>
		<path fill="#FFFFFF" d="M118.27,96.58c0-0.44,0-0.77,0-1.1c0-3.5,0-7,0-10.5c0-1.32,0.42-1.72,1.76-1.73c1.97,0,3.95,0,5.92,0
			c1.29,0,1.7,0.4,1.7,1.69c0,3.53,0,7.06,0,10.59c0,0.33,0,0.65,0,1.02c0.34,0.02,0.59,0.04,0.83,0.04c2.78,0,5.56,0.01,8.34,0
			c1.5,0,2.06-0.56,2.06-2.06c0-4.86,0-9.73,0-14.59c0-0.32,0-0.64,0-1.05c2.27,0,4.42,0,6.78,0c-0.36-0.31-0.56-0.48-0.77-0.64
			c-2.53-1.95-5.05-3.91-7.61-5.83c-0.64-0.48-0.92-0.96-0.9-1.78c0.07-2.42,0.03-4.83,0.02-7.25c0-0.97-0.16-1.14-1.1-1.14
			c-1.56-0.01-3.11-0.01-4.67,0c-0.99,0.01-1.15,0.18-1.15,1.18c-0.01,0.92,0,1.85,0,2.97c-2.4-1.84-4.62-3.54-6.86-5.26
			c-7.44,5.89-14.85,11.74-22.26,17.6c0.03,0.07,0.06,0.14,0.08,0.2c2.15,0,4.3,0,6.5,0c0,0.43,0,0.76,0,1.09c0,4.92,0,9.84,0,14.76
			c0,1.08,0.54,1.77,1.55,1.79C111.7,96.61,114.92,96.58,118.27,96.58z"/>
		<path fill="#FFFFFF" d="M118.27,96.58c-3.35,0-6.57,0.02-9.79-0.01c-1.01-0.01-1.55-0.7-1.55-1.79c0-4.92,0-9.84,0-14.76
			c0-0.33,0-0.66,0-1.09c-2.21,0-4.36,0-6.5,0c-0.03-0.07-0.06-0.14-0.08-0.2c7.41-5.86,14.82-11.72,22.26-17.6
			c2.25,1.73,4.47,3.42,6.86,5.26c0-1.12,0-2.05,0-2.97c0.01-1,0.17-1.17,1.15-1.18c1.56-0.01,3.11-0.01,4.67,0
			c0.94,0.01,1.1,0.18,1.1,1.14c0.01,2.42,0.04,4.84-0.02,7.25c-0.02,0.83,0.27,1.31,0.9,1.78c2.56,1.91,5.08,3.88,7.61,5.83
			c0.21,0.16,0.4,0.34,0.77,0.64c-2.36,0-4.51,0-6.78,0c0,0.4,0,0.73,0,1.05c0,4.86,0,9.73,0,14.59c0,1.5-0.55,2.06-2.06,2.06
			c-2.78,0.01-5.56,0-8.34,0c-0.24,0-0.49-0.02-0.83-0.04c0-0.37,0-0.69,0-1.02c0-3.53,0-7.06,0-10.59c0-1.28-0.41-1.68-1.7-1.69
			c-1.97,0-3.95,0-5.92,0c-1.34,0-1.76,0.41-1.76,1.73c-0.01,3.5,0,7,0,10.5C118.27,95.82,118.27,96.15,118.27,96.58z"/>
	</g>
</g>
</svg>
