<?xml version="1.0" encoding="utf-8"?>
<!-- Generator: Adobe Illustrator 25.4.1, SVG Export Plug-In . SVG Version: 6.00 Build 0)  -->
<svg version="1.1" id="Layer_1" xmlns="http://www.w3.org/2000/svg" xmlns:xlink="http://www.w3.org/1999/xlink" x="0px" y="0px"
	 viewBox="0 0 339 247" enable-background="new 0 0 339 247" xml:space="preserve">
<path fill="none" d="M161.5529022,138.4195404c-24.09552,8.3534393-47.9712067,16.6213989-72.0423126,24.9626312
	c-2.5280151-7.2176819-5.031601-14.3376465-7.6084671-21.6652222c23.985611-8.2923737,47.9101639-16.5481186,72.0178909-24.8893356
	C156.4724579,124.0208588,158.9882507,131.1408234,161.5529022,138.4195404z"/>
<path fill="none" d="M248.0183411,70.4562531c0.5495605,1.5632172,1.0380707,2.9798889,1.5754242,4.5431061
	c-59.4388885,20.5782776-118.7312164,41.1077194-178.1456604,61.6859894
	c-0.5617828-1.5510101-1.0869293-3.0043182-1.6609192-4.6163635
	C129.2016449,111.5395508,188.5061798,91.0345383,248.0183411,70.4562531z"/>
<path fill="none" d="M92.7103043,172.3584595c-0.4396591-1.245697-0.8426666-2.3692474-1.2945404-3.6149445
	c24.0100403-8.316803,47.9223709-16.6091919,71.9812546-24.9382019c0.4518738,1.2212677,0.8548737,2.3448334,1.3433838,3.6638031
	C140.7181549,155.7736969,116.7814026,164.0416565,92.7103043,172.3584595z"/>
<path fill="none" d="M196.1757202,176.9992371c-0.4396515-1.2334595-0.8182526-2.3081818-1.2945404-3.6149445
	c23.985611-8.3167877,47.8857422-16.5969543,71.9812469-24.9504089c0.4396667,1.2212524,0.8548889,2.3692474,1.3311768,3.6759949
	C244.1469421,160.426712,220.2223969,168.6946716,196.1757202,176.9992371z"/>
<path fill="none" d="M254.124649,112.4066467c0.4396667,1.2334747,0.8426819,2.3570328,1.3189697,3.6760025
	c-24.0100403,8.2923813-47.9101562,16.5603256-71.9812622,24.8771286c-0.4274445-1.147995-0.8426666-2.2593536-1.3433838-3.5905151
	C206.1290283,129.0402527,230.0780029,120.7478714,254.124649,112.4066467z"/>
<path fill="none" d="M169.7720184,161.8311615c0.4518738,1.2578888,0.8548737,2.3814545,1.2945251,3.6149445
	c-24.0344543,8.3290253-47.9467773,16.6091919-72.0056686,24.9503937c-0.4396591-1.2334595-0.8426743-2.3570251-1.3189697-3.6759949
	C121.7397308,178.4403381,145.6520691,170.1723938,169.7720184,161.8311615z"/>
<path fill="none" d="M247.7863159,94.4296494c0.4396515,1.2090454,0.8426666,2.3326187,1.3189697,3.6149368
	c-23.997818,8.316803-47.9101562,16.6091766-72.0178986,24.9626236c-0.4274445-1.2090454-0.8304596-2.3692551-1.2945404-3.6882095
	C199.827301,111.0021896,223.7518463,102.7342453,247.7863159,94.4296494z"/>
<path fill="none" d="M189.7640839,159.0222626c-0.4274445-1.2945251-0.8060303-2.4303131-1.2212677-3.6882172
	c24.0344696-8.3045959,47.9467926-16.5725555,71.9934692-24.877121c0.4518738,1.2334595,0.8548889,2.3448181,1.3067627,3.6027222
	C237.8085785,142.3886566,213.8962555,150.668808,189.7640839,159.0222626z"/>
<path fill="none" d="M173.9120941,113.9454346c-0.4396515-1.2456818-0.8304596-2.3692474-1.2701111-3.6271515
	c24.0466614-8.3045883,47.9589996-16.5725403,71.9934692-24.8771362c0.4518585,1.2456894,0.8304443,2.3204041,1.3067627,3.6149445
	C221.8955231,97.3606796,197.9587708,105.6286316,173.9120941,113.9454346z"/>
<path fill="none" d="M193.0126495,168.0107574c-0.4396515-1.2212524-0.8426666-2.3448181-1.3067627-3.6149445
	c23.997818-8.3167877,47.9223785-16.6091766,72.0056915-24.9504089c0.4274597,1.1724243,0.8304443,2.2959747,1.3067627,3.6149445
	C241.0205078,151.3649445,217.0715332,159.6695404,193.0126495,168.0107574z"/>
<path fill="none" d="M180.2504578,131.9835052c-0.4518738-1.2823334-0.8426819-2.3570404-1.2945404-3.6149445
	c23.997818-8.3168106,47.9101562-16.5969696,71.9812622-24.9504166c0.4396515,1.209053,0.8548737,2.3204041,1.3189545,3.6027222
	C228.2583008,115.349884,204.3459778,123.6422577,180.2504578,131.9835052z"/>
<path fill="none" d="M166.5967255,152.8548889c0.4274445,1.1968231,0.8182526,2.2715454,1.2945404,3.6149445
	c-23.997818,8.2923737-47.9467926,16.572525-72.0178909,24.8893433c-0.4396515-1.2334595-0.8426666-2.3448181-1.2945404-3.6149445
	C118.6377182,169.4152069,142.5500488,161.1594849,166.5967255,152.8548889z"/>
<path fill="none" d="M102.211731,199.3972321c-0.4396591-1.2334747-0.8182449-2.3204041-1.2823257-3.6149597
	c23.985611-8.3167877,47.8857346-16.5969543,71.9812393-24.9503937c0.4396667,1.1846313,0.8426819,2.2959747,1.3311768,3.6027222
	C150.2317963,182.7636108,126.3194656,191.0437775,102.211731,199.3972321z"/>
<path fill="none" d="M105.3870163,208.3857269c-0.4518661-1.245697-0.8426743-2.3326263-1.2945328-3.6149445
	c24.0222473-8.2923737,47.983429-16.5603333,72.0667267-24.8771362c0.4274445,1.2212677,0.8060455,2.308197,1.2579041,3.6027222
	C153.4437256,191.776535,129.5191803,200.0444946,105.3870163,208.3857269z"/>
<path fill="none" d="M257.3610229,121.4684143c0.4274292,1.2456818,0.8060303,2.3448257,1.245697,3.6027222
	c-23.9734192,8.2801666-47.8979645,16.548111-71.9934692,24.8771362c-0.4396667-1.2090607-0.8426819-2.3326111-1.3067627-3.6149445
	C209.3287354,138.0531616,233.2654877,129.7974243,257.3610229,121.4684143z"/>
<path fill="none" d="M230.3710938,48.7666168c0.5373535,1.5632172,1.0258484,3.0165215,1.5754089,4.616375
	c-11.9928131,4.152298-23.8634796,8.2557411-35.8318481,12.3958244c-0.5617981-1.5754318-1.0747223-2.9920921-1.6609192-4.6041603
	C206.4221191,57.0467796,218.3294373,52.9311218,230.3710938,48.7666168z"/>
<path fill="none" d="M105.8510971,91.7917252c0.5739899,1.6120682,1.0869217,3.0287399,1.6609116,4.6163712
	c-11.9805908,4.1400833-23.8879013,8.2435303-35.9051361,12.3958282c-0.5373535-1.5265808-1.0258636-2.9432526-1.5876389-4.5431061
	C81.9509735,100.1085205,93.797226,95.9806519,105.8510971,91.7917252z"/>
<g>
	<path fill="#FFFFFF" d="M306.5622253,154.5914001C293.4375,117.438736,280.3638306,80.4009705,267.2135925,43.1589394
		c-1.9278259,0.6511345-3.7918701,1.2767258-5.809082,1.9533882c-1.2128906-3.447155-2.3747253-6.7666359-3.625885-10.3414612
		c4.7749329-1.6469765,9.4732666-3.2684155,14.3248291-4.9409199c1.532074,4.289793,3.0130615,8.4646778,4.4940796,12.6395626
		c12.1671753,34.3949394,24.3343506,68.8026428,36.4249268,103.223114c0.5873108,1.6852875,0.523468,3.6131287,0.6128235,5.4388428
		c0.0255432,0.4213104-0.4851685,1.0979767-0.9064941,1.2639618
		C310.6860352,153.2125244,308.5794373,153.8891907,306.5622253,154.5914001z"/>
	<path fill="#FFFFFF" d="M304.493927,159.0599213c-4.7877197-0.0893707-8.0433655-2.4896088-9.6520386-7.034729
		c-16.1888428-45.8982468-32.3777161-91.796463-48.5665741-137.6819153
		c-0.2936401-0.8298731-0.6000519-1.6469755-0.9192352-2.5534477C171.944458,37.1838646,98.7371216,62.5268288,25.3638,87.9208679
		c0.1532059,0.4979172,0.2553444,0.8554001,0.3830166,1.200119c16.3931332,46.4344482,32.7734985,92.8688812,49.1793976,139.3033295
		c1.966156,5.5792694,7.2773285,8.081665,12.9076767,6.1282806
		c69.4154816-24.0151825,138.8309479-48.0431213,208.2464294-72.0583038
		c3.0258179-1.0469208,6.0388794-2.1065826,9.0647278-3.1662598
		C304.8897095,159.0854492,304.6854248,159.0599213,304.493927,159.0599213z M227.8011169,45.2144585
		c0.5617676,1.6342049,1.0724487,3.1535072,1.6469727,4.8260117c-12.5374451,4.3408661-24.9471893,8.6306572-37.4590759,12.9587517
		c-0.5872955-1.6469765-1.1235199-3.1279716-1.7363434-4.8132477
		C202.7645721,53.8706436,215.2126312,49.5680809,227.8011169,45.2144585z M162.5094757,66.6889496l0.0765991-0.0638351
		l-2.2214966,4.928154l4.6217346,2.2342606l-6.9581451,2.3364105l4.5323792,2.2597961l-7.2900848,2.4385452l-4.366394-2.3108673
		l2.5023804-4.6217422l-4.91539-2.5789795l2.3619385-4.4813004l6.9581299-2.3364105l-2.2597961,4.5323792L162.5094757,66.6889496z
		 M162.6754456,87.9081039l-3.1024323-1.544838l-1.4554749,2.6555939l-2.3363953-7.0092239l6.9964447-2.3491669
		l-1.5193024,2.8981628l3.0641327,1.4554596l-2.6555786,0.8937073L162.6754456,87.9081039z M154.8618927,94.023613
		l0.0638428,0.0765991l-4.9281616-2.2214966l-2.2342529,4.6217422l-2.3364105-6.9581375l-2.2597961,4.5323715l-2.4385529-7.2901077
		l2.3108673-4.366394l4.6217499,2.5023727l2.5789795-4.9153824l4.4812927,2.3619385l2.3364105,6.9581375l-4.5323792-2.2597961
		L154.8618927,94.023613z M132.5702972,89.7721176l6.99646-2.3491669l2.3491669,6.9964523l-2.8981628-1.5193024
		l-1.4554749,3.0641403l-0.893692-2.6555939l-2.9875336,0.9958496l1.5448303-3.1024399L132.5702972,89.7721176z
		 M151.0189514,59.973381l1.4554596-3.0641403l0.8937073,2.6555901l2.9875336-0.9958458l-1.5448303,3.1024399l2.6555786,1.4554672
		l-6.9964447,2.3491669l-2.3491669-6.9964523L151.0189514,59.973381z M135.1620483,58.8626366l-0.0638428-0.0765991
		l4.9281616,2.2214966l2.2342682-4.6217422l2.3363953,6.9581413l2.2597961-4.5323753l2.4385529,7.2900887l-2.3108673,4.366394
		l-4.6217499-2.5023651l-2.5789795,4.9153824l-4.4812927-2.3619385l-2.3364105-6.9581375l4.5323792,2.2597961
		L135.1620483,58.8626366z M127.3612671,64.9781494l3.1024323,1.5448303l1.4554749-2.6555862l2.3491669,6.9964523
		l-6.99646,2.3491669l1.5193024-2.8981628l-3.0641327-1.4554596l2.6555786-0.8937073L127.3612671,64.9781494z
		 M132.4170837,76.7878418l-4.5323715-2.2597961l7.2900925-2.4385452l4.366394,2.3108673l-2.5023804,4.6217422l4.91539,2.5789719
		l-2.3619385,4.481308l-6.9581451,2.3364029l2.2597961-4.5323715l-6.9581375,2.3364105l-0.0765991,0.0638351l2.2215042-4.928154
		l-4.6217499-2.2342682L132.4170837,76.7878418z M97.6263657,90.1934433
		c0.6000595,1.6852722,1.1362839,3.166275,1.7363434,4.8260117c-12.5246582,4.3280945-24.9727173,8.6178894-37.5356827,12.9587479
		c-0.5617561-1.5959015-1.0724449-3.0769043-1.6597404-4.7494125
		C72.6408768,98.8879242,85.0378723,94.5725937,97.6263657,90.1934433z M59.9374809,132.3125458
		c62.0998497-21.4744949,124.0975494-42.9106903,186.3122864-64.4234772
		c0.5745239,1.634201,1.0852356,3.1152039,1.6469727,4.7494125
		c-62.1381531,21.5127945-124.1230927,42.9745178-186.2356873,64.4873276
		C61.0865288,135.5171356,60.5375404,133.9978333,59.9374809,132.3125458z M246.0072174,92.9511566
		c0.4596252,1.2639542,0.8809357,2.4385529,1.3788605,3.7791061c-25.087616,8.6944809-50.0858612,17.3634415-75.2884064,26.0962372
		c-0.4468536-1.2639542-0.8681641-2.4768524-1.3533173-3.8557053
		C195.8702698,110.2762985,220.8812866,101.6328888,246.0072174,92.9511566z M168.778183,113.3532104
		c-0.45961-1.3022537-0.8681641-2.4768448-1.3277893-3.7918701c25.1386871-8.6817245,50.1369324-17.3251419,75.2628784-26.0068665
		c0.4723816,1.3022537,0.8681641,2.4257736,1.3661041,3.7790985
		C218.9406586,96.0152969,193.9168854,104.6587143,168.778183,113.3532104z M72.5898132,142.3731384
		c25.0748596-8.6689453,50.0858765-17.299614,75.2884064-26.0196304c2.6555939,7.5199051,5.2984161,14.9632034,7.9795227,22.5724716
		c-25.189743,8.7327881-50.149704,17.3762207-75.3139343,26.0962524
		C77.9009857,157.4895477,75.283699,150.0334778,72.5898132,142.3731384z M82.5354919,170.639801
		c25.1003952-8.6944885,50.0986481-17.3634491,75.2501068-26.070694c0.4723816,1.2767181,0.893692,2.4513092,1.4043884,3.8301697
		c-25.1131592,8.6817169-50.13694,17.3251495-75.3011703,26.0196381
		C83.4291992,173.1166534,83.0078812,171.9420624,82.5354919,170.639801z M87.1955338,183.8155975
		c-0.4596252-1.2894745-0.8809357-2.4513092-1.3533325-3.7791138c25.1514664-8.6944733,50.1497116-17.3251495,75.2883987-26.0068512
		c0.4468536,1.2511902,0.8554077,2.3747101,1.3533325,3.7791138
		C137.3835449,166.4776917,112.3597565,175.1210938,87.1955338,183.8155975z M89.1489182,189.4459381
		c25.0876236-8.6689453,50.0858841-17.3123779,75.3011703-26.0196381c0.4723969,1.3150177,0.8937073,2.4896088,1.3533325,3.7791138
		c-25.1259308,8.7072601-50.124176,17.3634491-75.2756348,26.0834808
		C90.055397,191.9993896,89.634079,190.8247986,89.1489182,189.4459381z M92.4811707,198.9064636
		c25.074852-8.6944885,50.0603333-17.3506622,75.2500916-26.0834503c0.4596252,1.2384186,0.8809509,2.400238,1.3916321,3.7663269
		c-25.1004028,8.6944885-50.0858765,17.3634491-75.301178,26.0962372
		C93.3748779,201.3960724,92.9663239,200.2725677,92.4811707,198.9064636z M97.1412125,212.0822601
		c-0.4723892-1.3022614-0.8809433-2.4385376-1.3533249-3.7791138c25.1131592-8.6689453,50.1624756-17.3123627,75.3394623-26.0068512
		c0.4468536,1.2767181,0.8426514,2.4130096,1.315033,3.7663269
		C147.3802948,194.718811,122.369278,203.3622437,97.1412125,212.0822601z M174.0638275,128.4313202
		c25.087616-8.6944885,50.0858612-17.3506775,75.2501068-26.0834732c0.45961,1.2639542,0.893692,2.4257812,1.3788605,3.7663345
		c-25.1004028,8.6944809-50.0986481,17.3634415-75.2884064,26.0962219
		C174.9319916,130.8826294,174.5234375,129.7463379,174.0638275,128.4313202z M177.344986,137.8407593
		c25.1131592-8.7072601,50.1497192-17.3762054,75.2884064-26.0962372c0.4596252,1.2894974,0.8809509,2.4640808,1.3788757,3.8429413
		c-25.1004028,8.6689606-50.0858765,17.3123779-75.2501068,26.0068665
		C178.302536,140.3942108,177.868454,139.245163,177.344986,137.8407593z M180.6772461,147.2246857
		c25.1259308-8.6689453,50.1369476-17.3123627,75.3266907-26.0068588c0.4468689,1.3022537,0.8426514,2.4513016,1.3022766,3.7663269
		c-25.0621033,8.6561966-50.0731049,17.2995987-75.2628632,26.0068741
		C181.583725,149.727066,181.1623993,148.5652618,180.6772461,147.2246857z M184.0733337,156.6213837
		c25.1259308-8.6817322,50.124176-17.3251495,75.2628784-26.0068665c0.4723816,1.2894897,0.8936768,2.4513092,1.3660889,3.7663422
		c-25.1259155,8.7072601-50.124176,17.3506622-75.3650055,26.0962372
		C184.9032135,159.1237488,184.5074158,157.9364014,184.0733337,156.6213837z M187.3800354,166.0946655
		c25.087616-8.6944885,50.0986633-17.3634491,75.2756653-26.0834808c0.4468384,1.2256622,0.8681641,2.4002533,1.3660889,3.7791138
		c-25.087616,8.6944885-50.124176,17.3762207-75.2884064,26.0962372
		C188.2865295,168.5970612,187.8652039,167.4096985,187.3800354,166.0946655z M192.0528564,179.2704468
		c-0.4596252-1.2894897-0.8554077-2.4130096-1.3533173-3.7791138c25.0748444-8.6944885,50.0603485-17.3506622,75.2501068-26.0834808
		c0.4596252,1.2767334,0.8937073,2.4768524,1.3916016,3.8429413
		C242.2025604,161.9453125,217.1915588,170.5887451,192.0528564,179.2704468z"/>
</g>
</svg>
