<?xml version="1.0" encoding="utf-8"?>
<!-- Generator: Adobe Illustrator 25.4.1, SVG Export Plug-In . SVG Version: 6.00 Build 0)  -->
<svg version="1.1" id="Layer_1" xmlns="http://www.w3.org/2000/svg" xmlns:xlink="http://www.w3.org/1999/xlink" x="0px" y="0px"
	 viewBox="0 0 250 250" enable-background="new 0 0 250 250" xml:space="preserve">
<g>
	<path fill="#FFFFFF" d="M236.99,224.58c-74.87,0-149.27,0-223.99,0c0-4.3,0-8.33,0-13.04c8.8,0,17.28,0,25.76,0
		c13.73,0,27.46-0.23,41.18,0.12c4.86,0.13,7.01-1.67,7.19-6.16c0.34-8.31,0.54-16.62,0.69-24.93c0.02-0.93-0.49-2.07-1.11-2.79
		c-6.39-7.39-12.72-14.86-19.44-21.95c-1.29-1.37-4.17-1.54-6.36-1.7c-23.49-1.68-44.01-23.42-37.88-49.77
		c0.33-1.4,0.11-3.38-0.67-4.51c-8.48-12.21-9.39-24.87-1.32-37.34c8.24-12.74,20.73-17.29,35.56-16.02
		c1.02,0.09,2.03,0.25,3.33,0.41c5.81-14.5,16.16-22.54,32.04-21.88c13.97,0.59,23.1,8.21,28.31,20.95
		c13.32,1.15,23.58,6.79,28.35,19.86c2.8,7.66,1.62,15.07-2.26,22.24c-1.05,1.94-1.82,4.62-1.39,6.69
		c5.28,25.44-11.01,47.78-36.95,50.36c-1.62,0.16-3.24,0.41-5.2,0.66c0,7.27-0.1,14.28,0.02,21.28c0.19,10.4,0.62,20.79,0.81,31.19
		c0.25,13.93,1.11,14.69,15.85,12.65c0-11.22,0-22.56,0-34.55c2.77-0.13,4.92-0.24,7.86-0.38c0,4.85,0,9.3,0,14.09
		c34.36,0,67.96,0,102.14,0c0-4.5,0-8.78,0-13.72c2.7-0.13,4.86-0.24,7.47-0.37C236.99,192.25,236.99,208.15,236.99,224.58z
		 M142.2,211.03c24.3,0,48,0,71.74,0c0-4.38,0-8.22,0-12.25c-24.12,0-47.82,0-71.74,0C142.2,203,142.2,206.7,142.2,211.03z
		 M88.48,165.9c0-6.92,0-12.07,0-17.65c-4.34,1.84-8.15,3.45-11.47,4.86C80.63,157.14,84.02,160.93,88.48,165.9z M222.4,211.57
		c2.79-0.18,4.92-0.32,7.03-0.45c0-4.54,0-8.37,0-12.41c-2.5,0-4.63,0-7.03,0C222.4,202.96,222.4,206.8,222.4,211.57z
		 M127.94,198.51c0,4.25,0,8.43,0,13c2.16-0.13,3.91-0.24,5.78-0.36c0-4.45,0-8.45,0-12.64
		C131.64,198.51,130.03,198.51,127.94,198.51z"/>
	<path fill="#FFFFFF" d="M221.81,161.72c0,2.36,0,4.35,0,6.78c-29,0-57.78,0-87.08,0c0-2.07,0-4.2,0-6.78
		C163.52,161.72,192.29,161.72,221.81,161.72z"/>
	<path fill="#FFFFFF" d="M221.84,176.44c0,2.4,0,4.39,0,6.79c-29.05,0-57.85,0-87.14,0c0-2.09,0-4.23,0-6.79
		C163.53,176.44,192.33,176.44,221.84,176.44z"/>
</g>
</svg>
