<?xml version="1.0" encoding="utf-8"?>
<!-- Generator: Adobe Illustrator 25.4.1, SVG Export Plug-In . SVG Version: 6.00 Build 0)  -->
<svg version="1.1" id="Layer_1" xmlns="http://www.w3.org/2000/svg" xmlns:xlink="http://www.w3.org/1999/xlink" x="0px" y="0px"
	 viewBox="0 0 250 250" enable-background="new 0 0 250 250" xml:space="preserve">
<g>
	<path fill="#FFFFFF" d="M206.05,37.64c-4.29-0.2-8.59-0.15-12.88-0.31c-14.39-0.56-27.83-4.44-40-12.15
		c-7.2-4.56-14.09-9.61-21.11-14.45c-4.97-3.43-9.66-3.45-14.62,0.01c-5.56,3.88-11.08,7.81-16.64,11.67
		c-11.34,7.87-23.8,12.92-37.56,14.27c-6.65,0.65-13.37,0.58-20.05,0.95c-9.26,0.52-14.67,6.4-14.25,15.62
		c0.41,9,1.02,17.98,1.56,26.97c1.2,20.13,2.36,40.25,3.62,60.38c1.62,25.91,12.79,46.83,33.73,62.1
		c17.71,12.92,35.89,25.19,53.82,37.8c2.14,1.51,3.9,1.55,6.06,0.03c17.87-12.57,35.95-24.83,53.64-37.65
		c20.62-14.94,31.87-35.42,33.88-60.8c0.93-11.76,1.36-23.55,2.06-35.32c1.06-17.82,2.16-35.64,3.2-52.83
		C220.86,43.99,215.44,38.07,206.05,37.64z M207.16,105.5c-0.68,11.45-1.25,22.91-2.07,34.36c-1.66,23.23-12.16,41.6-31.06,55.08
		c-15.38,10.97-30.96,21.65-46.4,32.53c-2.08,1.47-3.72,1.47-5.81,0c-15.44-10.88-31.02-21.56-46.4-32.53
		c-18.9-13.48-29.47-31.85-31.04-55.09c-1.46-21.7-2.59-43.42-3.87-65.13c-0.28-4.69-0.7-9.38-0.84-14.07
		c-0.24-7.64,4.4-12.72,12.03-13.2c4.53-0.28,9.08-0.24,13.62-0.45c14.15-0.65,26.92-5.31,38.5-13.37c4.9-3.42,9.78-6.88,14.68-10.3
		c4.16-2.9,8.21-2.88,12.44-0.06c7.88,5.26,15.52,10.95,23.74,15.61c11.25,6.38,23.67,8.68,36.59,8.37
		c2.23-0.05,4.47,0.02,6.69,0.22c7.76,0.72,12.04,5.7,11.85,13.65C208.93,75.92,208.04,90.71,207.16,105.5z"/>
	<path fill="#FFFFFF" d="M198.21,53.09c-2.12-0.31-4.29-0.45-6.43-0.38c-16.9,0.55-32.52-3.61-46.68-12.87
		c-5.74-3.75-11.28-7.79-16.91-11.7c-2.83-1.96-4.07-1.97-6.92,0.03c-3.79,2.65-7.61,5.26-11.33,8
		C99.04,44.21,87.1,49.9,73.61,51.67c-6.85,0.9-13.82,0.82-20.73,1.24c-5.78,0.36-7.89,2.75-7.68,8.94
		c0.43,6.88,0.89,14.12,1.33,21.36c1.13,18.93,2.05,37.88,3.4,56.8c1.49,20.88,10.95,37.57,27.9,49.78
		c14.88,10.71,30.04,21.03,45.03,31.59c1.4,0.99,2.31,1.01,3.73,0.01c14.99-10.56,30.07-20.98,45.04-31.56
		c11.83-8.35,19.94-19.52,24.71-33.19c3.47-9.96,3.48-20.36,4.12-30.68c0.77-12.33,1.48-24.66,2.2-36.99
		c0.56-9.55,1.16-19.09,1.61-28.64C204.46,56.22,202.29,53.68,198.21,53.09z M146.11,84.33l5.73,5.95l5.96-6.18v7.06h7.94
		l-6.18,6.18l5.18,5.6h-18.63V84.33z M105.75,84.37l9.04,9.04V74.89l-0.11-0.23l10.02,9.27l9.05-9.26v18.52l9.04-9.04v19.41
		l-9.03,8.6l-9.06-9.7l-10.13,9.7l-8.84-9.26V84.37z M91.19,91.21v-7.94l6.18,6.18l5.6-5.18v18.63H84.36l5.95-5.73l-6.18-5.96H91.19
		z M102.4,165.39l-5.73-5.95l-5.96,6.17v-7.06h-7.94l6.18-6.17l-5.18-5.6h18.63V165.39z M85.02,143.59l9.04-9.04H75.54l-0.23,0.11
		l9.27-10.02l-9.26-9.05h18.52l-9.04-9.04h19.41l8.6,9.03l-9.7,9.06l9.7,10.13l-9.26,8.84H85.02z M142.75,165.35l-9.04-9.04v18.52
		l0.11,0.23l-10.02-9.27l-9.05,9.26v-18.52l-9.04,9.04v-19.41l9.03-8.6l9.06,9.7l10.13-9.7l8.84,9.26V165.35z M157.31,158.52v7.94
		l-6.18-6.18l-5.6,5.18v-18.63h18.61l-5.95,5.73l6.18,5.96H157.31z M174.17,134.53h-18.52l9.04,9.04h-19.41l-8.6-9.03l9.7-9.06
		l-9.7-10.13l9.26-8.84h18.52l-9.04,9.04h18.52l0.23-0.11l-9.27,10.02L174.17,134.53z"/>
</g>
</svg>
