<?xml version="1.0" encoding="utf-8"?>
<!-- Generator: Adobe Illustrator 25.4.1, SVG Export Plug-In . SVG Version: 6.00 Build 0)  -->
<svg version="1.1" id="Layer_1" xmlns="http://www.w3.org/2000/svg" xmlns:xlink="http://www.w3.org/1999/xlink" x="0px" y="0px"
	 viewBox="0 0 250 250" enable-background="new 0 0 250 250" xml:space="preserve">
<g>
	<path fill="#FFFFFF" d="M125,228c-34.26,0-68.52,0-102.78,0c-0.73,0-1.47-0.07-2.2,0.01c-4.03,0.44-7.15-0.81-9.17-4.52
		c-2.1-3.86-2.58-7.53-0.28-11.62c16.02-28.44,31.9-56.95,47.87-85.41c18.19-32.42,36.45-64.81,54.63-97.23
		c1.54-2.75,3.28-5.11,6.25-6.49c6.33-2.94,12.71-1.11,16.22,5.02c5.03,8.76,9.92,17.6,14.86,26.4
		c29.23,52.07,58.42,104.16,87.73,156.19c2.49,4.42,2.53,8.52,0.36,12.91c-1.58,3.21-3.9,4.75-7.65,4.7
		c-10.83-0.16-21.67-0.04-32.5-0.04c-24.45,0-48.9,0-73.35,0C125,227.94,125,227.97,125,228z M139.63,98.56
		c-0.05-0.01-0.1-0.02-0.14-0.03c0-3.37-0.08-6.73,0.02-10.09c0.1-3.31-0.99-6.08-3.56-8.12c-1.82-1.44-3.76-2.78-5.8-3.88
		c-8.14-4.43-24.54,2.22-22.07,14.54c0.27,19.77,2.32,39.43,3.97,59.11c0.38,4.52,0.77,9.04,1.39,13.53
		c0.74,5.33,5.1,8.91,10.33,8.86c5.06-0.05,10.28-3.83,10.7-9.62c0.38-5.25,0.92-10.49,1.34-15.74
		C137.1,130.94,138.36,114.75,139.63,98.56z M124.29,207.84c3.68,0.06,7.09-1.02,9.88-3.71c4.23-4.07,4.18-9.96-0.08-14.01
		c-5.32-5.06-14.85-4.93-20,0.27c-4.04,4.08-4.05,9.65,0.05,13.67C116.91,206.78,120.33,207.88,124.29,207.84z"/>
</g>
</svg>
