<?xml version="1.0" encoding="utf-8"?>
<!-- Generator: Adobe Illustrator 25.4.1, SVG Export Plug-In . SVG Version: 6.00 Build 0)  -->
<svg version="1.1" id="Layer_1" xmlns="http://www.w3.org/2000/svg" xmlns:xlink="http://www.w3.org/1999/xlink" x="0px" y="0px"
	 viewBox="0 0 250 250" enable-background="new 0 0 250 250" xml:space="preserve">
<g>
	<path fill="#FFFFFF" d="M156.17,145.24c2.77,2.78,5.43,5.45,8.43,8.46c1.54-1.85,3.1-3.72,4.87-5.85
		c4.08,4.15,7.71,7.89,11.39,11.57c16.97,16.99,33.95,33.97,50.92,50.95c4.44,4.44,5.99,9.74,4.19,15.76
		c-1.73,5.81-5.77,9.39-11.72,10.55c-5.47,1.06-10.2-0.58-14.14-4.52c-8.69-8.69-17.38-17.38-26.07-26.07
		c-11.5-11.5-22.99-23-34.5-34.48c-0.48-0.48-1.09-0.84-2.07-1.58c2.24-1.87,4.11-3.43,5.88-4.92c-3.08-3.09-5.78-5.79-8.48-8.5
		c-33.99,28.49-86.91,23.29-115.35-13.19C4.17,110.89,7.75,64.04,38.07,34.96C67.7,6.56,115.16,5.6,146.53,32.7
		C178.53,60.34,184.76,109.88,156.17,145.24z M159.37,93.97c-0.06-36.68-29.46-65.89-66.29-65.87c-35.81,0.02-65.33,29.64-65.3,65.5
		c0.04,36.96,29.41,66.17,66.45,66.09C129.9,159.61,159.43,129.82,159.37,93.97z"/>
	<path fill="#FFFFFF" d="M95.42,36.93c5.5,0.07,12.34,1.3,18.91,3.92c2.57,1.03,3.59,2.99,2.73,5.15c-0.82,2.06-2.9,2.78-5.38,1.9
		c-19.69-6.97-37.25-3.43-52.67,10.67c-1.85,1.69-3.79,1.91-5.42,0.63c-1.47-1.16-1.87-3.36-0.8-4.92c0.49-0.72,1.15-1.33,1.79-1.94
		C65.22,42.34,79.17,36.88,95.42,36.93z"/>
	<path fill="#FFFFFF" d="M150.46,92c0,0.32,0.04,1.14-0.01,1.96c-0.14,2.17-1.75,3.72-3.78,3.69c-2.02-0.03-3.48-1.6-3.73-3.78
		c-0.47-4.12-0.9-8.25-1.6-12.33c-0.34-2.03-1.2-3.97-1.88-5.93c-0.8-2.32-0.05-4.39,1.95-5.21c2.1-0.85,4.13,0.13,5.09,2.54
		C148.91,78.89,150.19,85.09,150.46,92z"/>
</g>
</svg>
