<?xml version="1.0" encoding="utf-8"?>
<!-- Generator: Adobe Illustrator 25.4.1, SVG Export Plug-In . SVG Version: 6.00 Build 0)  -->
<svg version="1.1" id="Layer_1" xmlns="http://www.w3.org/2000/svg" xmlns:xlink="http://www.w3.org/1999/xlink" x="0px" y="0px"
	 viewBox="0 0 250 250" enable-background="new 0 0 250 250" xml:space="preserve">
<g>
	<path fill="#FFFFFF" d="M139.8,244c-10.85-0.01-19.86-8.66-19.87-19.08c-0.01-10.3,8.84-19,19.44-19.11
		c10.89-0.11,20.05,8.77,19.99,19.4C159.31,235.69,150.65,244.01,139.8,244z M129.46,224.9c-0.04,5.85,4.37,10.49,10.06,10.57
		c5.73,0.08,10.54-4.8,10.48-10.65c-0.06-5.6-4.49-10.2-9.94-10.31C134.1,214.38,129.51,218.88,129.46,224.9z"/>
	<path fill="#FFFFFF" d="M147.01,27.96c0.1,5.62-1.49,6.78-5.86,5.33c-10.77-3.57-21.53-7.16-32.29-10.76
		c-2.01-0.67-4.55-0.8-3.4-4.2c1.2-3.54,3.42-5.25,6.52-4.25c8.96,2.87,17.88,5.87,26.81,8.82c1.83,0.61,3.84,0.96,5.43,1.96
		C145.58,25.71,146.46,27.32,147.01,27.96z"/>
	<path fill="#FFFFFF" d="M189.62,53.26c3.66-0.06,6.95,2.83,7.09,6.23c0.15,3.69-2.65,6.38-6.63,6.39
		c-4.03,0.01-7.16-2.87-7.12-6.52C182.99,55.97,185.89,53.32,189.62,53.26z"/>
	<path fill="#FFFFFF" d="M200.93,53.36c-3.54-5.12-8.58-7.11-14.79-6.47c-1.73,0.18-3.62,0.04-5.28-0.48
		c-8-2.52-15.92-5.33-23.93-7.82c-3.08-0.96-4.03-2.13-2.92-5.51c2.49-7.58-0.77-13.58-8.31-16.12
		c-10.16-3.42-20.32-6.82-30.52-10.11c-7.59-2.45-13.68,0.42-16.34,7.98c-1.18,3.35-2.74,3.59-5.74,2.53
		c-8.16-2.88-16.42-5.48-24.62-8.22c-3.83-1.28-7.39-1.23-10.37,1.91c-3.51,3.69-3.03,5.62,1.75,7.21
		c36.51,12.13,73.02,24.26,109.53,36.41c1.35,0.45,2.66,1.04,3.98,1.56c-0.09,0.35-0.18,0.7-0.27,1.06
		c-1.34-0.06-2.69-0.03-4.02-0.19c-16.14-1.97-32.29-3.97-48.43-5.96c-20.11-2.48-40.24-4.85-60.33-7.47
		c-9.83-1.28-11.1-0.38-11.01,9.69c0.01,0.9,0.66,1.79,1.03,2.68c0.63,1.52,1.85,3.06,1.81,4.57c-0.29,11.75-0.84,23.5-1.26,35.25
		c-1.43,39.9-2.84,79.8-4.26,119.7c-0.2,5.69,2.64,9.07,8.22,9.76c16.52,2.05,33.04,4.11,49.57,6.11c3.89,0.47,7.8,0.77,11.89,1.16
		c-5.04-23.13,17.72-38.56,37.52-26.58c0.46-1.53,0.91-2.73,1.17-3.96c8.6-41.06,17.22-82.11,25.69-123.2
		c0.79-3.83,1.58-5.82,6.32-4.85c5.89,1.2,11.01-1.14,14.27-6.4C204.21,62.87,204.08,57.93,200.93,53.36z M141.15,33.29
		c-10.77-3.57-21.53-7.16-32.29-10.76c-2.01-0.67-4.55-0.8-3.4-4.2c1.2-3.54,3.42-5.25,6.52-4.25c8.96,2.87,17.88,5.87,26.81,8.82
		c1.83,0.61,3.84,0.96,5.43,1.96c1.36,0.85,2.24,2.46,2.78,3.1C147.11,33.58,145.52,34.74,141.15,33.29z M128.46,85.07l4.19,4.36
		l4.36-4.52v5.16h5.81l-4.52,4.52l3.79,4.1h-13.63V85.07z M98.94,85.1l6.62,6.61V78.17L105.48,78l7.33,6.78l6.62-6.77v13.55
		l6.61-6.61v14.2l-6.6,6.29l-6.63-7.1l-7.41,7.1l-6.46-6.78V85.1z M88.29,90.1V84.3l4.52,4.52l4.1-3.79v13.63H83.29l4.36-4.19
		l-4.52-4.36H88.29z M96.49,144.38l-4.19-4.36l-4.36,4.52v-5.16h-5.81l4.52-4.52l-3.79-4.1h13.63V144.38z M83.78,128.42l6.61-6.61
		H76.84l-0.17,0.08l6.78-7.33l-6.78-6.62h13.55l-6.61-6.61h14.2l6.29,6.6l-7.1,6.63l7.1,7.41l-6.78,6.46H83.78z M126.01,144.35
		l-6.62-6.61v13.55l0.08,0.17l-7.33-6.78l-6.62,6.78V137.9l-6.61,6.61v-14.2l6.6-6.29l6.63,7.1l7.41-7.1l6.46,6.78V144.35z
		 M136.66,139.35v5.81l-4.52-4.52l-4.1,3.79V130.8h13.62l-4.36,4.19l4.52,4.36H136.66z M149,121.8h-13.55l6.61,6.61h-14.2l-6.29-6.6
		l7.1-6.63l-7.1-7.41l6.78-6.46h13.55l-6.61,6.62h13.55l0.17-0.08l-6.78,7.33L149,121.8z M190.07,65.88
		c-4.03,0.01-7.16-2.87-7.12-6.52c0.04-3.39,2.94-6.04,6.67-6.1c3.66-0.06,6.95,2.83,7.09,6.23
		C196.85,63.19,194.06,65.87,190.07,65.88z"/>
</g>
</svg>
