<?xml version="1.0" encoding="utf-8"?>
<!-- Generator: Adobe Illustrator 25.4.1, SVG Export Plug-In . SVG Version: 6.00 Build 0)  -->
<svg version="1.1" id="Layer_1" xmlns="http://www.w3.org/2000/svg" xmlns:xlink="http://www.w3.org/1999/xlink" x="0px" y="0px"
	 viewBox="0 0 250 250" enable-background="new 0 0 250 250" xml:space="preserve">
<g>
	<path fill="#FFFFFF" d="M195.6,156c6.48,0,12.95-0.05,19.43,0.03c1.84,0.02,2.51-0.61,2.49-2.47c-0.07-9.32,0.1-18.65-0.07-27.97
		c-0.37-20.37-16.78-37.17-37.11-37.97c-7.96-0.31-15.93-0.23-23.9-0.32c-2.89-0.03-2.95-0.07-2.97-3.03
		c-0.01-1.35,0.04-2.71-0.06-4.05c-0.24-3.24-2.26-5.59-5.45-6.28c-1.1-0.24-2.26-0.33-3.39-0.33c-22.2-0.02-44.41-0.04-66.61,0.04
		c-1.85,0.01-3.86,0.43-5.52,1.22c-2.56,1.23-3.27,3.68-3.27,6.46c-0.01,6.81,0.86,5.94-6.05,5.96c-10.25,0.04-20.5,0.01-30.74,0.01
		c-2.77,0-2.85,0.09-2.85,2.91c-0.01,12.74-0.01,25.48,0,38.22c0,2.76,0.1,2.86,2.91,2.86c11.24,0.01,22.49-0.06,33.73,0.07
		c1.67,0.02,3.48,0.64,4.95,1.47c6.44,3.62,12.45,8.22,19.22,10.99c17.7,7.27,34.93,5.44,51.21-4.71c3.5-2.18,6.91-4.52,10.47-6.61
		c1.16-0.68,2.64-1.12,3.98-1.16c4.84-0.14,9.68-0.06,14.52-0.05c2.77,0.01,2.93,0.16,2.94,2.87c0.01,6.19,0,12.38,0.01,18.57
		c0,3.26,0.01,3.27,3.36,3.27C183.07,156,189.34,156,195.6,156z"/>
	<path fill="#FFFFFF" d="M103.93,61c0,1.99,0.04,3.99-0.01,5.98c-0.04,1.59,0.56,2.37,2.24,2.34c3.41-0.06,6.83-0.07,10.25,0.01
		c1.8,0.04,2.37-0.78,2.34-2.46c-0.06-3.77,0.03-7.54-0.03-11.31c-0.03-1.51,0.52-2.36,1.8-3.26c2.3-1.61,4.44-3.51,6.38-5.54
		c1.08-1.13,2.03-1.53,3.52-1.27c8.33,1.48,16.68,2.89,25.02,4.35c4.06,0.71,6.45-0.15,8.42-3.75c3.93-7.21,3.97-14.61,0.09-21.83
		c-2.07-3.86-4.4-4.65-8.76-3.89c-8.27,1.44-16.54,2.84-24.81,4.3c-1.37,0.24-2.37,0.14-3.3-1.15
		c-7.57-10.46-23.14-10.76-31.12-0.57c-1.15,1.47-2.23,2.03-4.14,1.67c-8.04-1.49-16.12-2.8-24.17-4.21
		c-4.96-0.87-7.56,0.32-9.65,4.89c-2.87,6.29-2.83,12.74-0.25,19.07c2.02,4.96,4.92,6.28,10.18,5.34c8.12-1.45,16.26-2.8,24.39-4.22
		c1.31-0.23,2.18,0.1,3.18,1.1c2.09,2.09,4.34,4.06,6.73,5.79c1.2,0.86,1.77,1.67,1.72,3.1C103.86,57.3,103.92,59.15,103.93,61
		C103.92,61,103.92,61,103.93,61z"/>
	<path fill="#FFFFFF" d="M195.55,176.09c-1.14,1.47-1.95,2.44-2.67,3.47c-5.93,8.53-11.58,17.21-15.77,26.78
		c-5.28,12.04,2.74,24.37,13.35,26.81c7.69,1.77,14.52-0.03,19.82-5.9c5.23-5.79,6.56-12.61,3.76-20.05
		c-3.08-8.19-7.81-15.46-12.64-22.68C199.6,181.83,197.71,179.19,195.55,176.09z"/>
	<path fill="#FFFFFF" d="M195.24,160.27c-7.18,0-14.36,0.05-21.55-0.03c-1.98-0.02-2.91,0.59-2.76,2.68c0.12,1.63,0.12,3.28,0,4.9
		c-0.15,2.09,0.78,2.74,2.76,2.68c3.34-0.11,6.68-0.03,10.03-0.03c11.09,0,22.19,0,33.28,0c2.78,0,2.93-0.16,2.96-2.86
		c0.02-1.56-0.09-3.13,0.02-4.69c0.14-2.08-0.78-2.7-2.77-2.68C209.89,160.32,202.57,160.27,195.24,160.27z"/>
</g>
</svg>
