<svg xmlns="http://www.w3.org/2000/svg" width="574.4793" height="574.47799" viewBox="0 0 574.4793 574.47799" id="cob-logo">
  <title>City of Bloomington, Indiana</title>
  <g>
    <polygon points="122.552 84.058 87.221 49.124 87.221 87.337 49.098 87.337 81.828 124.777 49.098 157.502 157.491 157.502 157.491 49.124 122.552 84.058" fill="#ffffff"/>
    <polygon points="84.047 451.901 49.113 487.233 87.326 487.233 87.326 525.356 124.766 492.626 157.491 525.356 157.491 416.962 49.113 416.962 84.047 451.901" fill="#ffffff"/>
    <polygon points="490.396 122.564 525.33 87.232 487.116 87.232 487.116 49.109 449.677 81.839 416.951 49.109 416.951 157.502 525.33 157.502 490.396 122.564" fill="#ffffff"/>
    <polygon points="451.89 490.407 487.222 525.341 487.222 487.128 525.345 487.128 492.615 449.688 525.345 416.962 416.951 416.962 416.951 525.341 451.89 490.407" fill="#ffffff"/>
    <polygon points="217.936 233.099 163.8 178.885 55.418 178.885 108.59 233.736 0 233.736 55.409 287.251 0 343.132 108.59 343.132 55.409 395.573 163.818 395.58 217.933 341.361 163.812 287.224 217.936 233.099" fill="#ffffff"/>
    <polygon points="356.543 341.366 410.679 395.58 519.061 395.58 465.889 340.728 574.479 340.728 519.07 287.214 574.479 231.333 465.889 231.333 519.07 178.892 410.661 178.885 356.546 233.104 410.667 287.241 356.543 341.366" fill="#ffffff"/>
    <polygon points="341.355 217.936 395.569 163.8 395.569 55.418 340.717 108.59 340.717 0 287.203 55.409 231.322 0 231.322 108.59 178.881 55.409 178.874 163.818 233.093 217.933 287.23 163.812 341.355 217.936" fill="#ffffff"/>
    <polygon points="233.088 356.542 178.874 410.678 178.874 519.06 233.725 465.888 233.725 574.478 287.24 519.069 343.121 574.478 343.121 465.888 395.562 519.069 395.569 410.66 341.35 356.545 287.213 410.666 233.088 356.542" fill="#ffffff"/>
  </g>
</svg>
