<svg id="youtube-icon" width="120.125px" height="83.9686432px" viewBox="0 0 120.125 83.9686432" enable-background="new 0 0 120.125 83.9686432">
<path fill="#FFFFFF" opacity="0.8" d="M116.5342789,13.4817839c-1.3571014-5.1099176-5.3555832-9.1343288-10.4324417-10.5000706
	C96.8996582,0.5,60,0.5,60,0.5s-36.8994446,0-46.1018333,2.4817133C8.8213072,4.3476706,4.822824,8.3718662,3.4657245,13.4817839
	C1,22.7438068,1,42.0681572,1,42.0681572s0,19.3243446,2.4657245,28.5863686
	c1.3570995,5.1099167,5.3555827,8.9666672,10.4324436,10.3324051C23.1005573,83.4686432,60,83.4686432,60,83.4686432
	s36.899437,0,46.1018295-2.4817123c5.0768585-1.3657379,9.0753479-5.2224808,10.4324493-10.3324051
	C119,61.3925018,119,42.0681572,119,42.0681572S119,22.7438068,116.5342789,13.4817839z M47.931736,59.6132164V24.5230961
	l30.8407936,17.545496L47.9317398,59.6132164H47.931736z"/>
</svg>
