<svg xmlns:rdf="http://www.w3.org/1999/02/22-rdf-syntax-ns#" xmlns="http://www.w3.org/2000/svg" version="1.1" xmlns:cc="http://creativecommons.org/ns#" xmlns:dc="http://purl.org/dc/elements/1.1/" viewBox="0 0 2048 2048">
 <path fill="#ffffff" d="m544 256c-79.3333 0-147.1667 28.1667-203.5 84.5s-84.5 124.1667-84.5 203.5v960c0 79.333 28.1667 147.167 84.5 203.5s124.1667 84.5 203.5 84.5h960c79.333 0 147.167-28.167 203.5-84.5s84.5-124.167 84.5-203.5v-960c0-79.3333-28.167-147.1667-84.5-203.5s-124.167-84.5-203.5-84.5h-960zm476.734 244.0098c44.69-0.225 89.466 3.6133 133.282 12.5273 127.474 24.2533 243.801 102.4497 313.578 211.9551 56.223 86.9629 80.344 191.6031 80.302 294.3728 1.413 69.99-15.679 142.435-58.767 198.729-44.473 55.637-111.428 90.651-180.951 103.058-37.863 5.221-77.163 9.221-114.711-0.236-35.857-7.636-66.703-35.345-77.279-70.553-35.019 36.673-79.126 65.375-128.1587 79.115-50.4259 13.233-104.7003 12.177-154.5078-3.32-42.5897-12.418-80.3248-39.892-105.6875-76.226-34.241-48.515-45.3944-109.308-45.168-167.694-0.521-108.3941 38.6823-218.3004 114.4551-296.8161 57.1913-60.831 138.8695-99.6825 222.9039-99.6895 62.744-1.4335 127.84 22.4426 168.819 71.1914 0.478-2.5538 0.575-5.5565 1.367-8.2109 1.719-12.3147 4.755-27.4627 17.34-33.1875 25.246-3.2621 51.027-1.3144 76.476-1.5098 15.576-3.4181 32.046 9.6513 32.356 25.5645-21.892 120.2339-46.816 239.9248-69.527 360.0059-5.114 33.445-17.847 66.765-12.977 100.887-0.318 7.749 5.536 14.272 13.195 15.142 41.994 3.069 84.412-9.129 119.662-32.093 35.869-22.203 57.015-61.678 65.969-101.895 9.711-50.827 6.612-103.1956-2.377-153.8633-14.201-89.3154-61.275-173.1542-131.494-230.3516-64.155-53.1526-146.786-79.7837-228.969-85.9453-85.7597-8.3619-173.9105 9.4951-249.0642 51.9824-95.5707 52.4422-166.641 145.3239-196.1348 249.8985-31.2752 107.0963-14.1254 226.0723 42.4961 321.8203 59.2602 102.802 165.7449 175.492 281.8906 197.158 113.8453 21.873 237.0363-6.959 328.3473-79.244 10.369-11.133 26.902-19.001 42.018-13.406 15.392 8.083 24.293 24.103 35.539 36.726 13.89 11.515 17.542 34.183 6.014 48.567-70.273 61.256-158.62 100.557-250.274 116.224-123.6131 22.031-254.1812-5.078-360.8943-70.55-129.1504-77.724-219.3565-214.923-243.2617-363.364-20.3736-121.1832 5.8908-248.7385 69.3946-353.6228 90.7201-154.0717 266.2515-253.1062 444.7984-253.1464zm4.889 301.8574c-44.7471 0.5974-87.3923 19.7727-121.3984 48.3281-54.4132 45.2026-84.6318 114.4507-92.8867 183.5877-4.6103 42.95-5.2769 88.859 14.459 128.477 11.7535 24.845 34.3224 44.09 60.0976 52.668 46.9634 15.756 100.1219 5.025 140.7285-22.471 65.007-45.636 105.155-120.656 117.318-198.3984 6.558-45.2198 7.639-94.1754-14.673-135.4121-18.177-36.5134-59.62-56.9899-99.309-56.7793-1.448-0.0197-2.893-0.0193-4.336 0z"/>
</svg>
