<?xml version="1.0" encoding="UTF-8" standalone="no"?>
<svg xmlns:rdf="http://www.w3.org/1999/02/22-rdf-syntax-ns#" xmlns="http://www.w3.org/2000/svg" xml:space="preserve" version="1.1" xmlns:cc="http://creativecommons.org/ns#" xmlns:dc="http://purl.org/dc/elements/1.1/" viewBox="0 0 225 225"><g fill="#ffffff" transform="matrix(1.25,0,0,-1.25,0,225)"><g fill="#ffffff" transform="matrix(.9523810 0 0 -.9523810 -257.1429 -205.7143)"><path d="m346.5-405l18 18 18-18v36l18-18v36l-18 18-18-18-18 18-18-18v-36l18 18v-36z"/><path d="m312.2539-375.2539l-11.40186-11.40234v12.72852h-12.72803l11.40235 11.40136-11.52637 11.52637h36v-36l-11.74609 11.74609z"/><path d="m270-292.5l18-18-18-18h36l-18-18h36l18 18-18 18 18 18-18 18h-36l18-18h-36z"/><path d="m324-270h-36l11.74609 11.74609-11.40234 11.40235h12.72803v12.72754l11.40234-11.40235s11.52588 11.52637 11.52588 11.52637v-36z"/><path d="m382.5-216l-18-18-18 18v-36l-18 18v-36l18-18 18 18 18-18 18 18v36l-18-18v36z"/><path d="m441-270h-36v36l11.74609-11.74609 11.40235 11.40234v-12.72852h12.72754l-11.40235-11.40136 11.5264-11.5264z"/><path d="m459-328.5l-18 18 18 18h-36l18 18h-36l-18-18 18-18-18-18 18-18h36l-18 18h36z"/><path d="m429.2539-362.7461l11.40234-11.40235h-12.72852v-12.72754l-11.40136 11.40235-11.5264-11.5264v36h36l-11.74609-11.74609z"/></g></g></svg>
