<?xml version="1.0" encoding="UTF-8" standalone="no"?>
<svg id="svg4378" xmlns="http://www.w3.org/2000/svg" version="1.1" viewBox="0 0 2048 2048">
<path id="rect5622" style="stroke:#000000;stroke-width:2;fill:#ffffff" d="m516.9258 257c-143.9986 0-259.9258 115.9272-259.9258 259.9258v1014.148c0 143.999 115.9272 259.926 259.9258 259.926h1014.148c143.999 0 259.926-115.927 259.926-259.926v-1014.148c0-143.9988-115.927-259.926-259.926-259.926h-1014.148zm321.9687 191.1191h431.9125c17.139 0 35.991 4.2839 56.558 12.8536 20.567 8.5696 36.85 18.854 48.848 30.8515l97.695 97.6934c11.998 11.9975 22.28 28.2804 30.85 48.8476 8.569 20.5672 12.855 39.4212 12.855 56.5606v104.7636c24.852 14.5685 44.777 34.493 59.774 59.7735s22.494 52.7022 22.494 82.2676v493.6135c0 45.419-16.067 84.198-48.203 116.334s-70.915 48.203-116.334 48.203h-555.3147c-28.2799 0-52.4882-10.069-72.627-30.207-20.1387-20.139-30.2089-44.349-30.2089-72.629v-987.2247c0-17.1393 5.9985-31.7075 17.996-43.7051 11.9976-11.9975 26.5658-17.9961 43.7051-17.9961zm20.5684 82.2676v329.0762h575.8811v-164.5371h-102.836c-17.14 0-31.708-6.0005-43.705-17.9981-11.998-11.9975-17.996-26.5657-17.996-43.705v-102.836h-411.3441zm-308.5078 164.5391h82.2676c28.2799 0 52.4901 10.0683 72.6289 30.207 20.1387 20.1387 30.207 44.349 30.207 72.6289v699.2833c0 28.28-10.0683 52.49-30.207 72.629-20.1388 20.138-44.349 30.207-72.6289 30.207h-82.2676c-28.2799 0-52.4902-10.069-72.6289-30.207-20.1387-20.139-30.2071-44.349-30.2071-72.629v-699.2833c0-28.2799 10.0684-52.4902 30.2071-72.6289s44.349-30.207 72.6289-30.207zm390.7754 308.5082c-5.9988 0-10.9249 1.926-14.7813 5.783-3.8563 3.856-5.7851 8.784-5.7851 14.783v82.27c0 5.998 1.9288 10.924 5.7851 14.781 3.8564 3.856 8.7825 5.785 14.7813 5.785h82.2695c5.999 0 10.927-1.929 14.783-5.785 3.857-3.857 5.783-8.783 5.783-14.781v-82.27c0-5.999-1.926-10.927-5.783-14.783-3.856-3.857-8.784-5.783-14.783-5.783h-82.2695zm164.5395 0c-5.999 0-10.927 1.926-14.784 5.783-3.856 3.856-5.785 8.784-5.785 14.783v82.27c0 5.998 1.929 10.924 5.785 14.781 3.857 3.856 8.785 5.785 14.784 5.785h82.267c5.999 0 10.927-1.929 14.783-5.785 3.857-3.857 5.786-8.783 5.786-14.781v-82.27c0-5.999-1.929-10.927-5.786-14.783-3.856-3.857-8.784-5.783-14.783-5.783h-82.267zm164.537 0c-5.999 0-10.927 1.926-14.784 5.783-3.856 3.856-5.785 8.784-5.785 14.783v82.27c0 5.998 1.929 10.924 5.785 14.781 3.857 3.856 8.785 5.785 14.784 5.785h82.267c5.999 0 10.927-1.929 14.783-5.785 3.857-3.857 5.786-8.783 5.786-14.781v-82.27c0-5.999-1.929-10.927-5.786-14.783-3.856-3.857-8.784-5.783-14.783-5.783h-82.267zm-329.0765 164.537c-5.9988 0-10.9249 1.927-14.7813 5.783-3.8563 3.856-5.7851 8.784-5.7851 14.783v82.27c0 5.998 1.9288 10.927 5.7851 14.783 3.8564 3.856 8.7825 5.783 14.7813 5.783h82.2695c5.999 0 10.927-1.927 14.783-5.783 3.857-3.856 5.783-8.785 5.783-14.783v-82.27c0-5.999-1.926-10.927-5.783-14.783-3.856-3.856-8.784-5.783-14.783-5.783h-82.2695zm164.5395 0c-5.999 0-10.927 1.927-14.784 5.783-3.856 3.856-5.785 8.784-5.785 14.783v82.27c0 5.998 1.929 10.927 5.785 14.783 3.857 3.856 8.785 5.783 14.784 5.783h82.267c5.999 0 10.927-1.927 14.783-5.783 3.857-3.856 5.786-8.785 5.786-14.783v-82.27c0-5.999-1.929-10.927-5.786-14.783-3.856-3.856-8.784-5.783-14.783-5.783h-82.267zm164.537 0c-5.999 0-10.927 1.927-14.784 5.783-3.856 3.856-5.785 8.784-5.785 14.783v82.27c0 5.998 1.929 10.927 5.785 14.783 3.857 3.856 8.785 5.783 14.784 5.783h82.267c5.999 0 10.927-1.927 14.783-5.783 3.857-3.856 5.786-8.785 5.786-14.783v-82.27c0-5.999-1.929-10.927-5.786-14.783-3.856-3.856-8.784-5.783-14.783-5.783h-82.267zm-329.0765 164.537c-5.9988 0-10.9249 1.929-14.7813 5.785-3.8563 3.856-5.7851 8.782-5.7851 14.781v82.27c0 5.998 1.9288 10.927 5.7851 14.783 3.8564 3.856 8.7825 5.783 14.7813 5.783h82.2695c5.999 0 10.927-1.927 14.783-5.783 3.857-3.856 5.783-8.785 5.783-14.783v-82.27c0-5.999-1.926-10.925-5.783-14.781-3.856-3.856-8.784-5.785-14.783-5.785h-82.2695zm164.5395 0c-5.999 0-10.927 1.929-14.784 5.785-3.856 3.856-5.785 8.782-5.785 14.781v82.27c0 5.998 1.929 10.927 5.785 14.783 3.857 3.856 8.785 5.783 14.784 5.783h82.267c5.999 0 10.927-1.927 14.783-5.783 3.857-3.856 5.786-8.785 5.786-14.783v-82.27c0-5.999-1.929-10.925-5.786-14.781-3.856-3.856-8.784-5.785-14.783-5.785h-82.267zm164.537 0c-5.999 0-10.927 1.929-14.784 5.785-3.856 3.856-5.785 8.782-5.785 14.781v82.27c0 5.998 1.929 10.927 5.785 14.783 3.857 3.856 8.785 5.783 14.784 5.783h82.267c5.999 0 10.927-1.927 14.783-5.783 3.857-3.856 5.786-8.785 5.786-14.783v-82.27c0-5.999-1.929-10.925-5.786-14.781-3.856-3.856-8.784-5.785-14.783-5.785h-82.267z"/>
</svg>
