<?xml version="1.0" encoding="UTF-8" standalone="no"?>
<svg
   xmlns:dc="http://purl.org/dc/elements/1.1/"
   xmlns:cc="http://creativecommons.org/ns#"
   xmlns:rdf="http://www.w3.org/1999/02/22-rdf-syntax-ns#"
   xmlns:svg="http://www.w3.org/2000/svg"
   xmlns="http://www.w3.org/2000/svg"
   xmlns:sodipodi="http://sodipodi.sourceforge.net/DTD/sodipodi-0.dtd"
   xmlns:inkscape="http://www.inkscape.org/namespaces/inkscape"
   enable-background="new 0 0 30 30"
   height="30px"
   id="Layer_1"
   version="1.1"
   viewBox="0 0 30 30"
   width="30px"
   xml:space="preserve"
   inkscape:version="0.91 r13725"
   sodipodi:docname="pdf-large.svg"><metadata
     id="metadata4202"><rdf:RDF><cc:Work
         rdf:about=""><dc:format>image/svg+xml</dc:format><dc:type
           rdf:resource="http://purl.org/dc/dcmitype/StillImage" /><dc:title></dc:title></cc:Work></rdf:RDF></metadata><defs
     id="defs4200" /><sodipodi:namedview
     pagecolor="#ffffff"
     bordercolor="#666666"
     borderopacity="1"
     objecttolerance="10"
     gridtolerance="10"
     guidetolerance="10"
     inkscape:pageopacity="0"
     inkscape:pageshadow="2"
     inkscape:window-width="1810"
     inkscape:window-height="1044"
     id="namedview4198"
     showgrid="true"
     inkscape:zoom="11.313708"
     inkscape:cx="10.971254"
     inkscape:cy="29.148966"
     inkscape:window-x="0"
     inkscape:window-y="0"
     inkscape:window-maximized="0"
     inkscape:current-layer="Layer_1"><inkscape:grid
       type="xygrid"
       id="grid4204"
       enabled="false" /></sodipodi:namedview><path
     style="fill:#ffffff;fill-opacity:1;stroke:none;stroke-width:2;stroke-miterlimit:4;stroke-dasharray:none;stroke-opacity:1"
     d="m 7.3362327,1.6273404 14.9818263,0 5.966214,7.3362329 0,19.0918827 -20.9480403,0 z"
     id="rect4263"
     inkscape:connector-curvature="0"
     sodipodi:nodetypes="cccccc" /><path
     style="fill:#434440"
     inkscape:connector-curvature="0"
     id="path4192"
     d="M 28.742544,7.6230338 23.276485,1.260589 22.192923,0 9.1935834,0 C 7.4576725,0 6.0124356,1.4948162 6,3.2364015 l 0,4.000733 1.9955475,0 0.0029,-3.2332864 C 8.0024635,3.0246226 9.0247702,2.0103165 9.9977648,2.0103165 l 11.0038512,-0.010085 0.0039,5.5255555 C 21.006516,9.4812126 22.463415,11 24.413425,11 L 28,11 28,25.999077 C 27.996,26.974268 26.808907,27.992941 25.835912,28 L 9.8306819,28 C 8.9431258,28 7.8417384,27.041563 7.8357074,25.963508 l 0,-1.266142 L 6,24.685646 6,26.597707 c 0,1.923155 1.2650468,3.484268 2.8411373,3.484268 l 17.8546537,-0.005 c 1.734906,0 3.304181,-1.497925 3.304181,-3.234512 l 0,-17.7531274 -1.257455,-1.4663171"
     sodipodi:nodetypes="cccssccccccscccccccsccscc" /><rect
     style="fill:#ffffff;fill-opacity:1;stroke:none;stroke-width:2;stroke-miterlimit:4;stroke-dasharray:none;stroke-opacity:1"
     id="rect4261"
     width="18.384777"
     height="18.738329"
     x="0.70710677"
     y="6.5770879"
     ry="0" /><path
     style="fill:#ea4c3a"
     inkscape:connector-curvature="0"
     id="path4194"
     d="M 20,26 0,26 0,6 20,6 20,26 M 2,24 18,24 18,8 2,8"
     sodipodi:nodetypes="ccccccccc" /><path
     style="fill:none;stroke:#ea4c3a;stroke-width:0.75511062;stroke-linejoin:round;stroke-miterlimit:10"
     inkscape:connector-curvature="0"
     id="path4196"
     stroke-miterlimit="10"
     d="m 10.367218,9.1427999 c 0.306574,0.1421944 0.243249,0.3307786 0.148764,1.2111741 -0.0975,0.912666 -0.416136,2.575635 -1.0373251,4.20835 -0.6191784,1.63574 -1.5368893,3.237193 -2.3369965,4.427189 -0.8011124,1.187979 -1.4856262,1.959459 -2.0083093,2.406212 -0.5216779,0.444736 -0.8865509,0.563735 -1.1207532,0.604074 -0.2342022,0.04034 -0.3407492,0 -0.4070897,-0.117991 -0.063325,-0.119 -0.084433,-0.317668 -0.03116,-0.555668 0.053273,-0.235982 0.181934,-0.51432 0.5447967,-0.87031 0.3618575,-0.356999 0.9609327,-0.79165 1.7942102,-1.198064 0.8332775,-0.405405 1.9007572,-0.781565 2.7762514,-1.039734 0.8754942,-0.258168 1.5590025,-0.396329 2.1570725,-0.504235 0.59807,-0.108915 1.109697,-0.188584 1.612277,-0.227915 0.50258,-0.04034 0.993098,-0.04034 1.474569,0 0.480467,0.03933 0.949876,0.117991 1.354956,0.21783 0.408094,0.09782 0.748844,0.218838 1.047376,0.405405 0.300543,0.188584 0.554848,0.444736 0.684514,0.73215 0.127655,0.288423 0.127655,0.605083 0.02111,0.831989 -0.105542,0.228923 -0.319641,0.367084 -0.565905,0.444736 -0.247269,0.08068 -0.524693,0.09984 -0.855391,0 C 15.288481,20.019162 14.90451,19.801332 14.49943,19.513918 14.093346,19.227512 13.666153,18.870513 13.111304,18.316862 12.555451,17.761195 11.872948,17.007867 11.294981,16.276725 10.719024,15.543567 10.248609,14.830577 9.9299737,14.226503 9.6093277,13.622429 9.4384505,13.12727 9.2997385,12.631102 9.1610264,12.135942 9.0544795,11.6428 9.0112576,11.197056 8.9680357,10.750303 8.9901493,10.352965 9.032366,10.038322 9.0745827,9.7206539 9.1389129,9.4836632 9.246465,9.3243247 9.3530119,9.1659947 9.5037859,9.087334 9.6103328,9.0469951 c 0.106547,-0.040339 0.1698721,-0.040339 0.2352074,-0.049415 0.063325,-0.00908 0.1266502,-0.029246 0.2231458,0 0.09449,0.030254 0.217114,0.104881 0.341754,0.1815248" /></svg>