<?xml version="1.0" encoding="UTF-8"?>
<svg width="29px" height="28px" viewBox="0 0 29 28" version="1.1" xmlns="http://www.w3.org/2000/svg" xmlns:xlink="http://www.w3.org/1999/xlink">
    <!-- Generator: Sketch 42 (36781) - http://www.bohemiancoding.com/sketch -->
    <title>noun_469214_cc</title>
    <desc>Created with Sketch.</desc>
    <defs></defs>
    <g id="Website" stroke="none" stroke-width="1" fill="none" fill-rule="evenodd">
        <g id="Final-concept" transform="translate(-677.000000, -5431.000000)" fill-rule="nonzero" fill="#FFFFFF">
            <g id="ph" transform="translate(677.000000, 5431.000000)">
                <g id="noun_469214_cc">
                    <g id="Group">
                        <path d="M27.5,19.7 C26.3,18.6 25.2,17.4 24.1,16.3 C22.9,15.1 21.2,15.1 19.9,16.3 L19.7,16.4 C19.1,17 18.5,17.5 17.9,18.2 C17.8,18.1 17.7,18.1 17.6,18.1 C17.4,18 17,17.9 16.8,17.7 C15,16.6 13.4,15.1 11.7,13.1 C10.9,12.2 10.4,11.3 10,10.5 L11.5,9 L11.9,8.6 C13.2,7.3 13.2,5.6 11.9,4.3 C11.5,3.9 11.1,3.5 10.7,3.1 L10.4,2.6 L10.4,2.6 C10.2,2.4 10.1,2.3 9.9,2.1 C9.5,1.7 9.1,1.3 8.7,0.9 C7.5,-0.3 5.8,-0.3 4.5,0.9 C4.2,1.2 3.9,1.5 3.6,1.8 C3.2,2.2 2.8,2.6 2.4,3 C1.6,3.8 1.1,4.8 1,5.9 C0.8,7.7 1.3,9.3 1.8,10.5 C2.8,13.2 4.4,15.7 6.5,18.4 C9.2,21.6 12.4,24.1 16.1,25.9 C18.2,26.9 19.9,27.4 21.6,27.5 L22,27.5 C23.5,27.5 24.7,27 25.6,25.9 C26,25.5 26.4,25.1 26.8,24.7 C27,24.5 27.2,24.3 27.5,24.1 C28.8,22.7 28.8,21 27.5,19.7 Z M26.2,22.8 C26,23 25.8,23.2 25.5,23.4 C25.1,23.8 24.6,24.3 24.2,24.8 C23.5,25.5 22.8,25.8 21.6,25.7 C20.2,25.6 18.6,25.1 16.8,24.3 C13.4,22.6 10.3,20.2 7.7,17.2 C5.7,14.8 4.3,12.4 3.3,9.9 C2.9,8.4 2.6,7.3 2.7,6.1 C2.8,5.4 3,4.9 3.5,4.4 C4,4 4.4,3.5 4.8,3.1 C5.1,2.8 5.4,2.5 5.6,2.3 C6,2 6.3,1.8 6.6,1.8 C6.9,1.8 7.2,2 7.5,2.3 C7.9,2.7 8.3,3.1 8.7,3.5 C8.8,3.6 9,3.8 9.2,4 L9.7,4.5 C10.1,4.9 10.5,5.3 10.9,5.7 C11.6,6.4 11.6,6.9 10.9,7.5 L10.4,7.9 C9.9,8.4 9.3,9 8.7,9.5 C8.4,9.8 8.1,10.3 8.4,11 C8.8,12.1 9.5,13.1 10.4,14.3 C12.1,16.4 13.9,18.1 15.9,19.3 C16.2,19.5 16.5,19.7 16.8,19.8 C17,19.9 17.1,19.9 17.3,20 C17.9,20.3 18.5,20.2 19,19.8 C19.7,19.2 20.3,18.5 20.9,17.9 L21.1,17.8 C21.7,17.2 22.3,17.2 22.9,17.8 C24,18.9 25.1,20 26.3,21.2 C26.8,21.5 26.8,22.2 26.2,22.8 Z" id="Shape"></path>
                    </g>
                </g>
            </g>
        </g>
    </g>
</svg>