<?xml version="1.0" encoding="UTF-8" standalone="no"?>
<svg
   xmlns:dc="http://purl.org/dc/elements/1.1/"
   xmlns:cc="http://creativecommons.org/ns#"
   xmlns:rdf="http://www.w3.org/1999/02/22-rdf-syntax-ns#"
   xmlns:svg="http://www.w3.org/2000/svg"
   xmlns="http://www.w3.org/2000/svg"
   xmlns:sodipodi="http://sodipodi.sourceforge.net/DTD/sodipodi-0.dtd"
   xmlns:inkscape="http://www.inkscape.org/namespaces/inkscape"
   version="1.1"
   id="svg2"
   viewBox="0 0 1792 1792"
   height="1792"
   width="1792"
   inkscape:version="0.91 r13725"
   sodipodi:docname="map-marker-white.svg">
  <sodipodi:namedview
     pagecolor="#ffffff"
     bordercolor="#666666"
     borderopacity="1"
     objecttolerance="10"
     gridtolerance="10"
     guidetolerance="10"
     inkscape:pageopacity="0"
     inkscape:pageshadow="2"
     inkscape:window-width="1920"
     inkscape:window-height="1107"
     id="namedview4919"
     showgrid="false"
     inkscape:zoom="0.18624688"
     inkscape:cx="1226.3051"
     inkscape:cy="896"
     inkscape:window-x="0"
     inkscape:window-y="1"
     inkscape:window-maximized="1"
     inkscape:current-layer="svg2" />
  <metadata
     id="metadata10">
    <rdf:RDF>
      <cc:Work
         rdf:about="">
        <dc:format>image/svg+xml</dc:format>
        <dc:type
           rdf:resource="http://purl.org/dc/dcmitype/StillImage" />
        <dc:title></dc:title>
      </cc:Work>
    </rdf:RDF>
  </metadata>
  <defs
     id="defs8" />
  <path
     style="fill:#ffffff"
     d="M 416 128 C 336.66667 128 268.83333 156.16667 212.5 212.5 C 156.16667 268.83333 128 336.66667 128 416 L 128 1376 C 128 1455.3333 156.16667 1523.1667 212.5 1579.5 C 268.83333 1635.8333 336.66667 1664 416 1664 L 1376 1664 C 1455.3333 1664 1523.1667 1635.8333 1579.5 1579.5 C 1635.8333 1523.1667 1664 1455.3333 1664 1376 L 1664 416 C 1664 336.66667 1635.8333 268.83333 1579.5 212.5 C 1523.1667 156.16667 1455.3333 128 1376 128 L 416 128 z M 896 333.01758 C 999.60453 333.01758 1088.0602 369.66952 1161.3652 442.97461 C 1234.6703 516.27969 1271.3223 604.73532 1271.3223 708.33984 C 1271.3223 761.60821 1263.258 805.34565 1247.1309 839.55469 L 980.30078 1406.9355 C 972.48157 1423.0627 960.87454 1435.7694 945.48047 1445.0547 C 930.0864 1454.34 913.59322 1458.9824 896 1458.9824 C 878.40678 1458.9824 861.9136 1454.34 846.51953 1445.0547 C 831.12546 1435.7694 819.76215 1423.0627 812.43164 1406.9355 L 544.86914 839.55469 C 528.74202 805.34565 520.67773 761.60821 520.67773 708.33984 C 520.67773 604.73532 557.32967 516.27969 630.63477 442.97461 C 703.93985 369.66952 792.39548 333.01758 896 333.01758 z M 896 520.67773 C 844.19774 520.67773 799.9709 539.0037 763.31836 575.65625 C 726.66581 612.3088 708.33984 656.53759 708.33984 708.33984 C 708.33984 760.14211 726.66581 804.36895 763.31836 841.02148 C 799.9709 877.67403 844.19774 896 896 896 C 947.80226 896 992.0291 877.67403 1028.6816 841.02148 C 1065.3342 804.36895 1083.6602 760.14211 1083.6602 708.33984 C 1083.6602 656.53759 1065.3342 612.3088 1028.6816 575.65625 C 992.0291 539.0037 947.80226 520.67773 896 520.67773 z "
     id="path4273" />
</svg>
