<?xml version="1.0" encoding="UTF-8" standalone="no"?>
<svg
   xmlns:svg="http://www.w3.org/2000/svg"
   xmlns="http://www.w3.org/2000/svg"
   viewBox="0 0 100 100"
   y="0px"
   x="0px"
>
  <path id="path4194" style="fill:#ffffff" d="m 20.257,46.6 c -9.116,0 -16.596,4.567 -18.595,8.49 -2.872,5.641 -2.206,11.308 3.433,14.179 5.64,2.872 7.743,5.716 5.588,9.949 -2.871,5.638 -0.795,12.021 4.845,14.894 6.583,3.352 12.542,4.783 17.707,4.783 9.218,0 15.912,-4.554 19.132,-10.878 C 60.983,71.096 49.755,58.277 32.838,49.66 28.546,47.475 24.245,46.6 20.257,46.6 Z m -6.264,15.656 c -0.698,1.374 -2.087,2.163 -3.529,2.163 -0.603,0 -1.216,-0.138 -1.791,-0.432 -1.947,-0.992 -2.722,-3.371 -1.73,-5.318 0.698,-1.373 2.085,-2.161 3.526,-2.161 0.604,0 1.217,0.138 1.792,0.432 1.948,0.992 2.724,3.371 1.732,5.316 z m 10.791,24.14 c -0.838,1.646 -2.507,2.594 -4.235,2.594 -0.726,0 -1.46,-0.166 -2.149,-0.518 -2.336,-1.188 -3.264,-4.047 -2.076,-6.385 0.838,-1.646 2.506,-2.593 4.233,-2.593 0.726,0 1.461,0.165 2.151,0.517 2.335,1.191 3.265,4.051 2.076,6.385 z m 3.387,-27.574 c -0.699,1.374 -2.088,2.163 -3.529,2.163 -0.605,0 -1.218,-0.138 -1.792,-0.432 -1.946,-0.992 -2.721,-3.371 -1.729,-5.32 0.698,-1.369 2.086,-2.159 3.527,-2.159 0.603,0 1.217,0.138 1.792,0.432 1.947,0.99 2.721,3.373 1.731,5.316 z m 12.636,13.54 c 0.7,-1.374 2.087,-2.161 3.528,-2.163 0.604,0 1.218,0.14 1.793,0.432 1.946,0.992 2.72,3.375 1.73,5.32 -0.699,1.371 -2.087,2.161 -3.528,2.161 -0.604,0 -1.217,-0.138 -1.792,-0.432 -1.948,-0.992 -2.723,-3.37 -1.731,-5.318 z m -4.88,-13.544 c 0.604,0 1.218,0.139 1.793,0.433 1.946,0.988 2.72,3.371 1.728,5.316 -0.698,1.373 -2.086,2.163 -3.527,2.163 -0.603,0 -1.216,-0.141 -1.791,-0.432 -1.947,-0.992 -2.721,-3.374 -1.73,-5.321 0.699,-1.371 2.086,-2.159 3.527,-2.159 z M 46.94,55.282 c 1.025,0.106 2.106,0.163 3.248,0.163 1.489,0 2.849,-0.07 4.152,-0.257 l 0,-12.19 -16.602,0 c 0,0 2.075,-8.3 12.45,-8.3 2.077,0 2.891,0.307 4.152,0.778 l 0,-9.078 c 0,-3.804 1.516,-6.983 4.149,-8.3 4.149,-2.075 5.824,-1.237 8.301,0 4.149,2.075 4.149,2.075 4.149,2.075 l 0,-14.526 c 0,-2.075 -2.194,-4.15 -4.149,-4.15 -4.151,0 -8.301,4.15 -16.602,4.15 -8.299,0 -12.45,-4.15 -16.599,-4.15 l 0,-0.002 c -1.957,0 -4.149,2.075 -4.149,4.15 l 0,29.05 c 0,3.69 0.692,7.75 2.566,11.3 0.735,0.308 1.466,0.634 2.188,1.001 5.023,2.561 9.271,5.335 12.746,8.286 z M 40.851,16.02 c 2.865,0 5.188,2.323 5.188,5.188 0,2.865 -2.323,5.188 -5.188,5.188 -2.865,0 -5.186,-2.323 -5.186,-5.188 0,-2.865 2.321,-5.188 5.186,-5.188 z m 54.989,6.225 c -4.149,0 -8.301,4.15 -16.6,4.15 -8.301,0 -12.45,-4.15 -16.602,-4.15 -1.955,0 -4.149,2.075 -4.149,4.15 l 0,29.05 c 0,9.197 4.149,20.751 20.751,20.751 16.6,0 20.749,-11.554 20.749,-20.751 l 0,-29.05 c 0,-2.075 -2.192,-4.15 -4.149,-4.15 z M 64.715,41.958 c 0,-2.866 2.322,-5.188 5.188,-5.188 2.864,0 5.187,2.323 5.187,5.188 0,2.865 -2.322,5.188 -5.187,5.188 -2.866,0 -5.188,-2.323 -5.188,-5.188 z M 79.24,67.896 c -10.376,0 -12.45,-8.299 -12.45,-8.299 l 24.9,0 c 0,0 -2.075,8.299 -12.45,8.299 z m 9.338,-20.75 c -2.865,0 -5.188,-2.323 -5.188,-5.188 0,-2.866 2.323,-5.188 5.188,-5.188 2.863,0 5.187,2.323 5.187,5.188 0,2.865 -2.324,5.188 -5.187,5.188 z" />
</svg>
