<?xml version="1.0" encoding="UTF-8" standalone="no"?>
<svg
   xmlns:dc="http://purl.org/dc/elements/1.1/"
   xmlns:cc="http://creativecommons.org/ns#"
   xmlns:rdf="http://www.w3.org/1999/02/22-rdf-syntax-ns#"
   xmlns:svg="http://www.w3.org/2000/svg"
   xmlns="http://www.w3.org/2000/svg"
   xmlns:sodipodi="http://sodipodi.sourceforge.net/DTD/sodipodi-0.dtd"
   xmlns:inkscape="http://www.inkscape.org/namespaces/inkscape"
   width="1792"
   height="1792"
   viewBox="0 0 1792 1792"
   id="svg2"
   version="1.1"
   inkscape:version="0.91 r13725"
   sodipodi:docname="bicycle.svg">
  <metadata
     id="metadata10">
    <rdf:RDF>
      <cc:Work
         rdf:about="">
        <dc:format>image/svg+xml</dc:format>
        <dc:type
           rdf:resource="http://purl.org/dc/dcmitype/StillImage" />
        <dc:title></dc:title>
      </cc:Work>
    </rdf:RDF>
  </metadata>
  <defs
     id="defs8" />
  <sodipodi:namedview
     pagecolor="#ffffff"
     bordercolor="#666666"
     borderopacity="1"
     objecttolerance="10"
     gridtolerance="10"
     guidetolerance="10"
     inkscape:pageopacity="0"
     inkscape:pageshadow="2"
     inkscape:window-width="1476"
     inkscape:window-height="818"
     id="namedview6"
     showgrid="false"
     inkscape:zoom="0.25"
     inkscape:cx="1104.2821"
     inkscape:cy="762.27358"
     inkscape:window-x="0"
     inkscape:window-y="0"
     inkscape:window-maximized="0"
     inkscape:current-layer="svg2" />
  <path
     d="m 592.47467,1095.0467 -244.14311,0 q -31.10103,0 -44.70773,-27.2135 -13.6067,-27.2134 5.05391,-52.0942 L 454.8526,820.58002 q -50.53918,-24.1033 -106.52104,-24.1033 -102.63341,0 -175.72082,73.08749 -73.087436,73.0874 -73.087436,175.72069 0,102.6335 73.087436,175.7209 73.08741,73.0874 175.72082,73.0874 89.41548,0 157.83774,-56.3707 68.42227,-56.3705 86.30537,-142.6758 z m -144.6198,-99.52339 144.6198,0 q -13.99546,-66.0897 -58.31444,-115.0738 z m 373.21239,0 223.92744,-298.56991 -373.2124,0 -76.97506,102.63342 q 81.64022,80.08509 97.96826,195.93649 l 128.29176,0 z m 870.82894,49.76159 q 0,-102.63329 -73.0875,-175.72069 -73.0875,-73.08749 -175.7208,-73.08749 -46.6515,0 -94.0807,18.66061 l 135.2896,202.15667 q 11.6628,17.8831 7.7752,38.0988 -3.8876,20.2157 -20.9932,31.1011 -11.6629,8.5528 -27.9909,8.5528 -27.2133,0 -41.2088,-22.5483 L 1266.5896,870.34171 q -72.3099,73.865 -72.3099,174.94319 0,102.6335 73.0873,175.7209 73.0875,73.0874 175.7209,73.0874 102.6333,0 175.7208,-73.0874 73.0875,-73.0874 73.0875,-175.7209 z m 99.5233,0 q 0,143.8423 -102.2447,246.087 -102.2446,102.2446 -246.0869,102.2446 -143.8423,0 -246.087,-102.2446 -102.2446,-102.2447 -102.2446,-246.087 0,-75.41999 30.7123,-142.67599 30.7123,-67.2559 85.1391,-116.24002 l -50.5391,-76.19754 -274.4667,364.65955 q -13.99547,20.2158 -39.65382,20.2158 l -153.17258,0 q -17.88309,127.5142 -115.85134,213.0419 -97.96826,85.5279 -228.5926,85.5279 -143.84227,0 -246.08692,-102.2446 Q 0,1189.1272 0,1045.2849 0,901.44271 102.24464,799.19806 204.48929,696.9534 348.33156,696.9534 q 88.63795,0 167.16806,42.76393 l 106.52103,-142.28723 -174.16578,0 q -20.21567,0 -34.98867,-14.77298 -14.77298,-14.77299 -14.77298,-34.98867 0,-20.21567 14.77298,-34.98865 14.773,-14.773 34.98867,-14.773 l 298.56991,0 0,99.5233 338.22382,0 -66.0898,-99.5233 -172.61072,0 q -20.21567,0 -34.98866,-14.77298 -14.77299,-14.77299 -14.77299,-34.98867 0,-20.21567 14.77299,-34.98865 14.77299,-14.773 34.98866,-14.773 l 199.04662,0 q 25.6584,0 41.2089,21.77072 l 207.5994,311.01032 q 70.7548,-34.21114 149.2849,-34.21114 143.8423,0 246.0869,102.24466 102.2447,102.24465 102.2447,246.08684 z"
     id="path4"
     inkscape:connector-curvature="0"
     style="fill:#ffffff" />
</svg>
