<svg xmlns:rdf="http://www.w3.org/1999/02/22-rdf-syntax-ns#" xmlns="http://www.w3.org/2000/svg" enable-background="new 0 0 544.75 430.391" xml:space="preserve" height="79.04412px" viewBox="27.2375 -43.0391 544.75 581.02785" width="100px" version="1.1" y="0px" x="0px" xmlns:cc="http://creativecommons.org/ns#" xmlns:dc="http://purl.org/dc/elements/1.1/"><g style="fill:#ffffff" transform="matrix(1.275748 0 0 1.275748 -45.54656 -17.46275)"><path style="fill:#ffffff" d="m512.309 154.188c8.711-3.232 17.516-6.585 20.025-7.839 5.405-2.701 11.888-2.702 11.888-19.452 0-16.748-12.968-17.83-12.968-17.83h-36.741c-8.106 0-9.187 7.023-9.187 7.023v19.991l-8.803-0.66c-6.826-20.108-26.516-77.301-36.249-97.11-11.888-24.201-20.806-25.188-20.806-25.188-61.937-9.024-107.738-11.605-135.669-12.162-2.893-0.071-6.589-0.126-11.044-0.129-0.334-0.002-0.647-0.002-0.972-0.002-0.323 0-0.639 0-0.973 0.002-4.456 0.003-8.152 0.058-11.045 0.129-27.93 0.557-73.731 3.138-135.667 12.162 0 0-8.918 0.987-20.806 25.188-9.748 19.837-29.477 77.159-36.277 97.192l-7.711 0.578v-19.991s-1.081-7.023-9.188-7.023h-36.741s-12.967 1.082-12.967 17.83c0 16.75 6.482 16.75 11.888 19.452 2.383 1.19 10.437 4.272 18.698 7.346-15.204 6.773-29.819 21.187-29.819 51.594v124.619s0.005 14.06 9.401 24.788v53.141c0 11.904 9.652 21.555 21.556 21.555h25.326c11.902 0 21.553-9.65 21.553-21.555v-41.178h134.223 47.314 21.12 47.312 132.755v41.178c0 11.904 9.65 21.555 21.554 21.555h25.327c11.902 0 21.554-9.65 21.554-21.555v-51.572c10.866-10.867 10.87-26.356 10.87-26.356v-124.619c0.001-29.683-13.925-44.13-28.731-51.102zm-426.111-22.554s21.91-65.531 31.647-85.351c9.737-19.821 17.042-20.629 17.042-20.629 79.146-11.528 126.147-10.223 135.487-9.799 9.338-0.423 56.34-1.729 135.483 9.799 0 0 7.306 0.808 17.044 20.629 9.74 19.82 31.648 85.351 31.648 85.351s4.869 14.562-9.736 14.965c-13.713 0.379-156.924-2.448-174.439-2.795-17.515 0.347-160.728 3.175-174.44 2.795-14.605-0.403-9.736-14.965-9.736-14.965zm-45.883 139.624c-4.015 0-4.222-3.592-4.222-3.592v-41.398c0-16.262 11.826-13.729 11.826-13.729s52.806 1.056 64.845 1.69c12.038 0.633 12.885 9.715 12.885 9.715v43.723c0 3.59-3.593 3.592-3.593 3.592s-77.725-0.001-81.741-0.001zm72.458 67.165c-8.165 0-14.783-6.618-14.783-14.784s6.618-14.783 14.783-14.783c8.167 0 14.785 6.617 14.785 14.783s-6.618 14.784-14.785 14.784zm282.819-81.102h-246.699c-2.334 0-4.227-1.184-4.227-2.644 0-1.459 1.893-2.643 4.227-2.643h246.699c2.336 0 4.227 1.184 4.227 2.643-0.001 1.461-1.891 2.644-4.227 2.644zm0-8.026h-246.699c-2.334 0-4.227-1.184-4.227-2.643s1.893-2.643 4.227-2.643h246.699c2.336 0 4.227 1.184 4.227 2.643s-1.891 2.643-4.227 2.643zm0-8.025h-246.699c-2.334 0-4.227-1.184-4.227-2.643 0-1.46 1.893-2.644 4.227-2.644h246.699c2.336 0 4.227 1.184 4.227 2.644-0.001 1.459-1.891 2.643-4.227 2.643zm35.541 97.153c-8.165 0-14.782-6.618-14.782-14.784s6.617-14.783 14.782-14.783c8.166 0 14.785 6.617 14.785 14.783s-6.619 14.784-14.785 14.784zm77.515-70.757s-0.207 3.592-4.222 3.592h-81.741s-3.593-0.002-3.593-3.592v-43.723s0.847-9.082 12.885-9.715c12.039-0.635 64.845-1.69 64.845-1.69s11.826-2.532 11.826 13.729v41.399z"/></g></svg>
