<svg id="svg5367" xmlns="http://www.w3.org/2000/svg" height="440" viewBox="0 0 283.07132 438.3121" width="285" y="0px" x="0px" ><polygon id="polygon5372" transform="matrix(.57797 0 0 .57797 -222.08 -149.16)" stroke="#81b3ff" points="407.3 915.3 407.6 915.3 409 914.6 410 915 410.7 916 410.9 916.5 411.2 917.7 411.9 918.2 412.8 917.7 413.3 917.7 414.3 916.7 414.8 916 415 916 415.2 915.5 415.7 914.6 416 913.4 416.7 913.1 417.9 913.4 418.4 914.1 419.1 914.8 420 915.3 421.2 915 422.2 914.6 422.9 913.6 423.2 911.9 423.2 911.7 423.2 908.8 423.2 908.6 423.4 908.3 423.4 907.8 424.4 905.4 424.4 905.2 424.6 904.7 424.6 904.5 426.8 902.1 427 901.8 427 901.6 428 901.1 428.2 901.1 430.8 900.2 431.1 900.2 431.1 899.9 431.3 899.7 433.5 896.8 434 896.1 434.4 895.4 434.7 895.1 434.9 894.6 436.1 893 436.1 892 436.4 891.5 436.4 890.6 436.4 890.3 436.6 888.6 436.8 888.2 436.8 887.9 437.1 887.7 438.3 886.7 438.3 886 437.6 884.8 436.6 883.6 436.4 882.4 436.4 882.2 437.1 880.7 437.6 880.5 438.3 880 440.7 879.8 443.8 878.3 446 876.4 448.1 875.7 448.1 875.4 449.1 874.7 449.6 874 449.8 872.8 449.3 872.1 448.6 868.5 450 866.1 450.3 865.6 450 864.9 450 863.4 451.7 860.3 452.2 859.6 452.9 859.4 453.2 859.4 453.4 859.4 453.9 859.1 454.1 858.6 454.1 857.9 453.9 857.2 453.6 856.5 453.9 855.8 454.4 853.8 454.6 852.4 454.6 851 454.6 850.7 454.8 850.2 454.8 850 455.1 849.8 455.3 849.3 457.5 846.6 458.7 845 463 843.8 465.6 843 467.3 842.1 467.6 841.8 467.8 841.8 468 841.6 468.3 841.4 469.2 839.7 469.5 839.4 469.7 838.7 470 835.8 471.2 833.9 471.4 833.4 471.9 832.5 472.4 832 472.8 831.3 473.1 830.8 472.6 828.2 472.6 827.9 472.8 827.2 472.8 826.2 473.1 824.1 469.2 817.8 468.8 817.4 468.5 816.6 468.8 816.2 469.5 815.2 469.2 814.5 468.8 811.1 467.6 810.4 467.3 810.2 465.2 809 464.7 808.2 465.6 806.1 466.1 803.2 466.1 802.2 467.6 801 468.5 800.1 470 797.2 470 796.7 470.2 795.3 470.4 793.4 470.7 792.6 470.7 792.2 470.9 791.2 470.7 791 470.4 790.7 470.2 790.5 468.8 788.6 468.3 788.1 466.4 787.1 465.4 786.6 461.3 784.7 461.3 784.5 461.1 782.3 461.3 782.1 462.5 779.2 462.5 779 461.8 776.3 462 773.7 462 772 460.6 770.3 460.4 769.8 459.9 769.1 458.9 768.2 458.7 767.7 457.7 767.4 457 767.2 456.3 766.7 455.8 765.8 455.8 765 455.8 764.8 455.3 763.8 454.6 763.6 453.9 763.1 453.6 763.1 453.4 762.6 453.4 761.9 453.4 761.2 453.6 760.5 452 758.6 451.7 757.1 451.5 755.4 452 753.5 452 753.3 452.2 752.6 452.4 751.4 453.2 751.1 455.3 749.9 457.5 748 459.9 745.6 460.4 745.1 461.6 743.2 462 741.8 461.3 739.1 460.8 737.2 459.4 736.5 457.7 734.3 457.7 734.1 457.5 733.8 457 730.7 457 730 458.4 727.8 458.4 727.6 458.7 727.3 458.7 727.1 458.7 726.9 458.7 726.6 458.4 724.2 459.2 722.3 459.9 720.6 459.9 720.4 460.1 720.1 460.4 720.1 461.3 719.2 461.6 718.9 461.8 718.9 463 718.9 463.2 718.9 464.9 718.9 465.2 718.9 465.6 718 465.9 718 466.6 716.8 468.3 717.5 468.3 717.7 468.5 704.3 468.5 701.2 468.5 700.9 468.5 700.7 468.5 698.8 468.5 695.4 468.5 694.9 468.5 693.5 468.5 691.8 468.5 690.9 468.5 690.1 468.5 685.3 468.5 684.1 468.5 682.7 468.5 680.8 468.5 680.5 468.5 677.2 468.5 674.5 468.5 669.3 468.5 663.7 468.5 661.8 468.5 658.5 468.5 652.9 468.5 650.1 468.5 646 468.5 643.3 468.5 636.6 468.5 633.7 468.5 632.3 468.5 631.1 468.5 628.7 468.8 617.7 468.8 612.4 468.8 605.7 468.8 605.4 468.8 604 468.8 601.1 468.8 600.4 468.8 599.9 468.8 598.2 468.8 598 469 596.1 469 595.8 469 593.7 469 593.4 469 584.8 469 576.4 469 573.7 469.2 570.9 469.2 568.9 469.2 568.7 469.2 568 469.2 563.9 469.2 562.7 469.2 559.8 469.2 559.3 469.2 558.4 469.5 555.5 469.5 552.4 469.5 551.7 469.5 549 469.5 548.8 469.5 544.7 469.7 538.9 469.7 533.9 469.7 530.5 470 523.1 470.2 509.2 470.2 506.8 470.2 506.5 470.2 503.9 470.2 495.7 470.2 495.5 470.2 490.2 470.2 487.6 470.4 486.8 470.4 482 470.4 478.4 470.4 474.1 470.4 466.7 470.4 457.8 470.4 455.4 470.4 453.5 470.4 450.4 470.7 447.5 470.7 442.9 470.7 436.4 470.7 436 470.7 434 470.7 431.2 470.7 430.9 470.7 428.5 470.7 428.3 470.7 426.4 470.7 426.1 470.7 425.2 470.7 420.4 470.7 418.9 470.7 411.7 470.7 408.6 470.7 406.7 470.7 404 470.7 393 470.7 392.3 470.7 391.1 470.7 386 470.7 382.7 470.7 380.8 470.9 379.8 470.9 378.8 470.9 378.6 470.9 378.1 470.9 377.6 470.9 375.5 470.9 374.3 470.9 372.4 470.9 369.5 470.9 363.2 470.9 361.3 470.9 355.8 470.9 352.9 470.9 344.8 470.9 344.3 470.9 344 470.9 343.6 470.9 343.3 470.9 342.1 471.2 339 471.2 338 471.2 337.8 471.2 337.6 471.2 336.8 471.2 335.6 471.2 332.5 471.2 327.2 471.2 325.8 471.2 323.9 471.2 320.7 471.2 320.5 471.2 319.8 471.2 319.1 471.4 317.1 471.4 316.2 471.4 315.7 471.4 315.5 471.4 315 471.4 313.5 471.4 310.9 471.4 309.9 471.4 309.7 471.4 309.5 471.4 309 471.4 308.5 471.4 307.8 471.4 307.5 471.4 307.1 471.4 306.6 471.4 306.3 471.4 306.1 471.4 304.9 471.4 304.7 471.4 304.4 471.4 304.2 471.4 303.2 471.4 302 471.4 301.8 471.4 300.8 471.4 300.6 471.4 300.1 471.4 299.9 471.4 299.6 471.4 298.9 471.4 298.2 471.4 297.9 471.4 297.5 471.4 297.2 471.4 296.7 471.4 296.3 471.6 295.3 471.6 295.1 471.6 294.8 471.6 294.6 471.6 293.9 471.6 293.6 471.6 292.9 471.6 292.2 471.6 291.7 471.6 290.7 471.6 290.3 471.6 290 471.6 288.1 471.6 287.1 471.6 286.7 471.6 285.9 471.6 285.5 471.6 285.2 471.6 282.3 471.6 280.7 471.6 280.2 471.6 279.2 471.6 278.5 471.6 278 471.6 277.3 471.6 276.8 471.6 276.6 471.6 276.3 471.6 276.1 472.1 275.9 472.8 277.1 473.6 278.5 474.3 279.2 475 279.7 476.2 280.9 479.1 282.8 480.3 282.3 481.2 282.6 481.7 282.8 482.7 283.5 483.2 283.1 483.6 283.3 483.9 283.5 484.1 284 484.4 284.3 484.6 285.2 483.6 286.4 484.4 287.4 484.8 287.9 485.8 288.6 488 289.1 489.9 289.5 493.5 290.7 494 291 494.4 291 494.9 291.2 499.7 292.2 504.7 292.4 506.2 292.9 508.3 292.7 509.8 292.7 513.9 292.2 514.1 291.9 516.7 291.5 518.9 291 519.4 290.7 520.6 290.5 522.5 289.5 522.5 288.1 524.9 287.6 527.5 287.1 528.3 288.1 534.3 285.7 535.7 285 535.9 285 541.2 282.6 543.9 281.4 544.1 281.1 553.7 276.3 554.2 276.1 554.7 275.9 557.5 273 557.8 272.7 562.6 270.8 567.9 267.7 569.8 266.5 571 266.5 571.7 266.5 572.4 266.5 572.9 266.5 573.1 266.5 575.8 266.5 576 266.5 580.1 266.5 580.3 266.5 580.6 266.5 584.2 266.5 587.3 266.5 591.4 266.5 595.5 266.5 598.1 266.5 603.6 266.5 605 266.5 607.4 266.5 607.7 266.5 611.8 266.5 612.5 266.5 614.9 266.5 621.4 266.5 625.4 266.3 627.1 266.3 635 266.3 636 266.3 637.4 266.3 640.8 266.3 641.5 266.3 642.7 266.3 647 266 648 266 649.4 266 649.9 266 650.9 266 651.1 266 651.4 266 652.3 266 652.8 266 653.5 266 654.7 266 658.8 266 660 266 667.2 265.8 667.7 265.8 670.1 265.8 676.3 265.8 679.4 265.8 684.7 265.8 685 265.8 685.4 265.8 685.7 265.8 686.4 265.8 688.6 265.8 688.8 265.8 693.1 265.8 699.6 265.5 700.8 265.5 702.2 265.5 702.7 265.5 703.2 265.5 706.6 265.5 708 265.5 711.6 265.5 714.5 265.5 716.6 265.5 716.9 265.5 720.2 265.3 723.3 265.3 723.8 265.3 732.5 265.3 732.7 265.3 734.1 265.1 734.6 265.1 736.5 265.1 737.7 265.1 738 265.1 739.9 265.1 740.1 265.1 751.7 264.8 752.6 264.8 752.9 264.8 756.9 264.6 764.6 264.6 765.3 264.6 768 264.3 772.1 264.3 773.5 264.3 774.5 264.3 775.4 264.3 776.1 264.3 779 264.1 780.7 264.1 782.1 264.1 783.3 264.1 784.3 264.1 786.9 264.1 787.2 264.1 792.7 263.9 797.7 263.9 800.6 263.9 801.1 263.9 808.1 263.6 808.8 263.6 813.6 263.4 816.9 263.4 818.4 263.4 819.6 263.4 819.8 263.4 822.5 263.1 826.5 263.1 828.9 263.1 829.2 263.1 830.6 263.1 833.2 262.9 834.7 262.9 844.8 262.7 849.8 262.4 850.5 262.4 852.4 262.4 852.4 265.5 852.4 266.7 852.4 267.5 852.7 269.9 852.7 272.3 852.7 273.2 852.7 274.4 852.7 275.6 852.7 278.5 852.9 282.6 853.2 286.4 853.2 288.8 853.2 289.3 853.2 290 853.4 295.1 853.6 303.2 853.6 305.4 853.9 308.7 853.9 310.9 853.9 313.3 854.1 317.6 854.1 321.5 854.4 323.1 854.4 324.8 854.4 327.7 854.4 328.2 854.6 335.9 854.6 338 854.8 341.2 854.8 343.8 855.1 353.9 855.3 357.5 855.6 370 855.6 372.1 855.6 373.8 855.8 374.5 855.8 375.7 855.8 378.4 855.8 380.3 855.8 382 856 386.5 856 388 856 390.1 856.5 402.8 856.5 406.7 857 419.2 857 423 857.5 435.5 857.5 436.9 857.5 439.3 857.7 442 857.7 445.1 857.7 447.2 857.7 448.4 858 451.8 858 452.8 858 455.4 858 457.3 858.2 460.2 858.2 462.4 858.2 462.8 858.2 465.5 858.2 468.1 858.4 468.8 858.4 471 858.4 472 858.7 480.1 858.7 484.7 858.9 488.3 858.9 492.8 858.9 496.4 858.9 497.9 858.9 501 858.9 502.9 858.9 504.4 858.9 504.6 858.9 505.1 859.2 508 859.2 513.7 859.2 514.7 859.2 515.2 859.2 516.4 859.2 517.3 859.4 520.4 859.4 525.7 859.6 533.7 859.9 535.1 859.9 541.6 859.9 549.7 859.9 550 859.9 552.1 859.9 552.4 859.9 552.6 859.9 553.8 859.9 554.1 859.9 554.3 859.9 554.5 859.9 554.8 859.9 555.7 859.9 556 859.9 557.9 859.9 558.1 859.9 567.5 860.1 568 860.1 571.6 860.1 574.5 860.1 582.6 860.1 585.3 860.1 588.1 860.1 590.8 860.1 592.7 860.4 596.5 860.4 596.8 860.4 605.4 860.4 606.4 860.4 607.3 860.4 610 860.6 611.9 860.6 612.1 860.6 615.5 860.6 619.1 860.6 619.6 860.6 619.8 860.6 621 860.6 622.9 860.6 623.4 860.6 623.9 860.6 624.1 860.6 624.6 860.6 626.5 860.6 627 860.6 629.2 860.8 631.6 860.8 631.8 861.1 639.7 861.1 642.9 861.3 651.5 861.3 653.7 861.3 656.1 861.3 656.5 861.3 658.7 861.3 659.2 861.6 661.1 861.6 667.3 861.6 667.6 861.6 671.4 861.6 671.7 861.6 672.4 861.8 672.6 861.8 672.9 861.8 673.1 861.8 673.3 861.8 676.2 861.8 681.3 861.8 683.2 862 686.5 862 689.2 862 689.4 862 697.8 862.3 705.5 862.3 713.4 862.3 720.9 862.3 721.8 862.3 727.1 862.5 728.1 862.5 728.3 862.5 728.6 862.5 728.8 862.5 729.5 862.5 729.8 862.5 730.7 862.5 731 862.5 731.2 862.5 731.7 862.5 731.9 862.5 732.4 862.5 733.1 862.5 735.8 862.5 736.2 862.5 737 862.5 737.7 862.5 737.9 862.8 742 863 748.7 863 749.2 863 750.9 863 751.6 863 754 863 754.7 863 755 863 756.4 863 757.8 863 759 862.3 759.3 861.6 759.8 860.8 760.5 860.4 761 859.9 761.4 859.6 761.7 859.4 761.9 858.9 762.4 858.7 762.6 858.4 762.9 857.2 764.3 855.8 765.3 853.4 766.7 852.7 767.4 852.2 768.2 852.2 768.4 852.2 768.9 852.2 769.4 852.7 769.8 853.2 771 853.4 771.5 853.6 771.8 854.4 772.7 855.1 773.2 856 774.2 856.3 774.2 856.3 774.4 856.5 774.4 857 775.4 858.2 776.8 859.2 778.2 859.4 778.7 859.6 779.4 860.8 780.4 861.1 781.1 861.8 782.3 862.3 783.5 862.3 783.8 862.3 784.5 862 786.2 861.8 786.2 861.8 786.4 861.6 786.6 860.6 787.6 860.6 787.8 860.4 788.1 859.6 788.8 859.2 789.3 858.4 790 857.5 791.2 857.2 791.2 856.5 792.2 855.6 793.8 855.3 794.3 855.3 794.8 855.3 795.3 855.6 795.3 855.8 796 856.3 796.7 856.8 797.4 856.8 797.7 857 797.9 857.2 797.9 857.7 797.9 858 798.2 858.2 798.2 862.5 798.2 864.2 798.4 865.2 798.4 865.6 798.6 866.1 798.9 866.8 799.1 867.1 799.1 867.3 799.1 867.6 799.4 868.8 800.3 869 800.8 869.2 800.8 869.2 801 869.5 802 869.2 803 869.2 803.2 869 803.4 869 804.2 868.8 804.4 868.5 804.6 868.3 805.1 868 805.4 866.8 806.6 865.4 807.5 864.9 808 864.7 808 864.2 808.5 864 808.7 864 809 863.2 809.7 863 810.4 863 810.6 863 811.4 863.5 812.8 865.2 815.2 865.4 816.2 865.9 817.6 865.9 817.8 865.9 818.1 865.9 818.3 865.6 818.6 865.6 818.8 865.4 819 864.4 819.3 863.5 819.3 862.3 819.3 860.6 818.6 859.2 818.1 858 817.8 856.3 817.6 855.3 817.6 854.6 817.4 853.9 817.6 853.4 817.8 852.7 818.3 852.4 818.3 851.7 818.8 851 819.3 850.8 819.5 848.1 820.7 846.9 821.2 846 821.2 843.8 820.7 841.4 820.7 841.2 820.7 840.2 820.7 839.7 820.7 839.2 821 839 821.2 838.8 821.2 838.3 821.4 836.6 823.1 834.9 824.1 833.5 824.8 832.5 825.3 831.3 826.2 830.4 827 829.6 827.2 829.2 827.4 828 827.9 827.2 828.4 826.5 829.1 824.6 830.3 824.4 830.3 823.7 830.8 823.4 831 822.9 831.8 822.9 832 822 833 821.2 833.4 820.8 833.9 819.8 834.6 819.1 835.6 818.4 836.1 817.2 836.8 815.7 837.5 813.3 838.2 812.9 838.2 812.4 838.2 811.2 838.5 810.9 838.5 810.7 838.5 809.3 837.8 808.8 837.8 807.6 837 807.3 837 806.4 836.1 806.1 836.1 805.4 835.1 803.5 832 803 831.3 802.5 830.3 802.1 830.1 800.6 829.4 799.2 828.9 798.2 828.6 798 828.6 796.1 828.4 795.1 828.6 793.7 828.6 790.1 829.6 789.8 829.8 789.6 829.8 789.1 830.1 788.6 830.3 786.9 830.6 785.3 830.8 785.3 831 785 831 784.8 831 784.3 831 784.1 831 783.8 830.8 783.1 830.8 782.1 830.6 780.7 830.1 780.2 830.1 779.7 830.1 779.5 829.8 778.3 829.8 777.6 830.1 776.6 830.3 776.4 830.6 774.9 831.3 774.5 832 773.7 833 773.7 833.2 772.8 834.4 772.3 835.1 771.8 837.8 771.8 838.2 771.8 839 771.8 839.7 772.1 840.2 772.3 840.4 773.5 842.3 774.5 844.5 774.7 846.4 774.7 846.9 774.7 847.8 774.5 849.5 774.7 853.6 774.7 853.8 774.7 854.6 774.9 855.3 775.2 855.8 775.4 856.5 776.4 858.2 777.6 860.3 778.1 862.2 778.3 862.2 778.3 862.5 778.3 863.7 778.3 865.6 778.1 866.6 778.1 866.8 777.3 868.2 776.9 868.7 775.9 869.7 774.5 870.4 772.1 871.6 771.6 871.8 771.3 872.1 770.9 872.3 770.6 872.6 770.4 872.8 770.1 873 769.9 873.5 769.4 874.7 769.2 875 769.2 875.2 769.2 875.4 768.9 876.4 768.7 876.6 768.7 876.9 768.7 877.1 767.5 879 766.5 880.2 766.3 880.2 766.1 880.5 765.3 880.7 764.4 881.2 763.7 881.7 763.2 881.9 762.9 881.9 762.5 882.2 762.2 882.2 760.8 882.6 759.8 882.9 758.4 883.1 756.9 883.1 755 883.4 753.3 883.8 750.9 885.5 750.5 886 748.5 889.1 748.5 889.4 748.5 889.6 748.5 890.1 748.3 890.3 748.3 890.6 747.3 893 747.1 893 747.1 893.7 746.9 894.2 746.9 894.4 746.1 896.6 746.1 896.8 746.1 897 746.1 897.8 746.1 899.7 746.1 899.9 746.1 900.6 745.9 901.6 745.2 903.3 744.9 904 744.9 904.2 744.9 904.5 744.5 905.9 744.2 906.2 744 907.1 743.7 907.4 743.3 908.3 743 908.6 742.3 909.5 742.1 910 741.8 910.2 741.1 911.4 741.1 911.7 740.9 911.9 740.9 912.2 740.6 912.2 739.7 913.1 739.2 913.4 737.3 914.6 736.8 914.8 735.6 915.5 734.9 916 733.4 917 732.5 917.4 731.5 918.2 731.3 918.2 730.8 918.4 729.8 918.4 729.6 918.4 728.4 917.4 727.4 916.5 727.7 916.2 727.7 916 726.5 915 726 914.8 725.3 914.6 723.8 914.6 723.3 914.8 723.1 915 722.1 915.3 720.9 915.5 720.2 915.8 719 916.2 718.3 917 717.8 917.7 717.3 918.4 717.1 920.6 717.1 921 717.1 921.3 717.1 921.8 716.9 922.2 716.9 922.7 716.9 923.7 716.4 924.9 716.1 925.4 715.9 925.6 715.2 926.8 715.2 927.1 714.7 927.3 714.5 927.5 712.6 929 711.8 929.9 710.9 930.7 708.7 933.5 708.5 934.3 708 935.2 708 935.5 706.8 938.6 706.8 942.7 707.3 947 707.5 947.9 707.5 950.1 707.5 950.8 707.3 952.7 706.3 955.1 706.1 956.1 706.1 956.3 706.1 956.6 705.8 957.1 705.8 957.3 705.6 958.7 705.6 961.1 705.4 961.6 705.4 962.8 705.1 963.5 704.6 964.5 703.9 965.5 703.4 966.2 702.7 966.9 702.5 966.9 701.3 967.6 700.8 967.9 700.6 967.9 700.3 967.9 699.8 968.1 699.6 968.1 697.2 968.3 694.3 968.8 694.1 969.1 693.8 969.1 692.4 969.3 690.7 969.8 689.8 970.3 689.3 970.3 689.3 970.5 689 970.7 688.8 970.7 688.8 971 688.6 971.7 688.6 971.9 688.6 972.4 688.8 974.6 688.8 975.5 688.6 975.8 688.6 976 688.6 976.3 688.3 976.3 688.3 976.5 688.1 976.5 687.8 976.7 687.6 976.7 687.6 977 687.6 976.7 687.1 976.7 686.9 976.7 686.6 976.5 686.4 976.5 686.4 976.3 685.9 976 685.7 975.8 685.2 975.3 685 974.8 684.7 974.3 684.5 974.1 684.2 973.6 683.8 972.7 683 971.5 682.6 970.3 682.8 970 682.6 969.5 682.3 969.5 681.8 968.8 681.6 968.8 681.4 968.6 680.9 968.3 680.9 968.1 680.6 968.1 679.4 967.4 679.2 967.4 679 967.1 677.8 966.7 676.1 966.2 675.6 966.2 674.9 966.2 674.4 966.2 674.2 966.2 673.9 966.2 673.4 966.2 672.7 966.2 672.5 966.4 671.3 966.7 670.8 966.9 669.4 967.1 668.9 967.4 668.6 967.4 668.2 967.4 667.2 967.1 665.8 966.2 665.5 966.2 664.8 965.9 664.6 965.7 664.1 965.5 663.8 965.5 663.1 965.2 661 964 660.2 963.1 659 961.9 656.6 960.7 656.2 960.4 655.2 959.7 655 959.5 654.2 958.7 654 958.5 653.3 957.1 653 956.8 652.3 952.7 652.3 951.1 652.3 950.8 652.3 950.6 652.6 949.6 653 947.2 653 947 653.3 946 653.3 945.1 653.3 944.8 653.3 943.6 652.3 941.9 650.9 939.8 648.2 938.1 647.8 938.3 647.3 938.3 646.3 938.8 645.4 940 645.4 940.5 645.6 941.9 645.6 943.4 645.1 944.3 644.9 944.6 643.9 945.3 643.7 945.3 641.3 945.5 637.9 945.1 637.4 945.3 636.2 946.3 635.3 948.2 635 949.4 634.1 949.9 633.6 949.6 631.9 947.7 631.7 947.5 630.2 946.5 629.8 946 629.5 946 626.9 945.8 625.9 946.3 625.2 947.2 625 947.2 624.7 948.2 624.5 949.6 625 950.6 625.7 951.5 627.6 952.5 629.3 953.2 630 954.9 629.5 956.8 629.5 957.1 628.8 958.3 626.6 960.2 623.8 960.9 622.6 961.1 621.1 961.1 619.7 961.1 618 961.4 617 961.6 616.8 961.9 616.6 962.3 616.1 964.3 616.1 964.5 616.1 966.2 616.1 967.1 615.8 968.3 615.8 970 616.1 973.1 616.1 975.5 616.3 976.7 616.8 978.2 617 978.7 618 979.6 618.2 980.3 618.5 980.3 618.5 980.8 618.7 981.5 618.7 982.5 618.7 983 618.5 983 618.2 983.2 618.2 983.5 618 983.5 617 984.2 616.1 984.7 615.8 984.7 615.6 984.9 614.9 985.1 613.7 985.1 613.4 985.1 612.7 984.9 610.1 984.2 607.9 983.9 607 984.2 606.7 984.4 605.8 985.6 605.5 985.6 605.5 985.9 605.3 986.3 605 987.1 605 987.3 605 988 605 988.3 605.3 991.1 605.3 991.4 605.3 992.1 605 993.1 605.5 993.8 605.5 994 605.3 994.5 604.3 996.2 603.6 996.7 602.9 997.1 601.2 998.3 600.3 998.8 600 998.8 599.5 999.1 598.1 999.3 597.4 999.3 596.9 999.1 596.4 998.8 595.9 997.9 595.9 996.4 595.9 995.5 596.4 994.3 597.9 991.1 598.3 989.5 598.6 988.7 598.6 988 598.6 987.8 598.3 987.5 598.3 987.3 598.3 987.1 598.1 987.1 598.1 986.8 597.9 986.8 597.6 986.6 597.6 986.3 595.9 986.1 594.5 985.6 594.3 985.6 593.1 985.6 592.3 986.1 591.4 986.8 589.7 988.3 589 988.7 587.8 989.5 587.5 989.7 587.3 989.7 587.1 989.7 587.1 989.9 586.8 989.7 585.6 989.5 585.1 989.2 584.9 989 584.7 988.5 584.4 988.3 583.9 987.5 583.5 986.8 582.7 986.1 582 984.9 582 984.7 581.8 984.4 580.6 982.5 580.6 982.3 580.3 981.8 579.6 980.6 579.1 979.6 579.1 979.4 578.9 978.9 578.4 977.9 578.2 977.7 577.9 976.7 577.2 974.8 576.7 973.6 576 971.9 575.3 971.2 574.8 971 574.3 970.7 573.9 970.3 573.4 970.3 573.4 970 573.1 970 572.9 970 572.7 970 572.4 970 571.9 970 570.3 971 568.1 971.7 567.1 972.2 565.9 973.1 565.5 973.6 565 974.6 564.3 975.3 563.3 976 562.8 976.5 561.9 977.9 561.9 978.2 560.2 979.9 559.7 980.3 559.5 980.6 558.7 981.1 558 981.5 557.8 981.5 557.8 981.8 556.8 982 556.6 982 555.6 982 553.9 982.3 551.1 982.5 550.3 982.5 548.9 983 545.3 984.4 544.3 984.9 543.1 985.6 542.9 985.9 541 987.3 540.7 987.3 540.7 987.5 540.5 987.8 540 988.3 539.8 988.7 539.5 989 539.3 989.5 539.1 989.7 539.1 989.9 539.1 990.4 539.1 990.9 539.1 991.1 539.3 991.6 539.3 992.3 539.3 993.1 539.5 993.1 539.5 993.3 539.3 994 538.6 996.2 538.1 997.1 537.9 999.1 537.6 1000.7 537.1 1002.2 536.2 1005.3 535.7 1006 535.7 1006.3 535.7 1006.5 535.5 1006.7 535.2 1007 534.7 1007.5 534.3 1007.9 533.5 1008.7 532.3 1009.6 530.9 1010.1 529.5 1010.6 529.2 1010.6 528.7 1010.6 528 1010.6 527.8 1010.3 527.5 1010.3 526.8 1010.1 526.8 1009.9 526.6 1009.9 526.6 1009.6 526.1 1008.7 525.4 1006 524.7 1004.3 523.2 1001.7 523.2 1001.5 523 1001.2 522.3 1000.3 521.8 999.8 521.3 999.5 520.6 999.3 519.1 999.5 515.8 999.1 514.3 998.6 513.1 998.1 508.1 994.7 506.9 993.5 506.7 993.3 506.2 992.6 505.9 992.6 505.7 992.3 505.5 992.1 505.2 991.6 505 991.6 500.9 988.7 498.7 987.8 498.5 987.5 496.6 987.1 496.3 987.1 496.1 987.1 495.1 986.6 494.7 986.3 493.5 985.4 493.2 985.1 492.8 984.7 492.3 984.7 492 984.4 490.6 983 490.6 982.7 490.8 982.5 490.6 982.5 489.4 981.8 488.4 981.5 488 981.3 487.7 981.3 486.5 980.8 486.3 980.6 485.8 980.6 484.8 980.3 484.6 980.3 484.4 980.1 483.9 980.1 483.2 980.1 482.4 980.1 481.2 980.1 479.6 980.6 479.3 980.6 479.1 980.8 478.6 981.1 476.9 982 476.9 982.3 476.2 982.7 474.5 984.2 474.3 984.2 473.8 984.7 473.6 984.9 473.1 985.4 471.6 986.8 470.9 987.1 470.7 987.1 470 987.3 468.8 986.1 467.3 985.4 467.1 985.4 464.9 984.2 464.7 983.9 464.2 983.7 463.7 983.2 463.2 982.7 463 982.5 462.5 982 462 981.3 461.6 980.6 461.1 979.6 460.8 978.2 460.8 977.7 460.8 976.7 460.8 975.8 460.4 975.1 459.9 974.6 459.2 974.3 458.9 974.1 458.7 974.1 458.4 974.1 458 974.1 457.5 974.3 456.8 974.8 456.5 975.5 456.3 975.8 456.3 976 456.3 976.3 456.3 977 456.5 977.2 456 979.1 455.3 980.1 454.1 981.1 453.2 982 452.7 983.2 452.7 983.5 452.7 984.4 452.9 985.1 453.2 985.4 453.4 986.3 453.6 986.3 453.6 986.6 453.9 987.1 454.1 987.1 455.8 988.5 456.8 989.2 457.5 989.7 457.5 989.9 458.2 990.7 458.4 992.1 458.4 992.8 458.7 994.3 458.7 995.7 458.4 995.7 458.2 996.4 457.5 997.4 457.2 997.9 456 999.5 455.8 999.8 455.8 1e3 455.1 1000.7 454.8 1000.7 454.6 1001 454.4 1001.2 453.2 1001.7 451.7 1001.9 451.5 1001.9 451.2 1001.9 450 1002.2 449.3 1002.2 448.8 1002.2 448.6 1002.2 448.4 1002.2 448.1 1001.9 446.9 1001.9 446.7 1001.7 446.2 1001.7 446.2 1001.5 446 1001.5 445.7 1001.2 445.7 1001 445.5 1000.7 445.2 1000.3 445 999.3 444.8 998.3 444.8 996.4 445.7 994.7 446 994.3 446.7 993.5 447.2 993.1 447.4 992.6 447.6 991.9 447.6 990.9 447.4 989.5 447.2 989 446.4 988.5 445.7 988 445.7 987.8 445.2 987.8 445 987.8 444.5 987.5 444.3 987.8 444 987.8 443.8 987.8 443.6 988 442.1 988.7 441.9 988.7 440.4 989.5 439.5 989.7 439 989.7 438.8 989.7 438.5 989.7 438 989.5 437.1 989.2 436.1 989.2 435.4 989.5 434.2 989.7 433.7 989.7 433 989.9 431.6 990.7 431.3 991.1 430.4 991.9 429.9 992.1 429.6 992.3 429.4 992.6 428.7 992.8 428 992.8 426 992.8 425.3 992.8 424.8 992.6 423.6 992.6 422.7 992.6 422.4 992.3 422.2 992.3 421.7 991.9 421.2 991.4 421.2 991.1 421.2 990.4 420.8 989.7 420.5 989.5 418.8 988 418.6 987.5 417.9 985.9 417.6 985.4 417.4 985.1 416.9 984.4 416.7 984.2 416.4 984.2 416.4 983.9 416 983.7 416 983.5 415.2 983.2 415 983.2 414.3 983 413.6 982.7 413.3 982.7 412.8 983 411.9 983.5 411.6 983.7 409.7 986.1 409.2 986.6 408.5 987.8 408.3 987.8 408.3 988 407.8 988.5 407.1 989.5 406.8 989.7 406.6 990.2 406.4 990.9 406.4 991.1 406.4 991.6 406.4 991.9 406.4 992.1 406.6 992.6 406.6 992.8 406.6 993.1 406.8 993.5 407.1 994 408.3 995.7 410.2 997.4 410.9 998.6 411.2 999.8 411.9 1003.4 411.9 1003.6 411.6 1004.3 411.4 1005.3 410.7 1005.8 409.5 1006.3 408.3 1006.7 408 1006.7 407.8 1007 407.6 1007.2 407.3 1007.2 407.1 1007.7 407.1 1008.2 407.1 1008.7 406.6 1008.9 405.9 1011.1 405.6 1011.3 405.4 1011.5 405.2 1011.8 404.4 1012 403.5 1011.8 403.5 1011.5 402.3 1010.6 401.8 1010.1 401.6 1009.6 401.1 1008.9 399.9 1008.2 399.4 1008.2 398.9 1007.7 398.4 1007.5 398 1007 396.8 1006.5 395.3 1006.3 394.4 1006.3 393.4 1006.7 393.2 1005.8 391.7 1005.5 390.8 1005.1 390.3 1004.6 390.3 1004.3 389.8 1003.9 389.8 1003.1 390 1002.4 390.3 1001.7 391 1000.7 391.2 999.8 391 998.8 390.3 998.3 390 997.9 389.8 997.6 389.3 996.2 388.8 994.3 389.3 993.1 389.6 992.1 389.8 991.6 390.3 991.1 391.2 990.2 392.4 989.2 392.7 989 392.9 987.5 392.2 985.4 392 985.1 391.2 983.2 391.2 982.7 392.4 979.9 392.7 979.6 393.6 978.4 395.1 976.5 395.8 975.5 396 973.4 394.1 967.9 393.9 967.1 393.6 964.7 393.4 964.5 393.9 963.3 394.1 962.1 394.4 961.9 394.8 960.4 396.5 959.9 397.2 959.7 399.4 958.7 400.1 956.3 399.9 954.9 398.7 953.7 398.4 953 398.2 952.3 398.2 950.3 399.2 949.1 399.4 948.4 401.8 946.5 402 946.5 403.2 946.3 406.1 945.5 406.6 945.1 406.8 944.8 407.6 944.1 407.8 943.9 408.5 943.1 409.2 942.2 409.7 941.5 409.7 940.5 409.7 940 409.5 939.3 409.2 938.8 408.8 937.9 407.6 937.1 404.2 934.7 401.8 932.3 400.6 929.9 400.6 929 400.8 927.8 401.3 926.8 401.3 926.6 401.6 926.1 401.8 925.6 402 925.6 403 924.9 404.2 924.9 404.4 924.7 404.4 924.4 405.6 923 406.1 921.5 406.4 921.3 405.6 919.1 405.4 918.2 405.9 917.4" stroke-width="8.651" class="st0" fill="#447aa8"/><circle id="path4216" cx="125.58" cy="287.63" r="6.754" fill="#fff"/></svg>
