<?xml version="1.0" encoding="UTF-8" standalone="no"?>
<!-- Generator: Adobe Illustrator 18.1.1, SVG Export Plug-In . SVG Version: 6.00 Build 0)  -->

<svg
   xmlns:dc="http://purl.org/dc/elements/1.1/"
   xmlns:cc="http://creativecommons.org/ns#"
   xmlns:rdf="http://www.w3.org/1999/02/22-rdf-syntax-ns#"
   xmlns:svg="http://www.w3.org/2000/svg"
   xmlns="http://www.w3.org/2000/svg"
   xmlns:sodipodi="http://sodipodi.sourceforge.net/DTD/sodipodi-0.dtd"
   xmlns:inkscape="http://www.inkscape.org/namespaces/inkscape"
   version="1.1"
   id="Layer_1"
   inkscape:version="0.91 r13725"
   sodipodi:docname="map.svg"
   x="0px"
   y="0px"
   viewBox="8.5 -4 83 83"
   enable-background="new 8.5 -4 83 83"
   xml:space="preserve"><metadata
     id="metadata8"><rdf:RDF><cc:Work
         rdf:about=""><dc:format>image/svg+xml</dc:format><dc:type
           rdf:resource="http://purl.org/dc/dcmitype/StillImage" /><dc:title></dc:title></cc:Work></rdf:RDF></metadata><defs
     id="defs6" /><sodipodi:namedview
     inkscape:current-layer="Layer_1"
     inkscape:window-maximized="1"
     inkscape:pageshadow="2"
     inkscape:window-y="0"
     inkscape:pageopacity="0"
     inkscape:window-x="0"
     inkscape:window-width="1920"
     inkscape:window-height="1098"
     inkscape:zoom="5.686747"
     id="namedview5310"
     showgrid="false"
     inkscape:cy="41.5"
     guidetolerance="10"
     bordercolor="#666666"
     borderopacity="1"
     objecttolerance="10"
     gridtolerance="10"
     inkscape:cx="21.719072"
     pagecolor="#ffffff" /><path
     id="polygon6389"
     d="m 82.051677,24.446469 -1.948389,1.995446 -1.94839,-1.995446 -2.110753,2.161733 1.94839,1.995443 -1.786025,1.995444 2.110755,2.161731 1.94839,-1.995443 1.948388,1.995443 2.110754,-2.161731 -1.948389,-1.995444 1.948389,-1.995443 -2.27312,-2.161733 z M 39.349488,34.257403 C 39.187124,34.091117 39.024757,33.758542 38.862391,33.592254 L 36.426905,35.5877 c 0.162366,0.166287 0.324732,0.498862 0.487099,0.66515 0.649462,0.831432 1.298924,1.662868 2.110753,2.494304 l 2.110755,-2.161733 c -0.649464,-0.831434 -1.13656,-1.496582 -1.786024,-2.328018 z m 18.184963,5.321185 1.298926,2.660594 c 1.298926,-0.665149 2.435488,-1.330297 3.572045,-2.494308 l -1.948387,-2.328018 c -0.974195,0.997723 -1.94839,1.662872 -2.922584,2.161732 z M 26.522595,31.09795 c 0.487099,-0.166287 -0.32473,-0.166287 0.162365,-0.332573 l -0.974194,-2.82688 c -0.649462,0.166287 -1.136558,0.498861 -1.78602,0.831435 -0.649464,0.332575 -1.461293,0.997724 -2.110757,1.496583 l 1.948389,2.161732 c 0.649463,-0.498862 2.273121,-1.164009 2.760217,-1.330297 z m -5.520434,6.651482 c 0.324731,-1.164011 0.649464,-2.161732 1.298927,-3.159454 L 19.8656,32.927109 c -0.974195,1.330294 -1.298925,2.660591 -1.786023,3.824601 l 0,0.166286 2.760219,0.997722 c 0,0 0.162365,-0.166286 0.162365,-0.166286 z M 90.33233,14.96811 70.848441,1.6651475 c -0.811828,-0.66514805 -1.948389,-0.66514805 -2.760215,0 L 50.065627,13.970388 32.04303,1.4988604 c -0.811828,-0.66514785 -1.948388,-0.66514785 -2.760216,0 L 9.7989256,14.801821 C 8.9870966,15.300684 8.5,16.298406 8.5,17.462415 l 0,53.378132 c 0,1.16401 0.4870966,2.161732 1.2989256,2.660593 C 10.610755,74 11.747315,74 12.559144,73.50114 L 30.581738,61.029613 48.604335,73.50114 c 0.811829,0.665147 1.94839,0.665147 2.760218,0 L 69.387149,61.029613 87.409747,73.50114 C 87.896845,73.833714 88.383942,74 88.871039,74 c 0.487097,0 0.974194,-0.166286 1.298925,-0.332574 0.811829,-0.498861 1.298927,-1.662869 1.298927,-2.660592 l 0,-53.378131 C 91.631256,16.63098 91.144158,15.46697 90.33233,14.96811 Z m -62.673173,41.239179 -13.151625,9.312074 0,-45.895216 13.151625,-9.312073 0,45.895215 z m 6.007531,-0.166286 0,-23.280183 c 0.162367,0.166289 0.324732,0.166289 0.487096,0.332575 l 1.786024,-2.494306 c -0.649462,-0.49886 -1.46129,-0.997722 -2.273121,-1.496582 l 0,-18.956722 13.476357,9.312074 0,20.61959 c -0.974195,-0.332575 -1.948389,-0.831434 -3.08495,-1.496582 l -1.623656,2.660591 c 1.298928,0.831436 2.59785,1.496583 3.896778,1.829158 l 0.811829,-2.494307 0,24.776766 c 0,0 -13.476357,-9.312072 -13.476357,-9.312072 z m 19.483889,9.312072 0,-21.451024 c 0,0 0,0 0.162366,0 0.487097,0 1.136561,-0.166287 1.623657,-0.166287 l -0.649462,-3.159455 c -0.324734,0 -0.811831,0.166288 -1.298927,0.166288 l 0,-21.284738 13.476356,-9.312074 0,22.615035 -0.974194,-0.831435 c -0.487096,0.665149 -1.13656,1.330296 -1.623657,1.829157 -0.324731,0.332575 -0.649463,0.831436 -0.974195,1.16401 l 2.273121,1.995444 c 0.324731,-0.332575 0.649463,-0.831434 0.974194,-1.164009 0.162365,-0.166287 0.162365,-0.332574 0.324731,-0.332574 l 0,20.785876 c 0.162366,-0.166286 -13.31399,9.145786 -13.31399,9.145786 z m 32.635513,0 -13.151623,-9.145786 0,-26.10706 c 0.649461,-0.332573 1.298924,-0.498862 2.110752,-0.665149 l -0.649462,-2.993165 c -0.487097,0.166287 -0.974194,0.166287 -1.46129,0.332573 l 0,-16.628703 13.151623,9.145787 0,46.061503 0,0 z"
     inkscape:connector-curvature="0"
     style="fill:#ffffff" /></svg>