<svg xmlns="http://www.w3.org/2000/svg" xmlns:xlink="http://www.w3.org/1999/xlink" version="1.1" x="0px" y="0px" viewBox="0 0 100 100" enable-background="new 0 0 100 100" xml:space="preserve"><path d="M46.6,53.6h17.5v-4.3H46.6V53.6z M46.6,64.6h17.5v-4.3H46.6V64.6z M64.1,34H25.8v8.5h38.3V34z M25.8,64.6h16.1V49.3H25.8  V64.6z M50,5C25.1,5,5,25.2,5,50c0,24.9,20.1,45,45,45c24.8,0,45-20.1,45-45C95,25.2,74.8,5,50,5L50,5z M78.9,33.6v36.7  c0,1.5-1.2,2.7-2.6,2.7c-1.5,0-2.6-1.2-2.6-2.7V33.6H78.9z M21.1,70.3V27h47.7v43.3c0,1,0.2,1.8,0.5,2.7H23.7  C22.2,73,21.1,71.8,21.1,70.3z" fill="#fff"></path></svg>
