<svg xmlns:rdf="http://www.w3.org/1999/02/22-rdf-syntax-ns#" xmlns="http://www.w3.org/2000/svg" enable-background="new 0 0 100 100" xml:space="preserve" version="1.1" y="0px" x="0px" xmlns:cc="http://creativecommons.org/ns#" xmlns:dc="http://purl.org/dc/elements/1.1/" viewBox="0 0 100 100"><path style="fill:#ffffff;clip-rule:evenodd;fill-rule:evenodd" d="m42.66846 66.23506h45.63815c0 1.006739-0.0087 1.653461-0.0087 2.755403h-1.480565c-14.04293-0.0011-28.08476 0-42.12769-0.0022-1.169788 0-2.055063 0.0022-2.055063 0.0022s-0.04486-1.144619 0.03392-2.755403zm45.66332 7.894154c0 1.015494 0.0394 1.460867 0.0394 2.547489-0.466163 0.02517-0.931234 0.07223-1.394115 0.07223-14.34386 0.0043-28.66911-0.120371-43.01515-0.06675-0.61061 0.0022-1.403965 0.02299-1.403965 0.02299s-0.03283-0.450844-0.0394-1.058172c-0.0065-0.68502 0-1.608596 0-1.608596s0.875426-0.0022 1.408342 0c14.34386 0.05143 28.68881 0.02845 43.03266 0.02845 0.432242 0.0011 0.864483 0.03829 1.37223 0.06237zm0.0011-3.738069v2.30237h-45.8187v-2.30237h45.8187zm2.774005 14.36684c-0.793355 0.06894-1.396304-0.0077-2.12072 0.05472v9.096771c0 0.531821 0.0043 1.064737 0.0065 1.596558 0.0065 1.790247 0.08207 1.345967-1.631574 1.407247-1.091 0.0383-1.54841 0.08207-1.528713-1.041757 0.06128-3.637395 0.02298-7.276978 0.02298-11.02708h-1.611879c0 2.766347 0.01533 5.508618-0.01533 8.25089-0.0055 0.492427-0.125842 1.371137-0.319529 1.407248-0.801016 0.153198-1.661121 0.112711-2.475268-0.01533-0.153199-0.02298-0.269193-0.76928-0.272476-1.184013-0.02407-2.793703-0.01313-5.586312-0.01313-8.479595h-33.12065v9.6461c-0.285607 0.09082-0.405979 0.154294-0.53182 0.165237-2.587979 0.254968-2.614242 0.21448-2.589073-2.339577 0.02407-2.475266 0.0055-4.950533 0.0055-7.493647h-1.473997c0 2.648165-0.0033 5.253652 0.0011 7.858044 0.0011 1.066925-0.04378 2.138227 0.04268 3.198589 0.1149 1.398492-0.692681 1.428038-1.747569 1.448828-1.06802 0.02298-1.489318-0.244025-1.463056-1.402869 0.07441-3.243453 0.02845-6.49019 0.02407-9.734738 0-0.433336-0.03502-0.866672-0.05691-1.363476-0.502276-0.05143-0.669701-0.03611-1.453208-0.04924 0-0.956402 0.08864-1.490412 0.241838-2.180905 1.643612-2.376782 3.488571-4.724017 3.488571-4.724017s2.606581 0.02517 4.858616 0.02517c13.2452 0 26.49258 0.01423 39.73887-0.02517 0.484769-0.0022 1.223409 0 1.223409 0s0.570122 0.747394 0.780223 1.269368c0.553707 1.37989 1.273746 2.693028 1.855903 4.061976 0.163049 0.380811 0.08864 0.988138 0.134598 1.574672zm-5.762491 10.18668c0.06894 0.7463 0.01969 1.502449 0.01969 2.364744h4.232685c0.04815-1.041757 0.09631-2.087891 0.154293-3.334278 3.388994 0.356736 6.363253 0.470541 9.511505 1.714739 0.01969 0.180557 0.03829 0.361114 0.05799 0.540577-0.791166 0.264817-1.564824 0.678455-2.374592 0.770375-4.855333 0.551518-9.707382 1.309856-14.57803 1.477282-12.60941 0.43224-25.22977 0.82071-37.84357 0.79773-12.79106-0.02407-25.59745-0.25168-38.32505-1.80557-1.406157-0.1718-2.793707-0.51321-4.181258-0.81414-0.323907-0.07004-0.611704-0.30202-1.184013-0.59748 1.579049-1.25514 3.272999-1.25076 4.837823-1.46524 2.858266-0.39285 5.739508-0.62812 8.617478-0.8426 0.849164-0.06457 1.226691-0.411451 1.545127-1.15228 2.768534-6.446418 4.145142-13.19814 4.442787-20.18076 0.262628-6.193638-0.152106-12.34351-1.337213-18.43538-0.04924-0.253873-0.117088-0.505558-0.156483-0.668607-1.523241 0.538388-2.961128 1.277028-4.481086 1.547317-7.227738 1.2825-13.10732-5.6465-10.73163-12.60285 0.261533-0.7649 0.216667-1.24092-0.286703-1.88873-3.070556-3.93942-2.635032-9.51698 1.000175-12.93442 0.570121-0.53511 0.808674-1.02644 0.79226-1.81761-0.136785-6.23631 4.525953-10.57076 10.72507-10.0849 0.463976 0.03502 1.108508-0.25059 1.422568-0.607326 3.982094-4.520481 9.940463-4.876123 14.43796-0.865578 0.318436 0.28342 1.049418 0.414734 1.441171 0.254968 7.321844-2.975354 14.392 2.340671 13.65008 10.26328-0.04158 0.446468 0.25278 1.106321 0.611704 1.383173 5.463753 4.226121 5.439679 11.64098-0.100676 15.83865-0.506653 0.384094-0.881992 0.657664-0.76381 1.472904 0.570122 3.971152-0.821805 7.23102-4.101371 9.485242-3.244548 2.230148-6.729838 2.269542-10.22498 0.436618-0.226517-0.118182-0.466165-0.215573-0.941083-0.433335-0.424582 2.521227-0.920292 4.894725-1.208088 7.292298-1.292347 10.75461-0.202442 21.26738 3.268622 31.54051 0.358925 1.062549 0.860105 1.33612 1.908429 1.268274 1.538561-0.101768 2.41727-0.02625 4.117785-0.02625 0 1.502449 0.0383 3.220474 0.0383 4.777637 1.283593 0 3.468875-0.0011 4.7656-0.0011 0-1.205899-0.08207-2.551867-0.08207-2.551867s0.352359-0.0087 0.1149-0.05034c0.302021 0.07441 0.125842-0.06347 0.125842-0.06347s0.141162-0.287796 0.173991 0.06347c1.176354 0 3.151534 0.100677 4.370565 0.100677 0.04815-0.646722 0.06675-1.606407 0.13569-2.525605 10.79619 0.225423 20.69398 0.39613 31.46281 0.620458 0.131314 0.624837 0.04049 1.621728 0.14554 2.12072 1.078963 0 3.509364 0.05034 4.319133 0.05034 0.08207-0.469448-0.0186-1.946729-0.0186-1.946729s0.155388 0.02299 0.41911-0.04268"/></svg>
