<svg xmlns:rdf="http://www.w3.org/1999/02/22-rdf-syntax-ns#" xmlns="http://www.w3.org/2000/svg" height="100" width="100" version="1.1" xmlns:cc="http://creativecommons.org/ns#" xmlns:dc="http://purl.org/dc/elements/1.1/" viewBox="0 0 80 80">
 <path style="fill:#ffffff" d="m45.38833 0.4711123c-1.67971 0.002088-3.35941 0.7825807-4.142 2.328677 2.76769 0.095437 5.5163 0.076328 8.284 0.019108-0.78259-1.574726-2.46229-2.350155-4.142-2.347764zm-21.25878 2.920395c-0.548767 0.00522-1.092763 0.05722-1.608127 0.2290481-1.584269 0.9352903-2.424121 2.786784-2.500472 4.581015-0.286313 1.355222 0.07635 2.80587 0.916203 3.874782 1.126167 1.030727 2.767697 1.603348 4.275615 1.259775 3.435763-0.496281 6.852438-2.004191 10.34546-1.145251 1.565181 0.534446 2.729523 1.794232 4.008389 2.824959 3.416676-0.171787 6.852438 0.152698 10.25002 0.305397 1.736968-0.629882 3.244886-1.966017 5.153643-2.156891 3.473937 0 6.699736 1.488834 10.00189 2.38595 1.527005 0.458096 3.416674 0.248135 4.428316-1.107087 1.030728-1.966017 1.336129-4.313792 0.648977-6.432508-0.17179-0.782594-0.64898-1.488836-1.33613-1.908758-1.14526-1.030727-2.78679-0.477194-4.14201-0.343582-3.39758 0.897126-7.06239 2.023289-10.53633 0.878028-1.35522-0.64897-2.42412-1.775144-3.72208-2.51955-3.49302-0.229059-7.04331-0.229059-10.53634 0.019108-1.48883 0.6871444-2.82496 1.966017-4.542842 2.023279-3.359411 0-6.298897-1.927843-9.467433-2.710434-0.53445-0.019108-1.08799-0.062023-1.63675-0.05722zm19.7795 12.75049c-1.265482 0.0073-2.529102 0.06202-3.788881 0.133612-0.03817 3.130366-0.05726 6.241634-0.267226 9.352913 2.519275 1.368472 6.751991 1.272012 9.868272 0.725329 0.591714-3.206715 0.209963-6.508867 0.496276-9.753747-2.087703-0.357898-4.199301-0.471148-6.308441-0.458107zm-5.010486 10.23094c-0.878028 1.526998-1.126166 3.359415-2.214157 4.771888-1.03073 1.66062-2.920398 2.366862-4.657368 3.015842 5.245075 3.559863 18.39572 2.631955 25.94 0.248136-1.698794-0.820766-3.569376-1.546096-4.63828-3.187628-0.93529-1.450649-1.355217-3.187618-2.137808-4.714626-1.785622 1.711961-9.401067 1.515762-12.2924-0.133612zm-7.825902 8.551224c-0.534453 0.400845-1.221605 0.782592-1.297955 1.527008-0.01909 1.240699-0.114525 2.538648 0.286313 3.741161 8.557209 7.241945 25.03313 3.336506 30.12018 0.515369 0.610802-1.832406 0.152699-3.912957-1.011642-5.439955-10.66143 3.5069-23.24494 3.43106-28.0969-0.34358zm1.698793 2.481386c0.343577 0.152699 0.668065 0.286321 0.973466 0.477194-0.03953 1.183426-0.145192 2.454133-0.267226 3.955894-0.305401-0.01911-0.610802-0.424694-0.916204-0.424694-0.01909-1.336135 0.01909-2.691346 0.209964-4.008394zm14.84059 1.078445c0.07431 0.001 0.16203 0.019 0.281541 0.06202-0.03817 1.221611-0.01909 3.101735-0.133612 4.323335-0.362664-0.133611-0.839854 0.119296-1.18343-0.03341 0.01909-1.145251 0.186104-3.101725 0.205192-4.246976 0.502095 0.02558 0.607377-0.108457 0.830309-0.104991zm-12.77912 6.02213c-0.229052 0.839854-0.381751 1.813319-1.087991 2.405037-1.10708 0.820766-2.424122 1.336124-3.741165 1.66062-3.340323 1.355211-6.966961 1.832405-10.15458 3.512112-3.45485 1.29795-5.955321 4.103821-8.24583 6.85243-1.469742 1.889678-1.870581 4.351966-3.13036 6.356168 5.020029 1.317038 10.09732 2.424114 15.09827 3.817511 0.534451-0.897116 0.897115-2.214163 2.023282-2.481386 1.622443-0.152699 3.321236 0 4.829154 0.687155 3.359412 1.393386 6.776087 2.748608 10.42181 3.16853 2.614996 0.572631 5.306344 0.133622 7.92134-0.190873 2.328683-0.324485 4.561928-1.087989 6.871524-1.469736 3.702988-0.515369 7.367802-1.488834 11.12806-1.126174 1.336129-2.95857 1.946932-6.241635 1.71788-9.486514-0.171788-2.443212-0.248137-5.020034-1.488829-7.2151-4.779958-0.265541-10.21228-0.409427-12.04426-6.279819-9.440763 1.910833-14.89005 1.815887-20.1183-0.209961zm38.17991 2.400265c-1.700716 0.0042-3.551755 0.795445-5.253853 3.058778 0.820765 1.527008 1.641531 3.111279 1.660619 4.886422 0.629889 4.25653 0.362663 8.703933-1.317043 12.69323-0.553539 1.068902 0.07635 2.271425 0.782591 3.073104 2.958951 2.221096 9.444461 1.682025 9.352909-1.775144 0.09544-6.508867-0.05722-13.01772-0.03822-19.52658-1.061572-1.123146-3.000409-2.415781-5.187048-2.409808zm-64.62574 19.09232c-1.832407-0.0191-3.617095 0.83986-5.449501 0.89712-0.019088 0.20997-0.157472 0.81122-0.195648 1.02119 6.947875 1.6797 24.26507 6.28458 24.26507 6.28458l0.190875-0.739645s-2.820188-2.113954-3.870004-3.411904c-3.01649-0.91717-9.43021-2.21048-14.94079-4.05134zm-5.845568 2.37164-0.439014 1.38862 24.62774 6.35139 0.31971-1.49838-24.50844-6.24163zm-0.5917149 2.152129s-0.2147347 0.897116-0.2147347 1.049814c8.112215 2.156891 16.30078 3.989297 24.45117 6.069849 0.133613-0.286321 0.305401-1.183436 0.305401-1.183436l-24.54184-5.93623zm-0.4485567 1.569945-0.35312 1.369537 24.41299 6.346615 0.453324-1.464974-24.5132-6.251178z"/>
</svg>
