<svg xmlns:rdf="http://www.w3.org/1999/02/22-rdf-syntax-ns#" xmlns="http://www.w3.org/2000/svg" version="1.1" xml:space="preserve" height="100px" width="100px" enable-background="new 0 0 48 48" y="0px" x="0px" xmlns:cc="http://creativecommons.org/ns#" xmlns:dc="http://purl.org/dc/elements/1.1/" viewBox="0 0 48 48"><g style="fill:#ffffff"><path style="fill:#ffffff" d="m6.766 11.972c0.011 0.165 0.029 0.33 0.054 0.493l1.3-0.197c-0.019-0.126-0.033-0.255-0.042-0.383l-1.312 0.087z"/><path style="fill:#ffffff" d="m6.819 12.69c-0.048 0-0.095-0.015-0.134-0.044-0.049-0.035-0.081-0.089-0.09-0.148-0.025-0.167-0.043-0.34-0.056-0.51-0.004-0.06 0.016-0.119 0.055-0.164 0.04-0.045 0.096-0.073 0.156-0.077l1.312-0.088c0.123 0 0.232 0.086 0.24 0.21 0.008 0.122 0.021 0.244 0.04 0.364 0.009 0.059-0.006 0.119-0.041 0.168-0.036 0.049-0.089 0.081-0.148 0.09l-1.301 0.197c-0.01 0.002-0.021 0.002-0.033 0.002z"/></g><g style="fill:#ffffff"><path style="fill:#ffffff" d="m12.837 6.974 0.048-1.314c-0.165-0.006-0.331-0.005-0.495 0.003l0.061 1.314c0.127-0.007 0.257-0.008 0.386-0.003z"/><path style="fill:#ffffff" d="m12.451 7.201c-0.12 0-0.22-0.094-0.226-0.215l-0.062-1.313c-0.006-0.125 0.09-0.23 0.215-0.236 0.172-0.008 0.344-0.01 0.514-0.003 0.061 0.002 0.117 0.027 0.157 0.071 0.041 0.044 0.063 0.103 0.061 0.162l-0.048 1.314c-0.002 0.061-0.027 0.117-0.072 0.158-0.043 0.04-0.099 0.062-0.162 0.06-0.123-0.006-0.246-0.003-0.366 0.002h-0.011z"/></g><g style="fill:#ffffff"><path style="fill:#ffffff" d="m8.092 7.824 1.017 0.834c0.081-0.099 0.167-0.196 0.256-0.288l-0.943-0.915c-0.115 0.118-0.226 0.242-0.33 0.369z"/><path style="fill:#ffffff" d="m9.108 8.884c-0.051 0-0.102-0.017-0.144-0.051l-1.016-0.834c-0.046-0.038-0.075-0.093-0.081-0.152-0.006-0.061 0.012-0.12 0.05-0.166 0.108-0.132 0.225-0.262 0.343-0.384 0.088-0.089 0.229-0.092 0.319-0.004l0.943 0.915c0.09 0.087 0.092 0.229 0.005 0.319-0.084 0.088-0.167 0.181-0.244 0.275-0.045 0.054-0.109 0.082-0.175 0.082z"/></g><g style="fill:#ffffff"><path style="fill:#ffffff" d="m16.874 7.407-0.934 0.925c0.09 0.091 0.178 0.187 0.26 0.285l1.008-0.844c-0.106-0.125-0.218-0.248-0.334-0.366z"/><path style="fill:#ffffff" d="m16.199 8.844c-0.064 0-0.128-0.027-0.173-0.08-0.078-0.093-0.16-0.185-0.247-0.271-0.042-0.043-0.066-0.101-0.065-0.161 0-0.06 0.023-0.117 0.066-0.159l0.935-0.926c0.089-0.088 0.233-0.088 0.319 0.001 0.121 0.122 0.236 0.249 0.346 0.38 0.08 0.096 0.068 0.238-0.027 0.318l-1.008 0.845c-0.043 0.036-0.094 0.053-0.146 0.053z"/></g><g style="fill:#ffffff"><path style="fill:#ffffff" d="m17.266 11.841-0.001 0.007c-0.008 0.128-0.021 0.258-0.039 0.384l1.302 0.186c0.023-0.162 0.04-0.328 0.05-0.492l0.001-0.023-1.313-0.062z"/><path style="fill:#ffffff" d="m18.528 12.645c-0.011 0-0.021 0-0.032-0.002l-1.302-0.187c-0.123-0.018-0.209-0.132-0.191-0.255 0.017-0.121 0.029-0.244 0.037-0.367 0.007-0.12 0.107-0.219 0.227-0.219h0.01l1.313 0.062c0.124 0.006 0.221 0.11 0.215 0.235-0.011 0.197-0.028 0.37-0.053 0.538-0.017 0.113-0.113 0.195-0.224 0.195z"/></g><g style="fill:#ffffff"><path style="fill:#ffffff" d="m42.91 19.201h5.804v2h-5.804zm-12.00974 41.20202 1.075306-1.686209 4.893379 3.120538-1.075306 1.686209zm-1.01916-10.32956c-0.0996 0.341768-0.458183 0.539319-0.800911 0.439439l-0.38689-0.11275c-0.341768-0.0996-0.539319-0.458183-0.439438-0.800911 0.09988-0.342728 0.458183-0.539319 0.800911-0.439438l0.386889 0.11275c0.342449 0.100841 0.53904 0.459143 0.439439 0.800911zm5.517807 1.39869-0.11275 0.38689c-0.0996 0.341768-0.458183 0.539319-0.800912 0.439438-0.342728-0.09988-0.539319-0.458183-0.439438-0.800911l0.11275-0.386889c0.0996-0.341769 0.458183-0.53932 0.800911-0.439439 0.342729 0.09988 0.53904 0.459143 0.439439 0.800911zm-1.443711-2.04036-0.982579 3.371601c-0.0996 0.341768-0.458183 0.539319-0.800911 0.439439-0.342729-0.09988-0.53932-0.458184-0.439439-0.800912l0.982579-3.371601c0.0996-0.341768 0.458183-0.539319 0.800911-0.439439s0.53904 0.459143 0.439439 0.800912zm1.020504 0.297403-0.982579 3.371601c-0.0996 0.341769-0.458183 0.53932-0.800911 0.439439-0.342728-0.09988-0.539319-0.458183-0.439438-0.800911l0.982578-3.371601c0.0996-0.341769 0.458184-0.53932 0.800912-0.439439 0.342728 0.09988 0.539039 0.459143 0.439438 0.800911zm-1.846831 0.429389c-0.144761-0.02865-1.484854-0.33378-3.98887-2.131117-0.18513-0.08312-1.020252-0.423359-1.716521-0.135697-0.420545 0.174286-0.742404 0.571061-0.954542 1.181043-0.149856 0.625008-0.09703 1.129936 0.155525 1.503506 0.481136 0.707865 1.55944 0.828383 1.569599 0.829261 3.02336-0.181298 4.33197 0.285476 4.471376 0.339643l-0.466636 1.204494c-0.0055-0.0026-1.185925-0.419562-4.026775-0.256944-0.166436-0.0079-1.787607-0.174119-2.614122-1.390929-0.476775-0.701387-0.587282-1.573088-0.328757-2.592424 0.01543-0.06008 0.03209-0.120842 0.05-0.182283l0.01344 0.0039c0.345745-0.914759 0.900347-1.531176 1.64877-1.836969 1.338947-0.545113 2.762727 0.169786 2.823691 0.200051 2.391402 1.715565 3.610615 1.995886 3.623375 1.998563l-0.259551 1.265886zm6.555203-26.24607-1.043011 3.578966-1.920046-0.559555 0.483456-1.65892-2.953031-0.860596-0.483456 1.65892-1.920046-0.559555 1.043011-3.578966zm-3.134908 10.75706-1.042731 3.578007-6.793124-1.979707 1.042732-3.578006 1.920046 0.559555-0.483176 1.65796 2.953031 0.860596 0.483176-1.65796zm1.181337-4.075056-0.318108 1.091546-0.599054-0.174581c-0.315332 0.617404-0.802798 1.135691-1.453282 1.545018l-0.106941 0.06674-0.827354-1.213929 0.113019-0.0733c0.385491-0.246995 0.677985-0.492969 0.871964-0.733282l-0.907222-0.26439c-0.298561 0.484806-0.609274 0.825461-0.92426 1.012803-0.34586 0.207507-0.768956 0.240439-1.255688 0.09859-0.484812-0.141288-0.843619-0.421878-1.068221-0.834172-0.203914-0.37606-0.276767-0.808707-0.217235-1.28818l-0.406089-0.118346 0.318107-1.091547 0.42337 0.123382c0.238804-0.483473 0.609971-0.931497 1.106023-1.33271l0.101938-0.08174 0.910091 1.126595-0.102898 0.08146c-0.260144 0.206449-0.46809 0.412487-0.61832 0.613472l0.872661 0.254317c0.307278-0.496847 0.628908-0.849944 0.955771-1.049448 0.358697-0.21939 0.789791-0.258323 1.278443-0.115916 0.487692 0.142127 0.84894 0.428636 1.071984 0.84985 0.206477 0.385139 0.274973 0.836306 0.208167 1.34074l0.573134 0.167028zm-0.496332 0.766718 0.171504-0.588494-0.540493-0.157515 0.01901-0.11528c0.08405-0.492118 0.0292-0.925769-0.164757-1.289552-0.188911-0.356064-0.497232-0.599026-0.913882-0.72045-0.421451-0.122822-0.77227-0.09487-1.069098 0.08735-0.309226 0.18902-0.618217 0.541634-0.921013 1.048121l-0.05046 0.08737-1.404514-0.409314 0.0906-0.146495c0.150181-0.243703 0.377037-0.493183 0.672971-0.740238l-0.580935-0.719243c-0.447459 0.381003-0.776872 0.803698-0.981725 1.256445l-0.04518 0.101406-0.38785-0.11303-0.171503 0.588494 0.375369 0.109393-0.01873 0.11432c-0.07777 0.474158-0.02153 0.878009 0.172866 1.236712 0.19195 0.352784 0.490989 0.584709 0.911479 0.707252 0.41473 0.120863 0.76663 0.09635 1.047862-0.07167 0.295429-0.177418 0.594183-0.51635 0.884823-1.009714l0.0517-0.08805 1.448675 0.422184-0.09624 0.147975c-0.190408 0.292391-0.50693 0.588648-0.942248 0.881532l0.533751 0.784652c0.58845-0.393034 1.024964-0.88659 1.299306-1.466988l0.04806-0.100566 0.560653 0.16339zm-1.189529-0.986179-1.334432-0.388891 0.121681-0.15306c0.124441-0.155382 0.240055-0.251883 0.352241-0.297306 0.119064-0.04758 0.250258-0.05101 0.388502-0.01073 0.208325 0.06071 0.457991 0.22617 0.468689 0.67195l0.0033 0.178032zm-0.870681-0.525587 0.578894 0.168706c-0.04943-0.159183-0.156841-0.212357-0.253803-0.240615-0.08256-0.02406-0.153719-0.02293-0.217031 0.0013-0.02616 0.01112-0.06115 0.03113-0.10806 0.07058zm-1.730921 0.406924-0.140921 0.154745c-0.264445 0.292687-0.535994 0.291666-0.716478 0.239068-0.184325-0.05372-0.409508-0.199542-0.429992-0.586722l-0.0099-0.18411 1.296991 0.377979zm3.880243 1.267256-0.578894-0.168706c-0.301447 0.641241-0.785951 1.170806-1.453112 1.590896l-0.681512-0.99957c0.480313-0.307893 0.819272-0.613236 1.016197-0.917267l-1.181788-0.344406c-0.304755 0.513206-0.614705 0.865541-0.931211 1.054523-0.315546 0.189261-0.699884 0.217865-1.152055 0.08609-0.452171-0.131776-0.781294-0.389133-0.98889-0.770432-0.207316-0.382259-0.26997-0.821308-0.187123-1.320026l-0.390729-0.11387 0.245085-0.84098 0.40513 0.118066c0.228079-0.50743 0.600282-0.969733 1.11785-1.38759l0.746333 0.923679c-0.334208 0.264023-0.583661 0.526707-0.746716 0.789572l1.142427 0.332936c0.314312-0.528128 0.634899-0.891944 0.963001-1.092128 0.328103-0.200185 0.7192-0.234109 1.174251-0.101495 0.454091 0.132335 0.785936 0.394652 0.993213 0.78419 0.207958 0.390779 0.267496 0.847668 0.177095 1.372307l0.554893 0.161711-0.245365 0.84194zm-5.037241-1.467993c0.01337 0.250747 0.125044 0.407236 0.33721 0.469067 0.212165 0.06183 0.405502-0.0047 0.583452-0.20076l-0.920662-0.268307zm3.249661-0.403859c-0.111363-0.03245-0.211918-0.03051-0.302906 0.0065-0.09099 0.03702-0.190886 0.122478-0.299012 0.257616l0.976344 0.284534c-0.0056-0.295347-0.13058-0.477592-0.374426-0.548656zm13.93432 8.80597 16.95563-14.05065 1.27606 1.53988-16.95564 14.05065zm-2.693512 9.246221 1.903621-0.612819 6.747742 20.96077-1.903621 0.612818zm0.69358-27.2166-0.55956 1.92004-17.28041-5.03599-10.91133 37.4409 17.28042 5.036-0.55956 1.92004-19.20046-5.59555 12.03043-41.281zm22.65194 8.048135-11.25322 38.61405c-0.522624 1.793323-2.408361 2.827977-4.201685 2.305352l-17.49353-5.09811c-0.736338-0.21459-1.384414-0.678429-1.824774-1.304627-0.595084-0.849395-0.768909-1.904115-0.479898-2.895818l0.06491-0.222726 14.56143-15.9522-3.434952-22.22696 0.06211-0.213126c0.522625-1.793323 2.408362-2.827976 4.201685-2.305352l17.4945 5.098388c1.791403 0.522065 2.826056 2.407801 2.303432 4.201125zm-33.37586 32.37728c-0.04784 0.346437 0.03519 0.697685 0.239408 0.990508 0.18269 0.259469 0.44036 0.443925 0.747568 0.533454l17.4945 5.098388c0.735377 0.214309 1.507773-0.209484 1.722083-0.944862l11.2535-38.61501c0.21431-0.735377-0.209483-1.507773-0.944861-1.722083l-17.49451-5.09839c-0.672017-0.195845-1.375554 0.141777-1.654367 0.762533l3.507855 22.70232-14.87118 16.29314z" transform="matrix(.2798 .9601 -.9601 .2798 52.3878 -29.4334)"/></g></svg>
